<svg width="672" height="604" xmlns="http://www.w3.org/2000/svg" xmlns:xlink="http://www.w3.org/1999/xlink" overflow="hidden"><defs><clipPath id="clip0"><rect x="304" y="-1" width="672" height="604"/></clipPath><clipPath id="clip1"><rect x="305" y="0" width="670" height="602"/></clipPath><clipPath id="clip2"><rect x="305" y="0" width="670" height="602"/></clipPath><clipPath id="clip3"><path d="M742.006 73.2272 423.109 73.2272 423.109 404.127 480.97 404.127C491.046 445.46 528.31 476.139 572.744 476.139 617.182 476.139 654.442 445.456 664.518 404.127L742.001 404.127 742.001 73.2272Z"/></clipPath><clipPath id="clip4"><path d="M742.006 73.2272 423.109 73.2272 423.109 404.127 480.97 404.127C491.046 445.46 528.31 476.139 572.744 476.139 617.182 476.139 654.442 445.456 664.518 404.127L742.001 404.127 742.001 73.2272Z"/></clipPath><clipPath id="clip5"><path d="M974.829 0 685.867 0 684.211 95.6693 805.421 184.752C804.402 188.54 803.854 192.518 803.854 196.63 803.854 221.778 824.242 242.164 849.392 242.164 868.542 242.164 884.929 230.344 891.658 213.603L974.829 213.603 974.829 0Z"/></clipPath></defs><g clip-path="url(#clip0)" transform="translate(-304 1)"><g clip-path="url(#clip1)"><g clip-path="url(#clip2)"><path d="M541.187 380.492 541.161 380.51 539.007 381.124 533.742 382.677C531.446 374.867 527.588 367.378 522.123 360.662L528.153 355.754C522.127 348.353 514.905 342.466 506.992 338.203L503.281 345.02C495.871 340.957 487.768 338.51 479.508 337.646L480.3 329.943C474.991 329.396 469.611 329.449 464.28 330.117 460.461 330.584 456.666 331.372 452.936 332.475L455.126 339.92C447.316 342.217 439.826 346.07 433.111 351.535L428.202 345.51C420.806 351.531 414.914 358.753 410.651 366.666L417.469 370.382C413.401 377.791 410.958 385.89 410.09 394.15L402.387 393.362C401.43 402.489 402.276 411.786 404.919 420.726L404.981 420.708 409.881 419.266 412.36 418.537C414.656 426.347 418.532 433.859 423.979 440.552L417.949 445.46C423.975 452.861 431.175 458.726 439.065 463.011L442.777 456.194C450.208 460.243 458.325 462.709 466.589 463.577L465.802 471.28C467.306 471.431 468.814 471.542 470.323 471.596 477.968 471.898 485.676 470.973 493.139 468.77L492.663 467.106 490.954 461.325C498.768 459.029 506.28 455.152 512.996 449.688L517.904 455.713C525.3 449.692 531.165 442.487 535.433 434.575L528.616 430.864C532.679 423.454 535.144 415.333 536.012 407.073L543.719 407.861C544.654 398.742 543.826 389.428 541.187 380.492ZM459.304 411.804C453.119 404.203 454.267 393.028 461.868 386.847 464.409 384.778 467.35 383.527 470.363 383.064 476.384 382.139 482.712 384.337 486.833 389.397 489.775 393.006 491.056 397.425 490.785 401.728 490.482 406.49 488.262 411.118 484.265 414.376 476.669 420.561 465.499 419.413 459.304 411.804Z" fill="#1F65CF" transform="matrix(1.00008 0 0 1 305.171 0)"/><path d="M60.5754 242.747C63.0364 245.768 65.9779 248.167 69.2043 249.916L70.7218 247.13C73.7568 248.786 77.0766 249.791 80.4498 250.147L80.125 253.294C83.8497 253.676 87.6457 253.347 91.2948 252.266L91.099 251.589 90.4004 249.226C93.5911 248.287 96.6617 246.703 99.403 244.473L101.406 246.939C104.427 244.478 106.826 241.536 108.57 238.301L105.785 236.784C107.444 233.758 108.455 230.438 108.806 227.064L111.952 227.389C112.335 223.665 111.997 219.86 110.92 216.211L110.911 216.219 110.03 216.473 107.881 217.109C106.942 213.919 105.366 210.857 103.132 208.116L105.598 206.109C103.137 203.087 100.186 200.68 96.951 198.935L95.4335 201.721C92.4074 200.061 89.0965 199.06 85.7188 198.708L86.0437 195.562C82.3189 195.179 78.514 195.517 74.8649 196.594L75.7594 199.638C72.5686 200.577 69.5069 202.153 66.7656 204.387L64.763 201.926C61.7414 204.387 59.3339 207.337 57.5894 210.572L60.3752 212.09C58.7153 215.116 57.714 218.427 57.3624 221.804L54.2162 221.48C53.8246 225.209 54.1717 229.009 55.2486 232.658L55.2753 232.654 57.2779 232.062 58.2925 231.764C59.2315 234.955 60.8158 238.025 63.0408 240.758L60.5754 242.747ZM73.2139 232.463C68.7771 227.011 69.6003 218.992 75.0518 214.555 80.5121 210.109 88.5313 210.933 92.9681 216.384 97.4138 221.844 96.5905 229.864 91.1302 234.309 85.6787 238.746 77.6596 237.923 73.2139 232.463Z" stroke="#9FD1FC" strokeWidth="1.07053" stroke-miterlimit="10" fill="none" transform="matrix(1.00008 0 0 1 305.171 0)"/><path d="M195.936 117.813C196.741 120.897 198.116 123.683 199.923 126.077L201.997 124.52C203.697 126.78 205.824 128.658 208.214 130.065L206.905 132.299C209.549 133.847 212.481 134.889 215.565 135.325L215.65 134.755 215.93 132.761C218.623 133.144 221.444 133.011 224.243 132.281L224.897 134.795C227.981 133.99 230.767 132.614 233.161 130.799L231.604 128.725C233.869 127.034 235.742 124.907 237.153 122.517L239.387 123.825C240.936 121.182 241.977 118.236 242.413 115.152L242.404 115.157 241.661 115.045 239.845 114.787C240.232 112.095 240.095 109.282 239.365 106.483L241.879 105.829C241.074 102.745 239.694 99.9504 237.878 97.5562L235.805 99.1138C234.114 96.8486 231.991 94.984 229.597 93.5733L230.905 91.3393C228.262 89.7907 225.316 88.7493 222.232 88.3132L221.862 90.881C219.17 90.4983 216.357 90.6318 213.558 91.3616L212.904 88.8473C209.82 89.6527 207.025 91.0323 204.631 92.8479L206.189 94.9217C203.924 96.6128 202.059 98.7355 200.648 101.125L198.414 99.8169C196.857 102.46 195.824 105.406 195.388 108.49L195.411 108.495 197.102 108.735 197.956 108.855C197.569 111.547 197.707 114.369 198.437 117.159L195.936 117.813Z" fill="#48C6AA" transform="matrix(1.00008 0 0 1 305.171 0)"/><path d="M208.948 104.356C208.957 105.224 208.979 107.275 209.032 112.006 209.13 120.728 217.603 124.929 218.863 125.494 220.153 124.831 228.466 120.515 228.368 111.792 228.319 107.409 228.297 105.331 228.284 104.356L218.636 100.404 208.948 104.356Z" fill="#FFFFFF" transform="matrix(1.00008 0 0 1 305.171 0)"/><path d="M214.711 110.702 214.751 116.429C214.755 117.066 222.574 117.017 222.57 116.376L222.53 110.649 214.711 110.702ZM217.67 112.842C217.666 112.313 218.093 111.881 218.627 111.877 219.161 111.872 219.597 112.3 219.602 112.829 219.606 113.216 219.37 113.554 219.036 113.71L219.045 115.335C219.045 115.553 218.872 115.731 218.649 115.735 218.431 115.735 218.253 115.557 218.253 115.343L218.244 113.719C217.906 113.568 217.67 113.234 217.67 112.842Z" fill="#48C6AA" transform="matrix(1.00008 0 0 1 305.171 0)"/><path d="M215.392 110.288 216.184 110.284 216.179 109.896C216.171 108.561 217.256 107.467 218.596 107.458 219.94 107.449 221.039 108.53 221.048 109.865L221.052 110.252 221.844 110.248 221.84 109.861C221.827 108.09 220.371 106.661 218.591 106.67 216.811 106.683 215.374 108.13 215.387 109.901L215.392 110.288Z" fill="#48C6AA" transform="matrix(1.00008 0 0 1 305.171 0)"/><path d="M205.535 128.267C205.757 126.638 205.908 124.987 205.908 123.3 205.908 102.981 189.438 86.5109 169.119 86.5109 153.877 86.5109 140.798 95.7806 135.218 108.989 130.674 104.943 124.707 102.465 118.147 102.465 103.951 102.465 92.4385 113.973 92.4385 128.173L87.6413 128.173C73.9882 128.173 62.8183 139.343 62.8183 152.992L62.8183 152.992C62.8183 166.645 73.9882 177.81 87.6413 177.81L203.697 177.81C217.35 177.81 228.515 166.64 228.515 152.992L228.515 152.992C228.524 139.957 218.338 129.215 205.535 128.267Z" fill="#C9F5FF" transform="matrix(1.00008 0 0 1 305.171 0)"/><path d="M137.114 120.288 189.203 120.288 189.203 167.41 137.114 167.41Z" fill="#453B73" transform="matrix(-1.00008 -1.22465e-16 1.22474e-16 -1 631.51 287.697)"/><path d="M134.902 120.288 191.405 120.288 191.405 134.51 134.902 134.51Z" fill="#48C6C6" transform="matrix(1.00008 0 0 1 305.171 0)"/><path d="M183.422 123.914 189.007 123.914 189.007 131.449 183.422 131.449Z" fill="#453B73" transform="matrix(-1.00008 -1.22465e-16 1.22474e-16 -1 677.635 255.364)"/><path d="M175.042 123.914 180.627 123.914 180.627 131.449 175.042 131.449Z" fill="#453B73" transform="matrix(-1.00008 -1.22465e-16 1.22474e-16 -1 660.873 255.364)"/><path d="M166.663 123.914 172.248 123.914 172.248 131.449 166.663 131.449Z" fill="#453B73" transform="matrix(-1.00008 -1.22465e-16 1.22474e-16 -1 644.112 255.364)"/><path d="M134.902 137.176 191.405 137.176 191.405 151.399 134.902 151.399Z" fill="#48C6C6" transform="matrix(1.00008 0 0 1 305.171 0)"/><path d="M183.422 140.803 189.007 140.803 189.007 148.337 183.422 148.337Z" fill="#453B73" transform="matrix(-1.00008 -1.22465e-16 1.22474e-16 -1 677.635 289.144)"/><path d="M175.042 140.803 180.627 140.803 180.627 148.337 175.042 148.337Z" fill="#453B73" transform="matrix(-1.00008 -1.22465e-16 1.22474e-16 -1 660.873 289.144)"/><path d="M166.663 140.803 172.248 140.803 172.248 148.337 166.663 148.337Z" fill="#453B73" transform="matrix(-1.00008 -1.22465e-16 1.22474e-16 -1 644.112 289.144)"/><path d="M134.902 154.069 191.405 154.069 191.405 168.291 134.902 168.291Z" fill="#48C6C6" transform="matrix(1.00008 0 0 1 305.171 0)"/><path d="M183.422 157.696 189.007 157.696 189.007 165.23 183.422 165.23Z" fill="#453B73" transform="matrix(-1.00008 -1.22465e-16 1.22474e-16 -1 677.635 322.924)"/><path d="M175.042 157.696 180.627 157.696 180.627 165.23 175.042 165.23Z" fill="#453B73" transform="matrix(-1.00008 -1.22465e-16 1.22474e-16 -1 660.873 322.924)"/><path d="M166.663 157.696 172.248 157.696 172.248 165.23 166.663 165.23Z" fill="#453B73" transform="matrix(-1.00008 -1.22465e-16 1.22474e-16 -1 644.112 322.924)"/><path d="M114.703 137.576 123.403 137.576 123.403 154.175 114.703 154.175Z" fill="#5C5099" transform="matrix(1.00008 0 0 1 305.171 0)"/><path d="M119.113 160.059 111.414 150.918 126.691 150.918Z" fill="#5C5099" transform="matrix(1.00008 0 0 1 305.171 0)"/><path d="M101.045 143.566 109.745 143.566 109.745 160.165 101.045 160.165Z" fill="#5C5099" transform="matrix(-1.00008 -1.22465e-16 1.22474e-16 -1 515.975 303.73)"/><path d="M105.331 137.683 113.034 146.824 97.7565 146.824Z" fill="#5C5099" transform="matrix(1.00008 0 0 1 305.171 0)"/><path d="M307.999 137.568C308.062 137.096 308.106 136.615 308.106 136.126 308.106 130.238 303.331 125.463 297.444 125.463 293.025 125.463 289.238 128.151 287.618 131.978 286.3 130.808 284.569 130.087 282.669 130.087 278.553 130.087 275.22 133.424 275.22 137.536L273.831 137.536C269.875 137.536 266.635 140.772 266.635 144.732L266.635 144.732C266.635 148.688 269.87 151.928 273.831 151.928L307.47 151.928C311.426 151.928 314.666 148.693 314.666 144.732L314.666 144.732C314.661 140.954 311.711 137.843 307.999 137.568Z" fill="#C9F5FF" transform="matrix(1.00008 0 0 1 305.171 0)"/><path d="M464.066 401.737 457.867 401.052 442.674 399.503C444.988 376.972 442.941 353.627 435.946 330.584L456.634 324.296C448.918 298.903 436.52 276.132 420.633 256.818L403.896 270.467C389.099 252.194 370.809 237.375 350.454 226.437L360.6 207.43C338.118 195.428 313.268 187.738 287.48 185.131L285.272 206.607C272.238 205.268 258.932 205.392 245.573 207.083 235.84 208.316 226.068 210.39 216.353 213.34L210.065 192.651C205.757 193.955 201.521 195.402 197.373 196.981 177.049 204.676 158.626 215.458 142.592 228.649L156.236 245.39C138.533 259.724 124.07 277.329 113.243 296.923 112.891 297.555 112.549 298.191 112.206 298.828L108.637 296.923 93.2039 288.681C91.7487 291.396 90.3514 294.146 89.0297 296.923 79.3595 317.189 73.1961 339.128 70.9043 361.802L71.0867 361.828 85.2204 363.27 92.3807 364.005C91.9535 368.179 91.6731 372.384 91.5485 376.612 91.2815 385.739 91.7265 394.973 92.928 404.216 94.1696 413.802 96.2212 423.405 99.1138 432.928L83.8809 437.557 78.425 439.212C80.0404 444.534 81.865 449.737 83.8809 454.819 87.0227 462.744 90.6362 470.359 94.6769 477.652 100.409 487.995 106.995 497.678 114.32 506.636L131.061 492.992C145.934 511.242 164.242 526.137 184.606 537.071L174.459 556.077C196.937 568.08 221.711 575.792 247.495 578.395L248.016 573.615 249.702 556.923C272.233 559.237 295.664 557.172 318.702 550.168L324.99 570.856C350.383 563.144 373.078 550.768 392.392 534.886L378.743 518.144C397.016 503.348 411.915 485.035 422.849 464.68L441.86 474.827C453.862 452.349 461.547 427.495 464.155 401.706L464.066 401.737ZM356.564 416.592C346.262 442.879 324.456 464.36 295.312 473.211 244.843 488.546 191.503 460.065 176.146 409.521 174.121 402.85 172.857 396.135 172.314 389.459 168.723 345.621 195.962 303.687 239.761 290.381 252.257 286.585 264.922 285.468 277.142 286.696 292.922 288.285 307.964 293.79 320.931 302.508 338.541 314.341 352.332 332.088 358.98 353.969 365.486 375.375 364.129 397.278 356.564 416.592ZM464.066 401.737 457.867 401.052 442.674 399.503C444.988 376.972 442.941 353.627 435.946 330.584L456.634 324.296C448.918 298.903 436.52 276.132 420.633 256.818L403.896 270.467C389.099 252.194 370.809 237.375 350.454 226.437L360.6 207.43C338.118 195.428 313.268 187.738 287.48 185.131L285.272 206.607C272.238 205.268 258.932 205.392 245.573 207.083 235.84 208.316 226.068 210.39 216.353 213.34L210.065 192.651C205.757 193.955 201.521 195.402 197.373 196.981 177.049 204.676 158.626 215.458 142.592 228.649L156.236 245.39C138.533 259.724 124.07 277.329 113.243 296.923 112.891 297.555 112.549 298.191 112.206 298.828L108.637 296.923 93.2039 288.681C91.7487 291.396 90.3514 294.146 89.0297 296.923 79.3595 317.189 73.1961 339.128 70.9043 361.802L71.0867 361.828 85.2204 363.27 92.3807 364.005C91.9535 368.179 91.6731 372.384 91.5485 376.612 91.2815 385.739 91.7265 394.973 92.928 404.216 94.1696 413.802 96.2212 423.405 99.1138 432.928L83.8809 437.557 78.425 439.212C80.0404 444.534 81.865 449.737 83.8809 454.819 87.0227 462.744 90.6362 470.359 94.6769 477.652 100.409 487.995 106.995 497.678 114.32 506.636L131.061 492.992C145.934 511.242 164.242 526.137 184.606 537.071L174.459 556.077C196.937 568.08 221.711 575.792 247.495 578.395L248.016 573.615 249.702 556.923C272.233 559.237 295.664 557.172 318.702 550.168L324.99 570.856C350.383 563.144 373.078 550.768 392.392 534.886L378.743 518.144C397.016 503.348 411.915 485.035 422.849 464.68L441.86 474.827C453.862 452.349 461.547 427.495 464.155 401.706L464.066 401.737ZM356.564 416.592C346.262 442.879 324.456 464.36 295.312 473.211 244.843 488.546 191.503 460.065 176.146 409.521 174.121 402.85 172.857 396.135 172.314 389.459 168.723 345.621 195.962 303.687 239.761 290.381 252.257 286.585 264.922 285.468 277.142 286.696 292.922 288.285 307.964 293.79 320.931 302.508 338.541 314.341 352.332 332.088 358.98 353.969 365.486 375.375 364.129 397.278 356.564 416.592Z" fill="#9FD1FC" transform="matrix(1.00008 0 0 1 305.171 0)"/><path d="M434.059 406.521 434.86 398.698C435.438 393.086 435.732 387.377 435.732 381.729 435.732 365.255 433.271 348.816 428.429 332.862L426.151 325.346 446.688 319.107C440.231 300.568 431.086 283.421 419.413 267.948L402.756 281.534 397.794 275.406C383.883 258.233 366.706 244.082 346.738 233.353L339.836 229.646 349.898 210.799C332.315 202.308 313.736 196.643 294.475 193.893L292.286 215.223 284.471 214.422C278.86 213.843 273.15 213.549 267.507 213.549 260.547 213.549 253.507 213.994 246.587 214.871 246.578 214.871 246.569 214.876 246.561 214.876 237.166 216.068 227.772 218.075 218.636 220.857L211.12 223.139 204.88 202.602C203.292 203.154 201.716 203.728 200.154 204.32 199.589 204.533 199.02 204.751 198.454 204.974 182.363 211.244 167.357 219.597 153.726 229.873L167.308 246.529 161.18 251.491C145.631 264.081 132.57 279.34 122.286 296.918 121.2 298.765 120.15 300.643 119.126 302.543L115.419 309.446 96.5594 299.375C88.0863 316.868 82.4212 335.452 79.6666 354.81L86.0214 355.456 100.996 356.996 100.195 364.81C99.7946 368.713 99.5321 372.664 99.4119 376.616 99.3585 378.343 99.3318 380.065 99.3318 381.787 99.3363 388.916 99.8035 396.126 100.72 403.21 101.917 412.44 103.902 421.67 106.63 430.65L108.909 438.166 88.3755 444.401C89.2611 446.938 90.2001 449.452 91.1791 451.926 94.1518 459.425 97.6363 466.798 101.544 473.848 105.709 481.364 110.408 488.618 115.562 495.493L132.187 481.942 137.149 488.03C151.229 505.31 168.447 519.484 188.321 530.155L195.224 533.862 185.162 552.713C202.771 561.222 221.333 566.896 240.526 569.637L242.685 548.312 250.508 549.113C256.102 549.687 261.793 549.976 267.427 549.976 283.951 549.976 300.434 547.515 316.419 542.656L323.935 540.373 330.179 560.91C348.669 554.462 365.798 545.326 381.262 533.662L367.68 517.001 373.804 512.043C391.061 498.07 405.235 480.879 415.933 460.96L419.64 454.058 438.491 464.12C446.978 446.541 452.643 427.953 455.393 408.684L434.059 406.521ZM363.875 419.458C352.247 449.131 328.087 471.462 297.59 480.728 287.787 483.709 277.667 485.222 267.507 485.222 221.706 485.222 181.967 455.718 168.625 411.808 166.471 404.723 165.078 397.421 164.478 390.105 164.38 388.89 164.3 387.666 164.246 386.438 164.171 384.862 164.135 383.283 164.135 381.716 164.139 335.915 193.608 296.193 237.469 282.869 247.299 279.883 257.45 278.366 267.636 278.366 267.921 278.366 268.211 278.366 268.5 278.37 271.637 278.397 274.801 278.57 277.925 278.882 294.8 280.582 311.186 286.501 325.306 295.993 327.126 297.217 328.902 298.494 330.637 299.829 347.61 312.895 360.235 331.082 366.492 351.691 369.483 361.526 370.996 371.672 370.996 381.85 370.991 393.736 368.962 405.413 364.943 416.601 364.61 417.553 364.249 418.505 363.875 419.458Z" stroke="#FFFFFF" strokeWidth="0.589111" stroke-miterlimit="10" fill="none" transform="matrix(1.00008 0 0 1 305.171 0)"/><path d="M277.142 286.688C264.922 285.464 252.252 286.576 239.761 290.377 195.958 303.683 168.723 345.621 172.314 389.455 164.384 386.856 158.87 384.222 156.636 381.623 139.388 361.57 173.48 277.338 181.103 266.511 188.722 255.679 216.798 250.063 216.798 250.063 216.798 250.063 216.798 243.646 215.997 231.212 210.381 231.212 204.364 216.776 204.364 216.776L198.748 207.15 197.373 196.973C201.525 195.397 205.757 193.951 210.065 192.643L216.353 213.331C226.063 210.376 235.836 208.307 245.573 207.074L252.893 263.298 277.142 286.688Z" fill="#83C4FC" transform="matrix(1.00008 0 0 1 305.171 0)"/><path d="M399.695 406.895C397.483 408.907 378.076 417.851 356.564 416.592 364.134 397.283 365.486 375.375 358.985 353.965 352.336 332.084 338.541 314.332 320.931 302.499L372.82 288.169C372.82 288.169 409.721 287.769 414.536 294.987 419.347 302.21 408.519 398.871 399.695 406.895Z" fill="#83C4FC" transform="matrix(1.00008 0 0 1 305.171 0)"/><g clip-path="url(#clip3)"><path d="M294.524 263.195 346.707 291.578 373.256 225.939 386.905 229.37C386.905 229.37 378.058 305.623 363.858 319.579 349.657 333.534 277.2 302.788 277.2 302.788 259.448 291.431 275.62 255.425 294.524 263.195Z" fill="#F7A594" transform="matrix(1.00008 0 0 1 305.171 0)"/><path d="M372.3 235.551C372.3 235.551 367.841 220.914 368.904 217.136 369.968 213.358 384.604 209.704 385.147 211.476 385.69 213.247 386.776 217.59 377.262 219.263 382.953 225.565 388.876 237.629 372.3 235.551Z" fill="#F7A594" transform="matrix(1.00008 0 0 1 305.171 0)"/><path d="M371.494 236.121C371.494 236.121 371.494 223.291 374.031 218.364 377.408 211.8 385.93 208.169 385.93 208.169 385.93 208.169 399.241 220.763 399.494 222.841 399.744 224.92 386.634 236.285 386.634 236.285 386.634 236.285 376.941 243.922 371.494 236.121Z" fill="#F7A594" transform="matrix(1.00008 0 0 1 305.171 0)"/><path d="M374.738 219.588C374.738 219.588 381.187 188.179 386.099 189.559 388.365 190.195 382.317 220.202 382.317 220.202L374.738 219.588Z" fill="#F7A594" transform="matrix(1.00008 0 0 1 305.171 0)"/><path d="M371.062 231.399C371.094 231.412 371.129 231.412 371.165 231.403 371.258 231.381 371.312 231.288 371.289 231.194 370.195 226.909 368.45 219.384 369.073 217.176 369.892 214.261 379.54 211.226 383.585 211.177 384.791 211.164 384.965 211.431 384.991 211.516 385.347 212.686 385.601 214.066 384.756 215.445 383.701 217.167 381.169 218.396 377.239 219.085L376.937 219.139 377.141 219.366C379.504 221.982 382.246 226.014 382.851 229.468 382.869 229.561 382.958 229.623 383.047 229.606 383.14 229.588 383.202 229.499 383.185 229.41 382.584 225.983 379.945 222.022 377.6 219.366 381.462 218.645 383.968 217.385 385.049 215.623 386.091 213.923 385.552 212.165 385.321 211.413 385.196 211.013 384.631 210.821 383.585 210.835 379.487 210.884 369.638 213.932 368.753 217.083 368.108 219.37 369.865 226.958 370.969 231.279 370.969 231.337 371.009 231.381 371.062 231.399Z" fill="#E6836F" transform="matrix(1.00008 0 0 1 305.171 0)"/><path d="M388.876 226.971C388.925 226.989 388.97 227.007 389.014 227.02L389.13 227.056 389.206 226.958C391.542 223.932 396.522 223.082 396.571 223.077 396.664 223.064 396.726 222.975 396.713 222.881 396.7 222.788 396.611 222.726 396.517 222.739 396.308 222.775 391.457 223.598 389.014 226.651 389.01 226.651 389.005 226.646 389.001 226.646 386.033 225.485 382.41 217.875 382.375 217.795 382.335 217.71 382.232 217.675 382.148 217.715 382.063 217.755 382.028 217.857 382.068 217.942 382.215 218.271 385.775 225.761 388.876 226.971Z" fill="#E6836F" transform="matrix(1.00008 0 0 1 305.171 0)"/><path d="M284.997 259.862C284.997 259.862 295.926 261.317 322.16 278.081 319.245 289.375 310.5 318.884 310.5 318.884 310.5 318.884 270.422 306.495 264.958 293.016 259.493 279.536 265.322 254.397 284.997 259.862Z" fill="#002E73" transform="matrix(1.00008 0 0 1 305.171 0)"/><path d="M156.988 719.247 198.41 719.247C199.264 718.762 199.892 718.21 200.266 717.582 202.397 686.778 205.472 671.942 205.472 671.942L176.626 670.767 170.098 693.685C160.428 700.293 148.906 714.463 156.988 719.247Z" fill="#231F20" transform="matrix(1.00008 0 0 1 305.171 0)"/><path d="M201.547 719.803 152.44 719.803C151.194 719.803 151.612 712.972 152.858 712.972L201.672 713.248C202.954 713.248 202.829 719.803 201.547 719.803Z" fill="#231F20" transform="matrix(1.00008 0 0 1 305.171 0)"/><path d="M218.658 391.146C204.222 413.343 193.684 520.614 173.796 682.124L203.194 683.672C212.027 640.653 221.982 618.842 232.098 556.83 256.32 502.097 268.887 450.244 275.331 396.86 281.601 356.613 232.191 335.479 218.658 391.146Z" fill="#002E73" transform="matrix(1.00008 0 0 1 305.171 0)"/><path d="M253.427 398.791C255.501 477.336 269.506 544.053 269.506 544.053 272.714 609.831 277.057 607.632 283.15 684.295L309.722 683.944C311.956 651.093 329.681 497.967 315.916 399.686 309.259 355.407 249.177 340.757 253.427 398.791Z" fill="#002E73" transform="matrix(1.00008 0 0 1 305.171 0)"/><path d="M283.15 684.295C280.778 696.987 279.078 706.893 280.075 718.379L344.428 719.629C344.428 719.629 350.796 713.426 342.791 704.121 334.78 694.815 319.574 700.2 309.722 683.939L283.15 684.295Z" fill="#231F20" transform="matrix(1.00008 0 0 1 305.171 0)"/><path d="M347.348 719.803 278.975 719.803C277.729 719.803 278.059 712.972 279.3 712.972L347.383 713.248C348.665 713.248 348.629 719.803 347.348 719.803Z" fill="#231F20" transform="matrix(1.00008 0 0 1 305.171 0)"/><path d="M313.936 395.075C313.936 408.657 217.474 404.728 217.474 391.142 211.947 272.59 183.297 284.721 190.627 272.785 203.265 252.212 267.102 253.378 290.083 262.221 299.21 265.732 311.466 280.039 315.387 302.846 317.403 314.572 308.769 328.225 307.403 337.704 304.243 359.648 313.291 391.925 313.936 395.075Z" fill="#002E73" transform="matrix(1.00008 0 0 1 305.171 0)"/><path d="M253.805 271.557C237.522 273.925 227.394 262.563 225.013 257.811L226.152 224.853 244.821 223.037C250.236 223.487 255.648 224.782 260.303 226.619L264.504 248.318 265.429 253.022C267.543 257.659 270.089 269.19 253.805 271.557Z" fill="#F7A594" transform="matrix(1.00008 0 0 1 305.171 0)"/><path d="M232.431 232.316C235.36 236.824 247.62 248.363 264.504 248.323L260.868 229.548 232.431 232.316Z" fill="#E6836F" transform="matrix(1.00008 0 0 1 305.171 0)"/><path d="M273.747 188.904C275.211 195.397 278.228 209.651 277.734 216.215 276.982 226.21 267.65 237.295 259.506 238.751 250.081 239.712 237.38 236.904 230.482 230.976 226.642 226.477 219.214 215.806 215.792 206.465 208.659 186.978 222.427 169.893 239.894 165.946 257.361 161.999 269.185 168.661 273.747 188.904Z" fill="#F7A594" transform="matrix(1.00008 0 0 1 305.171 0)"/><path d="M221.644 219.339C218 212.926 222.841 210.332 228.146 215.307 227.238 210.47 221.724 196.296 226.611 191.592 232.129 186.136 256.409 188.513 269.457 174.909 269.457 174.909 259.733 153.592 227.821 166.182 191.775 185.295 221.644 219.339 221.644 219.339Z" fill="#73382A" transform="matrix(1.00008 0 0 1 305.171 0)"/><path d="M227.544 217.113C227.544 221.458 224.806 224.981 221.429 224.981 218.052 224.981 215.315 221.458 215.315 217.113 215.315 212.767 218.052 209.245 221.429 209.245 224.806 209.245 227.544 212.767 227.544 217.113Z" fill="#F7A594" transform="matrix(0.76915 -0.639091 0.639142 0.769089 217.532 191.628)"/><path d="M197.244 266.119C208.089 264.82 218.72 317.18 211.271 331.532 211.249 332.591 211.235 333.663 211.209 334.745 211.128 338.83 211.026 343.049 210.893 347.312 210.83 349.199 210.768 351.099 210.71 352.995 210.568 357.182 210.403 361.392 210.238 365.566 208.908 397.919 206.896 428.109 206.896 428.109L319.868 428.109C318.965 405.92 315.725 383.149 313.513 365.566 312.939 360.987 312.432 356.76 312.062 352.995 311.858 350.957 311.693 349.061 311.577 347.312 311.297 343.124 311.292 339.782 311.671 337.508 311.8 336.721 311.889 335.795 311.924 334.749 312.49 318.226 301.649 270.222 293.603 261.544 282.322 256.315 269.741 257.593 269.741 257.593 270.534 281.147 261.166 302.281 261.166 302.281 261.166 302.281 237.242 281.748 224.199 257.321 212.748 259.15 202.299 261.455 197.244 266.119Z" fill="#FDB477" transform="matrix(1.00008 0 0 1 305.171 0)"/><path d="M311.582 347.312C311.301 343.124 311.297 339.782 311.675 337.508 311.804 336.721 311.893 335.795 311.929 334.749L211.209 334.749C211.128 338.834 211.026 343.053 210.893 347.316L311.582 347.316Z" fill="#FFFFFF" transform="matrix(1.00008 0 0 1 305.171 0)"/><path d="M210.238 365.566 313.513 365.566C312.939 360.987 312.432 356.76 312.062 352.995L210.71 352.995C210.568 357.182 210.403 361.392 210.238 365.566Z" fill="#FFFFFF" transform="matrix(1.00008 0 0 1 305.171 0)"/><path d="M265.723 177.85C265.723 177.85 275.682 182.176 286.038 177.979 284.467 185.055 234.403 195.54 227.981 192.789 221.555 190.039 252.092 174.838 265.723 177.85Z" fill="#5C2D22" transform="matrix(1.00008 0 0 1 305.171 0)"/><path d="M210.345 201.191C208.957 191.014 207.373 164.878 230.518 158.158 251.086 152.186 265.843 164.549 272.812 172.693 275.829 173.155 283.955 170.953 285.388 172.635 285.722 173.636 285.406 175.576 277.146 178.856 277.173 178.905 277.191 178.936 277.191 178.936 247.317 185.491 221.84 193.835 211.071 208.165 211.071 208.165 209.135 209.046 208 209.046 207.008 209.046 209.477 205.05 210.345 201.191Z" fill="#FFF890" transform="matrix(1.00008 0 0 1 305.171 0)"/><path d="M251.451 179.426C251.451 179.426 242.048 157.251 219.757 163.174L219.326 162.23C219.326 162.23 224.946 158.71 231.31 156.792 238.355 155.68 254.664 158.399 264.054 175.514 259.239 177.984 251.451 179.426 251.451 179.426Z" fill="#FFDD69" transform="matrix(1.00008 0 0 1 305.171 0)"/><path d="M212.886 325.974 199.051 364.476 258.727 402.329 257.535 415.818C257.535 415.818 177.343 399.165 169.916 380.599 162.488 362.033 187.316 282.656 187.316 282.656 195.78 262.345 210.425 309.032 212.886 325.974Z" fill="#F79683" transform="matrix(1.00008 0 0 1 305.171 0)"/><path d="M258.505 403.197 289.887 403.989C289.887 403.989 280.248 419.409 258.322 416.614 229.445 412.934 240.855 401.982 258.505 403.197Z" fill="#F79683" transform="matrix(1.00008 0 0 1 305.171 0)"/><path d="M386.171 399.641 386.171 401.27C386.171 401.355 386.166 401.435 386.148 401.515 385.979 402.57 384.711 403.388 383.18 403.388L245.973 403.388C244.438 403.388 243.174 402.57 243.005 401.515 242.992 401.435 242.983 401.35 242.983 401.27L242.983 399.641 386.171 399.641Z" fill="#5D4F99" transform="matrix(1.00008 0 0 1 305.171 0)"/><path d="M386.148 401.519C385.979 402.574 384.711 403.393 383.18 403.393L245.973 403.393C244.438 403.393 243.174 402.574 243.005 401.519L386.148 401.519Z" fill="#241F3C" transform="matrix(1.00008 0 0 1 305.171 0)"/><path d="M402.089 305.823 402.881 306.602 402.449 307.207 401.43 305.779Z" fill="#241F3C" transform="matrix(1.00008 0 0 1 305.171 0)"/><path d="M384.173 399.401 272.861 399.401C270.965 399.401 269.684 397.861 270.004 395.965L284.694 308.453C285.014 306.558 286.808 305.018 288.708 305.018L400.02 305.018C401.915 305.018 403.197 306.558 402.877 308.453L388.187 395.965C387.866 397.861 386.068 399.401 384.173 399.401Z" fill="#5D4F99" transform="matrix(1.00008 0 0 1 305.171 0)"/><path d="M384.991 400.202 273.68 400.202C271.784 400.202 270.502 398.662 270.823 396.767L285.513 309.254C285.833 307.359 287.627 305.819 289.527 305.819L400.838 305.819C402.734 305.819 404.016 307.359 403.695 309.254L389.005 396.767C388.685 398.667 386.887 400.202 384.991 400.202Z" fill="#241F3C" transform="matrix(1.00008 0 0 1 305.171 0)"/><path d="M353.731 355.368C353.731 363.483 346.899 370.062 338.472 370.062 330.044 370.062 323.213 363.483 323.213 355.368 323.213 347.253 330.044 340.674 338.472 340.674 346.899 340.674 353.731 347.253 353.731 355.368Z" fill="#48C6AA" transform="matrix(0.114413 -0.993433 0.993513 0.114404 251.875 650.98)"/><path d="M211.983 331.087 173.543 312.08C173.543 312.08 184.214 274.16 196.345 266.911 202.264 270.462 208.147 278.918 211.378 293.585 214.177 306.255 214.221 319.2 211.983 331.087Z" fill="#002E73" transform="matrix(1.00008 0 0 1 305.171 0)"/><path d="M260.97 213.358C260.997 213.358 261.019 213.354 261.046 213.349 261.215 213.314 265.158 212.504 266.413 210.416 267.654 208.352 259.457 200.128 256.916 197.658 256.765 197.511 256.52 197.515 256.373 197.667 256.226 197.818 256.226 198.063 256.382 198.21 261.384 203.069 266.386 208.97 265.759 210.02 264.682 211.818 260.939 212.584 260.903 212.593 260.694 212.633 260.561 212.837 260.601 213.046 260.632 213.233 260.792 213.358 260.97 213.358Z" fill="#73382A" transform="matrix(1.00008 0 0 1 305.171 0)"/><path d="M254.558 222.396C261.117 222.396 266.635 220.149 266.724 220.109 266.92 220.029 267.013 219.802 266.933 219.606 266.853 219.41 266.626 219.317 266.431 219.397 266.293 219.455 252.359 225.124 242.725 218.164 242.551 218.04 242.311 218.08 242.186 218.249 242.061 218.422 242.102 218.663 242.271 218.787 246.076 221.542 250.512 222.396 254.558 222.396Z" fill="#73382A" transform="matrix(1.00008 0 0 1 305.171 0)"/><path d="M264.286 194.561C264.637 196.083 265.616 197.159 266.475 196.964 267.334 196.768 267.743 195.37 267.392 193.849 267.04 192.327 266.061 191.25 265.202 191.445 264.343 191.641 263.934 193.034 264.286 194.561Z" fill="#5C2D22" transform="matrix(1.00008 0 0 1 305.171 0)"/><path d="M239.507 201.329C240.041 202.958 241.216 204.035 242.133 203.737 243.049 203.439 243.361 201.872 242.827 200.243 242.293 198.615 241.118 197.538 240.201 197.836 239.285 198.138 238.973 199.701 239.507 201.329Z" fill="#5C2D22" transform="matrix(1.00008 0 0 1 305.171 0)"/></g><g clip-path="url(#clip4)"><path d="M392.626 180.108C392.626 182.236 390.921 183.962 388.817 183.962 386.713 183.962 385.007 182.236 385.007 180.108 385.007 177.979 386.713 176.254 388.817 176.254 390.921 176.254 392.626 177.979 392.626 180.108Z" fill="#C9F5FF" transform="matrix(0.257819 -0.966193 0.96627 0.257798 419.741 509.35)"/><path d="M406.147 171.38 406.147 171.38C406.704 171.01 406.868 170.267 406.503 169.706 399.966 159.694 387.221 156.61 376.843 162.528 376.265 162.858 376.069 163.596 376.398 164.179L376.398 164.179C376.732 164.771 377.488 164.998 378.085 164.664 387.31 159.511 398.569 162.235 404.425 171.042 404.803 171.607 405.582 171.754 406.147 171.38Z" fill="#C9F5FF" transform="matrix(1.00008 0 0 1 305.171 0)"/><path d="M401.857 174.21 401.866 174.206C402.436 173.827 402.583 173.062 402.2 172.497 397.074 164.976 387.403 162.635 379.415 166.974 378.81 167.303 378.592 168.051 378.93 168.652L378.935 168.661C379.264 169.244 380.003 169.466 380.595 169.15 387.461 165.51 395.712 167.508 400.158 173.89 400.54 174.437 401.301 174.579 401.857 174.21Z" fill="#C9F5FF" transform="matrix(1.00008 0 0 1 305.171 0)"/><path d="M397.701 176.956 397.714 176.947C398.293 176.564 398.444 175.781 398.035 175.22 394.283 170.08 387.568 168.452 381.885 171.3 381.262 171.611 381.04 172.381 381.382 172.986L381.391 173C381.716 173.569 382.428 173.787 383.024 173.502 387.604 171.304 392.953 172.604 396.023 176.658 396.415 177.183 397.154 177.316 397.701 176.956Z" fill="#C9F5FF" transform="matrix(1.00008 0 0 1 305.171 0)"/></g><path d="M161.411 409.169 161.411 472.704C161.411 475.436 159.195 477.652 156.463 477.652L94.668 477.652C90.6273 470.359 87.0138 462.744 83.872 454.819L83.872 437.557 99.1049 432.928C96.2122 423.405 94.1652 413.802 92.9236 404.216L156.458 404.216C159.195 404.216 161.411 406.437 161.411 409.169Z" fill="#83C4FC" transform="matrix(1.00008 0 0 1 305.171 0)"/><path d="M141.755 304.8 141.755 368.726C141.755 373.078 138.226 376.607 133.869 376.607L91.544 376.607C91.6686 372.38 91.949 368.174 92.3762 364L85.2159 363.266 71.0823 361.824 70.8998 361.797C73.1961 339.119 79.3551 317.18 89.0253 296.918L133.865 296.918C138.226 296.918 141.755 300.447 141.755 304.8Z" fill="#83C4FC" transform="matrix(1.00008 0 0 1 305.171 0)"/><path d="M119.113 367.32 33.0157 367.32C28.659 367.32 25.13 363.791 25.13 359.434L25.13 295.508C25.13 291.151 28.659 287.622 33.0157 287.622L119.113 287.622C123.469 287.622 126.998 291.151 126.998 295.508L126.998 359.434C126.998 363.791 123.465 367.32 119.113 367.32Z" fill="#C9F5FF" transform="matrix(1.00008 0 0 1 305.171 0)"/><path d="M115.526 310.402 37.5504 310.402C37.448 310.402 37.3635 310.318 37.3635 310.216 37.3635 310.113 37.448 310.029 37.5504 310.029L115.526 310.029C115.628 310.029 115.713 310.113 115.713 310.216 115.708 310.318 115.628 310.402 115.526 310.402Z" fill="#FFFFFF" transform="matrix(1.00008 0 0 1 305.171 0)"/><path d="M115.526 337.117 37.5504 337.117C37.448 337.117 37.3635 337.032 37.3635 336.93 37.3635 336.827 37.448 336.743 37.5504 336.743L115.526 336.743C115.628 336.743 115.713 336.827 115.713 336.93 115.708 337.032 115.628 337.117 115.526 337.117Z" fill="#FFFFFF" transform="matrix(1.00008 0 0 1 305.171 0)"/><path d="M115.526 324.104 37.5504 324.104C37.448 324.104 37.3635 324.02 37.3635 323.918 37.3635 323.815 37.448 323.731 37.5504 323.731L115.526 323.731C115.628 323.731 115.713 323.815 115.713 323.918 115.708 324.024 115.628 324.104 115.526 324.104Z" fill="#FFFFFF" transform="matrix(1.00008 0 0 1 305.171 0)"/><path d="M115.526 350.658 37.181 350.658 37.0208 303.015C37.0208 302.81 37.1855 302.646 37.3902 302.641 37.3902 302.641 37.3902 302.641 37.3902 302.641 37.5949 302.641 37.7595 302.806 37.7595 303.011L37.9153 349.915 115.526 349.915C115.731 349.915 115.895 350.08 115.895 350.285 115.895 350.494 115.731 350.658 115.526 350.658Z" fill="#7362BF" transform="matrix(1.00008 0 0 1 305.171 0)"/><path d="M102.589 315.12 73.917 342.675 59.1425 329.605 37.2967 350.013C37.1454 350.151 37.141 350.387 37.2789 350.538 37.3501 350.618 37.4525 350.654 37.5504 350.654 37.6394 350.654 37.7328 350.623 37.804 350.556L59.1558 330.606 73.9392 343.685 102.589 316.148 102.589 315.12Z" fill="#7362BF" transform="matrix(1.00008 0 0 1 305.171 0)"/><path d="M61.1406 330.157C61.1406 331.256 60.2506 332.146 59.1514 332.146 58.0522 332.146 57.1622 331.256 57.1622 330.157 57.1622 329.057 58.0522 328.167 59.1514 328.167 60.2506 328.167 61.1406 329.057 61.1406 330.157Z" fill="#7362BF" transform="matrix(1.00008 0 0 1 305.171 0)"/><path d="M76.1554 342.995C76.1554 344.095 75.2654 344.985 74.1662 344.985 73.067 344.985 72.177 344.095 72.177 342.995 72.177 341.896 73.067 341.006 74.1662 341.006 75.2654 341.006 76.1554 341.896 76.1554 342.995Z" fill="#7362BF" transform="matrix(1.00008 0 0 1 305.171 0)"/><path d="M104.814 315.329C104.814 316.428 103.924 317.318 102.825 317.318 101.726 317.318 100.836 316.428 100.836 315.329 100.836 314.23 101.726 313.34 102.825 313.34 103.924 313.34 104.814 314.23 104.814 315.329Z" fill="#7362BF" transform="matrix(1.00008 0 0 1 305.171 0)"/><path d="M78.6342 469.086 146.272 469.086C149.004 469.086 151.221 466.87 151.221 464.137L151.221 400.603C151.221 397.87 149.004 395.654 146.272 395.654L78.6342 395.654C75.9018 395.654 73.6856 397.87 73.6856 400.603L73.6856 464.133C73.6811 466.87 75.8973 469.086 78.6342 469.086Z" fill="#48C6C6" transform="matrix(1.00008 0 0 1 305.171 0)"/><path d="M130.002 435.63 137.336 435.63 137.336 456.817 130.002 456.817Z" fill="#FDFDFF" transform="matrix(1.00008 0 0 1 305.171 0)"/><path d="M119.78 432.434 127.114 432.434 127.114 456.817 119.78 456.817Z" fill="#FDFDFF" transform="matrix(1.00008 0 0 1 305.171 0)"/><path d="M109.558 425.96 116.892 425.96 116.892 456.821 109.558 456.821Z" fill="#FDFDFF" transform="matrix(1.00008 0 0 1 305.171 0)"/><path d="M99.3363 421.429 106.67 421.429 106.67 456.817 99.3363 456.817Z" fill="#FDFDFF" transform="matrix(1.00008 0 0 1 305.171 0)"/><path d="M89.1187 411.67 96.4526 411.67 96.4526 456.821 89.1187 456.821Z" fill="#FDFDFF" transform="matrix(1.00008 0 0 1 305.171 0)"/><path d="M141.435 457.613 82.1053 457.613C81.8338 457.613 81.6113 457.391 81.6113 457.119 81.6113 456.848 81.8338 456.625 82.1053 456.625L141.435 456.625C141.706 456.625 141.929 456.848 141.929 457.119 141.929 457.391 141.706 457.613 141.435 457.613Z" fill="#247F7D" transform="matrix(1.00008 0 0 1 305.171 0)"/><path d="M48.56 427.406 4.21429 427.406C1.88686 427.406 0 425.519 0 423.192L0 384.052C0 381.725 1.88686 379.838 4.21429 379.838L48.5645 379.838C50.8919 379.838 52.7788 381.725 52.7788 384.052L52.7788 423.192C52.7743 425.519 50.8875 427.406 48.56 427.406Z" fill="#C9F5FF" transform="matrix(1.00008 0 0 1 305.171 0)"/><path d="M14.3339 401.181 8.8825 401.181C8.45529 401.181 8.10817 400.834 8.10817 400.407L8.10817 400.407C8.10817 399.98 8.45529 399.632 8.8825 399.632L14.3339 399.632C14.7611 399.632 15.1083 399.98 15.1083 400.407L15.1083 400.407C15.1083 400.834 14.7611 401.181 14.3339 401.181Z" fill="#48C6C6" transform="matrix(1.00008 0 0 1 305.171 0)"/><path d="M14.3339 403.985 8.8825 403.985C8.45529 403.985 8.10817 403.638 8.10817 403.21L8.10817 403.21C8.10817 402.783 8.45529 402.436 8.8825 402.436L14.3339 402.436C14.7611 402.436 15.1083 402.783 15.1083 403.21L15.1083 403.21C15.1083 403.642 14.7611 403.985 14.3339 403.985Z" fill="#48C6C6" transform="matrix(1.00008 0 0 1 305.171 0)"/><path d="M14.3339 406.793 8.8825 406.793C8.45529 406.793 8.10817 406.446 8.10817 406.018L8.10817 406.018C8.10817 405.591 8.45529 405.244 8.8825 405.244L14.3339 405.244C14.7611 405.244 15.1083 405.591 15.1083 406.018L15.1083 406.018C15.1083 406.446 14.7611 406.793 14.3339 406.793Z" fill="#48C6C6" transform="matrix(1.00008 0 0 1 305.171 0)"/><path d="M14.3339 409.601 8.8825 409.601C8.45529 409.601 8.10817 409.254 8.10817 408.826L8.10817 408.826C8.10817 408.399 8.45529 408.052 8.8825 408.052L14.3339 408.052C14.7611 408.052 15.1083 408.399 15.1083 408.826L15.1083 408.826C15.1083 409.254 14.7611 409.601 14.3339 409.601Z" fill="#48C6C6" transform="matrix(1.00008 0 0 1 305.171 0)"/><path d="M30.261 393.042C30.2566 393.042 30.2477 393.042 30.2432 393.042 23.8528 393.042 18.6684 398.226 18.6684 404.617 18.6684 411.007 23.8484 416.191 30.2432 416.191 32.179 416.191 34.008 415.715 35.6101 414.874L30.261 404.617 30.261 393.042Z" fill="#51DEDE" transform="matrix(1.00008 0 0 1 305.171 0)"/><path d="M35.6101 414.874C39.2993 412.938 41.8181 409.071 41.8181 404.617L30.261 404.617 35.6101 414.874Z" fill="#FD9463" transform="matrix(1.00008 0 0 1 305.171 0)"/><path d="M30.261 393.042 30.261 404.617 41.8181 404.617C41.8181 398.231 36.647 393.051 30.261 393.042Z" fill="#FFFFFF" transform="matrix(1.00008 0 0 1 305.171 0)"/><path d="M638.187 209.785 635.228 209.34 627.979 208.307C629.514 197.556 628.975 186.332 626.06 175.162L636.091 172.546C635.223 169.217 634.186 165.973 632.994 162.822 629.776 154.322 625.411 146.503 620.128 139.53L615.563 142.957 611.851 145.747C605.109 136.713 596.632 129.268 587.082 123.639L592.306 114.725C581.764 108.548 570.002 104.396 557.697 102.652L556.233 112.896C545.482 111.361 534.258 111.899 523.084 114.814L520.467 104.783C508.154 107.996 497.011 113.506 487.456 120.75L493.677 129.028C484.639 135.765 477.194 144.247 471.569 153.793L462.655 148.568C456.439 159.124 452.322 170.872 450.582 183.177L450.667 183.195 457.413 184.156 460.826 184.641C459.291 195.393 459.834 206.656 462.74 217.79L452.709 220.407C455.922 232.721 461.423 243.828 468.628 253.392L476.905 247.17C483.687 256.195 492.173 263.68 501.719 269.305L496.499 278.219C507.041 284.4 518.763 288.566 531.068 290.301L531.406 288.023 532.527 280.057C543.279 281.592 554.542 281.049 565.712 278.13L568.329 288.161C580.642 284.948 591.75 279.447 601.304 272.207L595.083 263.925C604.117 257.188 611.602 248.697 617.227 239.151L626.141 244.371C632.317 233.833 636.469 222.071 638.214 209.762L638.187 209.785ZM555.984 240.824C531.517 247.215 506.503 232.556 500.103 208.049 493.713 183.578 508.372 158.568 532.839 152.177 555.294 146.316 578.172 158.127 586.761 178.967 587.549 180.876 588.216 182.857 588.75 184.908 589.854 189.149 590.335 193.399 590.237 197.569 589.783 217.506 576.254 235.533 555.984 240.824Z" fill="#C9F5F7" transform="matrix(1.00008 0 0 1 305.171 0)"/><path d="M590.237 197.564C590.335 193.395 589.859 189.14 588.75 184.904 588.216 182.852 587.549 180.872 586.761 178.963L615.563 142.961 620.128 139.534C625.411 146.508 629.772 154.327 632.994 162.827L590.237 197.564Z" fill="#A5EEF2" transform="matrix(1.00008 0 0 1 305.171 0)"/><g clip-path="url(#clip5)"><path d="M532.225 177.543 533.337 176.64C523.556 164.611 519.568 154.58 521.157 145.974 523.32 134.257 535.642 127.15 546.514 120.884 552.615 117.364 558.383 114.04 561.64 110.27 564.083 107.44 565.098 104.378 564.648 101.165 563.634 93.8759 555.508 88.4467 555.161 88.2153L554.373 89.4124C554.453 89.4658 562.308 94.7215 563.229 101.366 563.616 104.151 562.713 106.83 560.554 109.331 557.457 112.918 551.796 116.185 545.798 119.638 534.654 126.059 522.029 133.344 519.746 145.711 518.078 154.758 522.158 165.172 532.225 177.543Z" fill="#453B73" transform="matrix(1.00008 0 0 1 305.171 0)"/><path d="M493.281 233.575 498.114 230.482C490.171 218.062 490.175 206.79 498.119 197.889 511.327 183.097 538.148 194.788 538.419 194.908L540.76 189.67C540.448 189.532 533.061 186.261 523.694 185.073 510.868 183.444 500.548 186.555 493.842 194.067 484.141 204.938 483.94 218.965 493.281 233.575Z" fill="#453B73" transform="matrix(1.00008 0 0 1 305.171 0)"/><path d="M454.666 38.9758 464.109 38.9758 464.109 82.7312 454.666 82.7312Z" fill="#C9F5F7" transform="matrix(-0.790435 -0.612578 0.612627 -0.790372 1090.39 390.382)"/><path d="M449.621 64.0822 458.37 70.8642C458.94 73.3385 458.432 76.0397 456.75 78.198L451.828 84.5128 438.024 73.7701 442.946 67.4554C444.619 65.3015 447.098 64.1489 449.621 64.0822Z" fill="#48C6C6" transform="matrix(1.00008 0 0 1 305.171 0)"/><path d="M433.803 78.8283 454.479 78.8283 454.479 81.3383 433.803 81.3383Z" fill="#453B73" transform="matrix(-0.790435 -0.612578 0.612627 -0.790372 1051.31 415.461)"/><path d="M428.465 124.097 430.948 126.678 454.828 112.308 448.059 105.268Z" fill="#C9F5F7" transform="matrix(1.00008 0 0 1 305.171 0)"/><path d="M404.55 105.736 401.475 103.907 410.046 77.3881 418.439 82.3767Z" fill="#C9F5F7" transform="matrix(1.00008 0 0 1 305.171 0)"/><path d="M428.848 81.7226 445.295 94.4722C447.298 96.0253 450.208 95.656 451.761 93.6534L451.761 93.6534C453.315 91.6508 452.945 88.7404 450.943 87.1873L434.495 74.4377C432.492 72.8846 429.582 73.2539 428.029 75.2565L428.029 75.2565C426.476 77.2591 426.845 80.1695 428.848 81.7226Z" fill="#48C6C6" transform="matrix(1.00008 0 0 1 305.171 0)"/><path d="M448.144 86.907C450.253 86.5421 452.273 87.9216 452.696 90.0221L456.247 107.64C457.102 111.672 454.08 115.486 449.955 115.575L449.955 115.575C446.034 115.659 442.915 112.313 443.271 108.41L444.882 90.4493C445.046 88.6648 446.381 87.214 448.144 86.907L448.144 86.907Z" fill="#48C6C6" transform="matrix(1.00008 0 0 1 305.171 0)"/><path d="M450.533 106.332C448.869 105.789 447.182 107.022 447.204 108.771 447.218 109.83 447.921 110.791 448.927 111.125 450.591 111.668 452.278 110.435 452.255 108.686 452.247 107.622 451.543 106.661 450.533 106.332Z" fill="#453B73" transform="matrix(1.00008 0 0 1 305.171 0)"/><path d="M449.434 89.3724C448.157 88.9541 446.862 89.9019 446.875 91.2459 446.884 92.0603 447.427 92.799 448.201 93.0527 449.479 93.471 450.774 92.5231 450.76 91.1791 450.751 90.3692 450.208 89.626 449.434 89.3724Z" fill="#453B73" transform="matrix(1.00008 0 0 1 305.171 0)"/><path d="M436.497 76.6983C436.284 74.5667 434.415 72.9914 432.279 73.1471L414.353 74.451C410.242 74.7091 407.376 78.6475 408.395 82.6393L408.395 82.6393C409.365 86.4353 413.423 88.5446 417.09 87.1606L433.961 80.788C435.634 80.1561 436.675 78.4784 436.497 76.6983L436.497 76.6983Z" fill="#48C6C6" transform="matrix(1.00008 0 0 1 305.171 0)"/><path d="M433.382 75.6971C432.305 74.8916 430.775 75.3722 430.356 76.6494 430.103 77.4237 430.378 78.2959 431.028 78.7855 432.105 79.5909 433.636 79.1103 434.054 77.8331 434.308 77.0588 434.032 76.1866 433.382 75.6971Z" fill="#453B73" transform="matrix(1.00008 0 0 1 305.171 0)"/><path d="M416.605 79.0302C415.208 77.98 413.21 78.6075 412.667 80.2718 412.338 81.2775 412.694 82.4168 413.544 83.0532 414.941 84.1034 416.939 83.4759 417.482 81.8116 417.811 80.8058 417.451 79.6666 416.605 79.0302Z" fill="#453B73" transform="matrix(1.00008 0 0 1 305.171 0)"/><path d="M468.942 36.7923 503.736 36.7923 503.736 47.9885 468.942 47.9885Z" fill="#C9F5F7" transform="matrix(-0.99122 0.132805 -0.132816 -0.991141 1279.29 19.8184)"/><path d="M501.029 52.7921 523.373 49.7972C530.08 48.8983 534.792 42.7303 533.893 36.024L533.893 36.024C532.995 29.3176 526.827 24.6049 520.12 25.5038L497.776 28.4988 501.029 52.7921Z" fill="#48C6C6" transform="matrix(1.00008 0 0 1 305.171 0)"/><path d="M472.09 56.6682 487.834 54.5588 484.581 30.2655 468.837 32.3748C462.13 33.2738 457.418 39.4417 458.317 46.1481L458.317 46.1481C459.215 52.8589 465.383 57.5671 472.09 56.6682Z" fill="#48C6C6" transform="matrix(1.00008 0 0 1 305.171 0)"/><path d="M463.826 42.7882C464.756 39.3482 468.307 37.3101 471.743 38.2357 475.183 39.1658 477.221 42.717 476.295 46.1525 475.365 49.5925 471.814 51.6306 468.378 50.705 464.938 49.7749 462.896 46.2237 463.826 42.7882ZM466.447 43.4958C465.908 45.485 467.092 47.541 469.081 48.0794 471.071 48.6179 473.127 47.4342 473.665 45.4449 474.204 43.4557 473.02 41.3997 471.031 40.8613 469.041 40.3228 466.985 41.5065 466.447 43.4958Z" fill="#C9F5F7" transform="matrix(1.00008 0 0 1 305.171 0)"/><path d="M615.683 117.631C615.963 117.328 622.576 110.083 626.688 99.8124 632.304 85.7856 630.511 72.9647 621.495 62.7338 614.913 55.262 606.431 51.1055 596.97 50.7095 586.058 50.2556 575.809 55.0039 572.32 58.3548L576.294 62.4935C578.622 60.2595 587.273 56.0496 596.73 56.4413 604.7 56.775 611.584 60.166 617.187 66.5253 624.779 75.1408 626.185 85.6253 621.357 97.6764 617.632 106.982 611.522 113.675 611.46 113.741L615.683 117.631Z" fill="#453B73" transform="matrix(1.00008 0 0 1 305.171 0)"/><path d="M566.319 58.2344 582.291 58.2344 582.291 62.6178 566.319 62.6178Z" fill="#453B73" transform="matrix(-0.683657 -0.729803 0.729861 -0.683603 1228.05 520.891)"/><path d="M551.555 82.1714 587.358 82.1714 587.358 89.6435 551.555 89.6435Z" fill="#453B73" transform="matrix(-0.763126 0.64627 -0.646322 -0.763065 1364.74 -216.547)"/><path d="M607.023 130.207 607.023 130.207C611.13 126.718 611.624 120.559 608.135 116.452L569.472 70.9443 554.604 83.5872 593.267 129.094C596.756 133.197 602.915 133.696 607.023 130.207Z" fill="#453B73" transform="matrix(1.00008 0 0 1 305.171 0)"/><path d="M554.235 99.7323 513.93 45.4716C508.75 38.4983 509.889 28.699 516.533 23.1007L516.533 23.1007C523.173 17.5024 533.026 18.0365 539.02 24.3245L585.564 73.1961 554.235 99.7323Z" fill="#48C6C6" transform="matrix(1.00008 0 0 1 305.171 0)"/><path d="M520.378 27.6621C524.824 23.9151 531.49 24.4847 535.237 28.9304 538.984 33.3761 538.415 40.0425 533.969 43.7895 529.523 47.5365 522.857 46.9669 519.11 42.5212 515.363 38.0755 515.933 31.4092 520.378 27.6621ZM523.24 31.0576C520.663 33.2293 520.338 37.0876 522.505 39.6597 524.677 42.2364 528.535 42.5612 531.108 40.394 533.684 38.2223 534.009 34.3641 531.842 31.7919 529.675 29.2152 525.812 28.8859 523.24 31.0576Z" fill="#453B73" transform="matrix(1.00008 0 0 1 305.171 0)"/><path d="M527.178 213.015 527.178 213.015C540.395 224.474 560.399 223.05 571.858 209.838L623.875 149.85C635.335 136.633 633.911 116.63 620.698 105.17L620.698 105.17C607.481 93.7113 587.478 95.1353 576.019 108.348L524.001 168.336C512.542 181.548 513.966 201.552 527.178 213.015Z" fill="#48C6C6" transform="matrix(1.00008 0 0 1 305.171 0)"/><path d="M588.568 116.768C582.534 123.723 583.281 134.257 590.241 140.291 597.201 146.325 607.73 145.573 613.765 138.618 619.799 131.658 619.052 121.129 612.091 115.094 605.136 109.06 594.602 109.807 588.568 116.768ZM593.632 121.16C597.241 116.999 603.538 116.549 607.699 120.159 611.86 123.768 612.31 130.065 608.7 134.225 605.091 138.386 598.794 138.836 594.634 135.227 590.473 131.618 590.028 125.321 593.632 121.16Z" fill="#453B73" transform="matrix(1.00008 0 0 1 305.171 0)"/><path d="M515.764 218.818 573.322 218.818 573.322 194.129C573.322 178.233 560.439 165.35 544.543 165.35L544.543 165.35C528.647 165.35 515.764 178.233 515.764 194.129L515.764 218.818Z" fill="#453B73" transform="matrix(1.00008 0 0 1 305.171 0)"/><path d="M496.388 215.912 589.747 215.912 589.747 237.531 496.388 237.531Z" fill="#453B73" transform="matrix(-1.00008 -1.22465e-16 1.22474e-16 -1 1391.4 453.448)"/><path d="M480.857 246.071 611.629 246.071C611.7 246.672 611.735 247.281 611.735 247.9L611.735 310.669 480.75 310.669 480.75 247.9C480.75 247.281 480.79 246.672 480.857 246.071Z" fill="#48C6C6" transform="matrix(1.00008 0 0 1 305.171 0)"/><path d="M509.427 226.321 583.157 226.321C598.932 230.607 610.476 237.99 611.678 248.461L480.906 248.461C482.107 237.985 493.651 230.607 509.427 226.321Z" fill="#453B73" transform="matrix(1.00008 0 0 1 305.171 0)"/><path d="M476.86 291.578 614.748 291.578 614.748 310.678 476.86 310.678Z" fill="#453B73" transform="matrix(-1.00008 -1.22465e-16 1.22474e-16 -1 1396.86 602.253)"/><path d="M558.756 264.228 558.756 264.228C560.701 264.228 562.281 262.652 562.281 260.703L562.281 260.703C562.281 258.758 560.706 257.179 558.756 257.179L558.756 257.179C556.812 257.179 555.232 258.754 555.232 260.703L555.232 260.703C555.236 262.648 556.812 264.228 558.756 264.228Z" fill="#453B73" transform="matrix(1.00008 0 0 1 305.171 0)"/><path d="M546.817 264.228 546.817 264.228C548.761 264.228 550.341 262.652 550.341 260.703L550.341 260.703C550.341 258.758 548.766 257.179 546.817 257.179L546.817 257.179C544.872 257.179 543.292 258.754 543.292 260.703L543.292 260.703C543.292 262.648 544.872 264.228 546.817 264.228Z" fill="#453B73" transform="matrix(1.00008 0 0 1 305.171 0)"/><path d="M534.877 264.228 534.877 264.228C536.822 264.228 538.401 262.652 538.401 260.703L538.401 260.703C538.401 258.758 536.826 257.179 534.877 257.179L534.877 257.179C532.932 257.179 531.352 258.754 531.352 260.703L531.352 260.703C531.352 262.648 532.928 264.228 534.877 264.228Z" fill="#453B73" transform="matrix(1.00008 0 0 1 305.171 0)"/><path d="M522.933 264.228 522.933 264.228C524.877 264.228 526.457 262.652 526.457 260.703L526.457 260.703C526.457 258.758 524.882 257.179 522.933 257.179L522.933 257.179C520.988 257.179 519.408 258.754 519.408 260.703L519.408 260.703C519.408 262.648 520.988 264.228 522.933 264.228Z" fill="#453B73" transform="matrix(1.00008 0 0 1 305.171 0)"/><path d="M575.947 269.132 597.072 269.132 597.072 288.53 575.947 288.53 575.947 269.132ZM596.743 269.457 576.272 269.457 576.272 288.201 596.743 288.201 596.743 269.457Z" fill="#453B73" transform="matrix(1.00008 0 0 1 305.171 0)"/><path d="M530.605 185.963C529.421 187.765 528.647 189.723 528.264 191.717L529.986 192.051C529.621 193.929 529.644 195.847 530.022 197.689L528.309 198.045C528.731 200.074 529.537 202.023 530.716 203.768L531.041 203.55 532.171 202.784C533.199 204.311 534.548 205.668 536.185 206.741L535.22 208.209C537.022 209.393 538.98 210.167 540.974 210.546L541.307 208.823C543.181 209.193 545.103 209.17 546.941 208.792L547.297 210.505C549.327 210.083 551.28 209.268 553.025 208.089L553.02 208.085 552.74 207.662 552.046 206.634C553.572 205.606 554.925 204.262 555.997 202.624L557.466 203.59C558.65 201.788 559.424 199.825 559.807 197.827L558.084 197.493C558.454 195.62 558.427 193.706 558.049 191.864L559.762 191.508C559.339 189.479 558.525 187.525 557.346 185.78L555.891 186.759C554.863 185.233 553.519 183.88 551.881 182.808L552.847 181.339C551.044 180.155 549.082 179.381 547.084 178.998L546.75 180.721C544.876 180.351 542.963 180.378 541.12 180.756L540.764 179.043C538.731 179.461 536.782 180.28 535.037 181.459L535.046 181.473 535.691 182.429 536.016 182.915C534.49 183.943 533.132 185.291 532.064 186.924L530.605 185.963ZM537.547 190.52C539.901 186.933 544.712 185.936 548.299 188.286 551.89 190.644 552.891 195.455 550.537 199.042 548.178 202.633 543.368 203.634 539.777 201.276 536.19 198.926 535.188 194.111 537.547 190.52Z" fill="#48C6C6" transform="matrix(1.00008 0 0 1 305.171 0)"/><path d="M541.254 190.684 541.254 199.104 549.042 194.636Z" fill="#48C6C6" transform="matrix(1.00008 0 0 1 305.171 0)"/><path d="M532.407 212.713C532.692 212.303 532.972 211.894 533.244 211.48 528.108 207.987 524.735 202.095 524.731 195.446L526.764 195.468 523.965 191.25 521.411 195.415 523.24 195.433C523.24 202.598 526.876 208.948 532.407 212.713Z" fill="#48C6C6" transform="matrix(1.00008 0 0 1 305.171 0)"/><path d="M564.39 194.836C564.39 189.336 562.281 184.152 558.427 180.218 557.372 179.141 556.22 178.197 554.992 177.387 554.747 177.824 554.507 178.26 554.271 178.696 555.374 179.435 556.411 180.289 557.364 181.264 560.941 184.913 562.9 189.723 562.9 194.823L560.866 194.801 563.665 199.02 566.219 194.854 564.39 194.836Z" fill="#48C6C6" transform="matrix(1.00008 0 0 1 305.171 0)"/></g></g></g></g></svg>