<svg width="1039" height="595" xmlns="http://www.w3.org/2000/svg" xmlns:xlink="http://www.w3.org/1999/xlink" overflow="hidden"><defs><clipPath id="clip0"><rect x="148" y="22" width="1039" height="595"/></clipPath><clipPath id="clip1"><rect x="148" y="23" width="1038" height="594"/></clipPath><clipPath id="clip2"><rect x="148" y="23" width="1038" height="594"/></clipPath><clipPath id="clip3"><rect x="870" y="328" width="319" height="289"/></clipPath></defs><g clip-path="url(#clip0)" transform="translate(-148 -22)"><g clip-path="url(#clip1)"><g clip-path="url(#clip2)"><path d="M0 0 1040.21 0 1040.21 594.407 0 594.407Z" fill="#BFD3F2" transform="matrix(1 0 0 1.00082 148.161 23)"/><path d="M0 0 1040.21 0 1040.21 594.407 0 594.407Z" fill="#1B57B3" transform="matrix(1 0 0 1.00082 148.161 23)"/><g clip-path="url(#clip3)"><path d="M1173.5 556.775 1167.5 555.875 1152.81 553.785C1155.92 532 1154.83 509.252 1148.92 486.608L1169.25 481.3C1162.74 456.35 1151.58 433.766 1136.9 414.4L1120.12 427.007C1106.46 408.694 1089.27 393.602 1069.93 382.204L1080.51 364.143C1059.14 351.622 1035.32 343.199 1010.37 339.674L1007.4 360.44C985.613 357.325 962.871 358.41 940.227 364.321L934.919 343.992C909.969 350.51 887.384 361.67 868.019 376.349L880.626 393.129C862.312 406.794 847.22 423.979 835.823 443.321L817.762 432.737C805.16 454.124 796.824 477.933 793.293 502.877L793.465 502.91 807.137 504.854 814.058 505.846C810.944 527.631 812.049 550.46 817.94 573.023L797.611 578.325C799.151 584.216 800.943 589.967 802.985 595.581 809.577 613.728 818.713 630.363 829.867 645.172L846.647 632.565C858.018 647.711 871.769 660.71 887.147 671.208 890.339 673.389 893.605 675.466 896.937 677.428L886.353 695.489C907.722 708.01 931.469 716.448 956.413 719.97L957.094 715.348 959.382 699.21C981.167 702.325 1004 701.219 1026.63 695.311L1031.94 715.639C1056.89 709.122 1079.4 697.98 1098.77 683.304L1086.16 666.524C1104.47 652.858 1119.64 635.656 1131.04 616.311L1149.1 626.894C1161.62 605.526 1170.04 581.699 1173.57 556.754L1173.5 556.775ZM1006.89 619.681C1005.81 619.967 1004.73 620.222 1003.65 620.463 981.984 625.316 960.268 622.13 941.737 612.786 918.748 601.204 900.661 580.159 893.641 553.259 880.694 503.662 910.4 452.971 959.991 440.022 1009.66 427.058 1060.36 456.76 1073.3 506.352 1086.27 556.023 1056.56 606.717 1006.89 619.681Z" fill="#1D60C4" transform="matrix(1 0 0 1.00082 148.161 23)"/></g><path d="M634.86 149.217 632.773 148.905 627.664 148.18C628.746 140.604 628.369 132.692 626.312 124.82L633.382 122.974C631.118 114.299 627.236 106.443 622.133 99.7118L616.299 104.096C611.547 97.7265 605.573 92.4779 598.844 88.5161L602.524 82.2362C595.094 77.8822 586.808 74.9518 578.135 73.7273L577.104 80.9493C569.525 79.8675 561.617 80.245 553.744 82.2986L551.898 75.2282C543.223 77.4958 535.368 81.3743 528.636 86.4803L533.02 92.3144C526.651 97.0667 521.402 103.04 517.44 109.769L511.16 106.09C506.78 113.526 503.879 121.806 502.651 130.478L502.711 130.49 507.466 131.165 509.874 131.51C508.792 139.085 509.175 147.024 511.223 154.87L504.152 156.712C504.687 158.76 505.311 160.76 506.022 162.713 508.313 169.023 511.49 174.809 515.369 179.957L521.203 175.573C525.156 180.839 529.938 185.36 535.287 189.01 536.399 189.767 537.534 190.49 538.693 191.173L535.014 197.453C542.444 201.807 550.703 204.741 559.376 205.965L559.614 204.357 560.41 198.746C567.986 199.828 575.924 199.444 583.794 197.391L585.64 204.461C594.315 202.194 602.143 198.321 608.878 193.218L604.494 187.384C610.863 182.632 616.136 176.649 620.103 169.923L626.383 173.603C630.734 166.172 633.665 157.886 634.889 149.214L634.86 149.217ZM576.926 171.091C576.551 171.189 576.174 171.278 575.799 171.362 568.265 173.05 560.713 171.941 554.27 168.693 546.275 164.666 539.986 157.348 537.546 147.993 533.044 130.746 543.374 113.119 560.618 108.616 577.892 104.107 595.519 114.438 600.021 131.682 604.527 148.955 594.199 166.583 576.926 171.091Z" fill="#1D60C4" transform="matrix(1 0 0 1.00082 148.161 23)"/><path d="M546.661 503.279 545.823 503.154 543.77 502.862C544.203 499.819 544.052 496.642 543.226 493.477L546.067 492.734C545.158 489.248 543.597 486.091 541.547 483.387L539.202 485.149C537.294 482.59 534.892 480.483 532.191 478.89L533.671 476.367C530.687 474.616 527.358 473.439 523.872 472.949L523.456 475.85C520.412 475.416 517.235 475.567 514.07 476.391L513.327 473.549C509.841 474.459 506.685 476.019 503.98 478.07L505.742 480.415C503.184 482.323 501.076 484.724 499.483 487.426L496.96 485.946C495.201 488.933 494.036 492.261 493.542 495.744L493.566 495.75 495.477 496.021 496.443 496.161C496.009 499.204 496.164 502.393 496.984 505.546L494.143 506.286C494.357 507.11 494.609 507.912 494.894 508.697 495.816 511.232 497.091 513.556 498.651 515.624L500.996 513.862C502.586 515.978 504.506 517.794 506.655 519.262 507.101 519.568 507.558 519.857 508.022 520.13L506.542 522.653C509.526 524.404 512.846 525.581 516.329 526.074L516.424 525.429 516.745 523.173C519.788 523.607 522.977 523.453 526.139 522.63L526.883 525.471C530.369 524.561 533.513 523.004 536.218 520.953L534.455 518.608C537.014 516.7 539.133 514.296 540.726 511.594L543.25 513.074C544.997 510.091 546.174 506.759 546.667 503.276L546.661 503.279ZM523.384 512.067C523.233 512.106 523.081 512.141 522.933 512.177 519.907 512.854 516.873 512.409 514.284 511.104 511.071 509.487 508.545 506.545 507.564 502.788 505.754 495.86 509.906 488.778 516.834 486.968 523.774 485.158 530.856 489.307 532.666 496.235 534.473 503.175 530.324 510.257 523.384 512.067Z" fill="#1D60C4" transform="matrix(1 0 0 1.00082 148.161 23)"/></g></g></g></svg>