<svg width="4352" height="2000" viewBox="0 0 4352 2000" xmlns="http://www.w3.org/2000/svg" xmlns:xlink="http://www.w3.org/1999/xlink" xml:space="preserve" overflow="visible"><defs></defs><g><g><rect x="0" y="0" width="4352" height="2000" fill="#EFF3FD"/><rect x="0" y="1874.33" width="4352" height="125.67" fill="#CFEBFF"/><g><rect x="1410.5" y="775.46" width="1631.94" height="1099.81" fill="#2788CF"/><path d="M4268.99 1875.27 3042.45 1875.27 3042.45 592.96C3042.45 483.58 3128.1 394.91 3233.74 394.91L4268.99 394.91 4268.99 1875.27Z" fill="#8FCFFF"/><rect x="4268.99" y="394.91" width="83.01" height="1480.36" fill="#3588C4"/></g><path d="M2072.35 1876.68 0 1876.68 0 402 1688.95 402C1900.7 402 2072.35 573.65 2072.35 785.4L2072.35 1876.68Z" fill="#8FCFFF"/><rect x="0.67" y="318.2" width="90.55" height="1558.49" fill="#70C2FF"/><path d="M0.67 408.79 0.67 318.19 2252.04 318.19 2252.04 318.22C2252.04 368.24 2211.49 408.79 2161.47 408.79L0.67 408.79Z" fill="#2788CF"/><g><path d="M3512.98 1878.1 2370.21 1878.1 2370.21 681.77 3295.07 681.77C3415.42 681.77 3512.98 779.33 3512.98 899.68L3512.98 1878.1Z" fill="#FCFCFC"/><g><g><path d="M2531.62 1510.7 2531.62 1638.04C2531.62 1642.34 2528.14 1645.83 2523.84 1645.83L2496.35 1645.83C2492.05 1645.83 2488.57 1642.34 2488.57 1638.04L2488.57 1510.7C2488.57 1506.4 2492.05 1502.91 2496.35 1502.91L2523.84 1502.91C2528.14 1502.91 2531.62 1506.4 2531.62 1510.7Z" fill="#4DA8F2"/></g><g><path d="M2634.84 1510.7 2634.84 1638.04C2634.84 1642.34 2631.36 1645.83 2627.06 1645.83L2599.57 1645.83C2595.27 1645.83 2591.79 1642.34 2591.79 1638.04L2591.79 1510.7C2591.79 1506.4 2595.27 1502.91 2599.57 1502.91L2627.06 1502.91C2631.36 1502.91 2634.84 1506.4 2634.84 1510.7Z" fill="#E8E8E8"/></g><g><path d="M2738.06 1510.7 2738.06 1638.04C2738.06 1642.34 2734.58 1645.83 2730.28 1645.83L2702.79 1645.83C2698.49 1645.83 2695.01 1642.34 2695.01 1638.04L2695.01 1510.7C2695.01 1506.4 2698.49 1502.91 2702.79 1502.91L2730.28 1502.91C2734.58 1502.91 2738.06 1506.4 2738.06 1510.7Z" fill="#E8E8E8"/></g><g><path d="M2841.28 1510.7 2841.28 1638.04C2841.28 1642.34 2837.8 1645.83 2833.5 1645.83L2806.01 1645.83C2801.71 1645.83 2798.23 1642.34 2798.23 1638.04L2798.23 1510.7C2798.23 1506.4 2801.71 1502.91 2806.01 1502.91L2833.5 1502.91C2837.8 1502.91 2841.28 1506.4 2841.28 1510.7Z" fill="#E8E8E8"/></g><g><path d="M2944.5 1510.7 2944.5 1638.04C2944.5 1642.34 2941.02 1645.83 2936.72 1645.83L2909.23 1645.83C2904.93 1645.83 2901.45 1642.34 2901.45 1638.04L2901.45 1510.7C2901.45 1506.4 2904.93 1502.91 2909.23 1502.91L2936.72 1502.91C2941.02 1502.91 2944.5 1506.4 2944.5 1510.7Z" fill="#E8E8E8"/></g><g><path d="M3047.73 1510.7 3047.73 1638.04C3047.73 1642.34 3044.25 1645.83 3039.95 1645.83L3012.46 1645.83C3008.16 1645.83 3004.68 1642.34 3004.68 1638.04L3004.68 1510.7C3004.68 1506.4 3008.16 1502.91 3012.46 1502.91L3039.95 1502.91C3044.24 1502.91 3047.73 1506.4 3047.73 1510.7Z" fill="#E8E8E8"/></g><g><path d="M2531.62 1411.02 2531.62 1436.11C2531.62 1440.41 2528.14 1443.9 2523.84 1443.9L2496.35 1443.9C2492.05 1443.9 2488.57 1440.41 2488.57 1436.11L2488.57 1411.02C2488.57 1406.72 2492.05 1403.23 2496.35 1403.23L2523.84 1403.23C2528.14 1403.24 2531.62 1406.72 2531.62 1411.02Z" fill="#4DA8F2"/></g><g><path d="M2634.84 1411.02 2634.84 1436.11C2634.84 1440.41 2631.36 1443.9 2627.06 1443.9L2599.57 1443.9C2595.27 1443.9 2591.79 1440.41 2591.79 1436.11L2591.79 1411.02C2591.79 1406.72 2595.27 1403.23 2599.57 1403.23L2627.06 1403.23C2631.36 1403.24 2634.84 1406.72 2634.84 1411.02Z" fill="#E8E8E8"/></g><g><path d="M2738.06 1411.02 2738.06 1436.11C2738.06 1440.41 2734.58 1443.9 2730.28 1443.9L2702.79 1443.9C2698.49 1443.9 2695.01 1440.41 2695.01 1436.11L2695.01 1411.02C2695.01 1406.72 2698.49 1403.23 2702.79 1403.23L2730.28 1403.23C2734.58 1403.24 2738.06 1406.72 2738.06 1411.02Z" fill="#E8E8E8"/></g><g><path d="M2841.28 1411.02 2841.28 1436.11C2841.28 1440.41 2837.8 1443.9 2833.5 1443.9L2806.01 1443.9C2801.71 1443.9 2798.23 1440.41 2798.23 1436.11L2798.23 1411.02C2798.23 1406.72 2801.71 1403.23 2806.01 1403.23L2833.5 1403.23C2837.8 1403.24 2841.28 1406.72 2841.28 1411.02Z" fill="#E8E8E8"/></g><g><path d="M2944.5 1411.02 2944.5 1436.11C2944.5 1440.41 2941.02 1443.9 2936.72 1443.9L2909.23 1443.9C2904.93 1443.9 2901.45 1440.41 2901.45 1436.11L2901.45 1411.02C2901.45 1406.72 2904.93 1403.23 2909.23 1403.23L2936.72 1403.23C2941.02 1403.24 2944.5 1406.72 2944.5 1411.02Z" fill="#E8E8E8"/></g><g><path d="M3047.73 1411.02 3047.73 1436.11C3047.73 1440.41 3044.25 1443.9 3039.95 1443.9L3012.46 1443.9C3008.16 1443.9 3004.68 1440.41 3004.68 1436.11L3004.68 1411.02C3004.68 1406.72 3008.16 1403.23 3012.46 1403.23L3039.95 1403.23C3044.24 1403.24 3047.73 1406.72 3047.73 1411.02Z" fill="#E8E8E8"/></g></g><g><rect x="3189.43" y="892.99" width="191.54" height="23.52" fill="#1487E3"/><g><g><g><path d="M2982.55 1104.32C3019.19 1001.8 2986.12 891.28 2907.86 824.68 2889.21 808.79 2867.99 795.42 2844.54 785.23 2839.37 782.98 2834.07 780.89 2828.68 778.97 2774.53 759.59 2718.15 759.69 2667.2 775.65 2593.68 798.68 2531.45 854.74 2503.5 932.91 2494.27 958.72 2489.47 985.02 2488.69 1011.01 2485.47 1118.33 2550.87 1220.16 2657.36 1258.27 2789.65 1305.59 2935.23 1236.68 2982.55 1104.32ZM2678.79 1198.29C2598.95 1169.72 2549.91 1093.36 2552.33 1012.91 2552.92 993.43 2556.52 973.71 2563.44 954.36 2584.38 895.75 2631.04 853.73 2686.18 836.46 2724.38 824.5 2766.64 824.41 2807.24 838.94 2811.28 840.39 2815.25 841.96 2819.13 843.65 2836.72 851.28 2852.63 861.32 2866.61 873.22 2925.27 923.16 2950.07 1006.01 2922.6 1082.88 2887.12 1182.1 2777.97 1233.78 2678.79 1198.29Z" fill="#E8E8E8"/></g><g><path d="M2686.18 836.46 2667.2 775.65C2593.68 798.68 2531.45 854.74 2503.5 932.91 2494.27 958.72 2489.47 985.02 2488.69 1011.01L2552.33 1012.91C2552.92 993.43 2556.52 973.71 2563.44 954.36 2584.38 895.74 2631.04 853.72 2686.18 836.46Z" fill="#1E6AA1"/></g><g><path d="M2819.13 843.64 2844.54 785.23C2839.37 782.98 2834.07 780.89 2828.68 778.97 2774.53 759.59 2718.15 759.69 2667.2 775.65L2686.18 836.46C2724.38 824.5 2766.64 824.41 2807.24 838.94 2811.28 840.38 2815.25 841.96 2819.13 843.64Z" fill="#8FCFFF"/></g><g><path d="M2907.86 824.69C2889.21 808.8 2867.99 795.43 2844.54 785.24L2819.13 843.65C2836.72 851.28 2852.63 861.32 2866.61 873.22L2907.86 824.69Z" fill="#8FCFFF"/></g></g><g><path d="M3166.12 906.11 3022.52 906.11 3022.52 900.6 3163.84 900.6 3239.44 824.96 3332.03 824.96 3332.03 830.47 3241.72 830.47Z" fill="#4AAFFF"/></g><g><path d="M3302.2 1157.07 3117.42 1157.07 3057.54 1097.16 3061.44 1093.26 3119.7 1151.55 3302.2 1151.55Z" fill="#4AAFFF"/></g><rect x="3194.68" y="1101.24" width="154.19" height="23.52" fill="#1487E3"/></g></g><rect x="2488.69" y="1728.48" width="663.34" height="16.36" fill="#FFFFFF"/><rect x="2488.69" y="1768.26" width="328.09" height="16.36" fill="#FFFFFF"/><rect x="2488.69" y="1808.05" width="432.27" height="16.36" fill="#FFFFFF"/></g><rect x="559.15" y="1652.02" width="3060" height="226.09" fill="#A8DFFF"/><rect x="492.84" y="1594.04" width="3192.61" height="57.97" fill="#82D1FF"/><g><path d="M3739.83 1594.04 438.45 1594.04C408.04 1594.04 383.39 1569.39 383.39 1538.98L383.39 1538.95C383.39 1508.54 408.04 1483.89 438.45 1483.89L3739.83 1483.89C3770.24 1483.89 3794.89 1508.54 3794.89 1538.95L3794.89 1538.98C3794.89 1569.39 3770.24 1594.04 3739.83 1594.04Z" fill="#3B6075"/><path d="M3739.85 1601.53 438.44 1601.53C403.96 1601.53 375.91 1573.46 375.91 1538.97 375.91 1504.47 403.96 1476.41 438.44 1476.41L3739.85 1476.41C3774.33 1476.41 3802.38 1504.47 3802.38 1538.97 3802.38 1573.47 3774.33 1601.53 3739.85 1601.53ZM438.44 1491.39C412.22 1491.39 390.88 1512.74 390.88 1538.97 390.88 1565.21 412.22 1586.55 438.44 1586.55L3739.85 1586.55C3766.07 1586.55 3787.41 1565.2 3787.41 1538.97 3787.41 1512.73 3766.07 1491.39 3739.85 1491.39L438.44 1491.39Z" fill="#FCFCFC"/></g><ellipse cx="2089.14" cy="1538.97" rx="39.01" ry="39.03" fill="#BDE7FF"/><ellipse cx="3724.46" cy="1538.97" rx="39.01" ry="39.03" fill="#BDE7FF"/><ellipse cx="452.92" cy="1538.97" rx="39.01" ry="39.03" fill="#BDE7FF"/><g><path d="M1682.66 1414.69 1339.09 1414.69C1309.93 1414.69 1286.29 1391.05 1286.29 1361.89L1286.29 1018.08C1286.29 988.92 1309.93 965.28 1339.09 965.28L1682.66 965.28C1711.82 965.28 1735.46 988.92 1735.46 1018.08L1735.46 1361.89C1735.46 1391.05 1711.82 1414.69 1682.66 1414.69Z" fill="#59A6DE" opacity="0.74"/><g><g><rect x="1333.79" y="1087.38" width="1.8" height="230.89" fill="#2273B5"/></g><g><rect x="1421.28" y="1087.38" width="1.8" height="230.89" fill="#2273B5"/></g><g><rect x="1508.77" y="1087.38" width="1.8" height="230.89" fill="#2273B5"/></g><g><rect x="1596.25" y="1087.38" width="1.8" height="230.89" fill="#2273B5"/></g><g><rect x="1683.74" y="1087.38" width="1.8" height="230.89" fill="#2273B5"/></g></g><path d="M1334.69 1224.65C1334.69 1224.65 1367.12 1244.31 1401.57 1208.73 1436.02 1173.16 1473.18 1145.07 1508.31 1175.03 1543.44 1204.99 1565.06 1212.48 1600.19 1178.78 1635.32 1145.08 1632.62 1103.89 1685.54 1103.89L1685.54 1318.27 1334.7 1318.27 1334.7 1224.65Z" fill="#2273B5"/><rect x="1334.69" y="1068.14" width="34.69" height="8.4" fill="#2273B5"/><rect x="1422.18" y="1068.14" width="21.74" height="8.4" fill="#2273B5"/><rect x="1509.67" y="1068.14" width="26.79" height="8.4" fill="#2273B5"/><rect x="1597.15" y="1068.14" width="41.29" height="8.4" fill="#2273B5"/><rect x="1684.64" y="1068.14" width="14.4" height="8.4" fill="#2273B5"/><rect x="1335.59" y="1350.36" width="173.17" height="20.23" fill="#2273B5"/></g><g><linearGradient x1="3586.1" y1="402.914" x2="3768.02" y2="402.914" gradientUnits="userSpaceOnUse" id="SVGID_7_"><stop offset="0" stop-color="#D5E4FF"/><stop offset="1" stop-color="#EDFFFE"/></linearGradient><linearGradient x1="3612.94" y1="444.144" x2="3768.02" y2="444.144" gradientUnits="userSpaceOnUse" id="SVGID_8_"><stop offset="0" stop-color="#D5E4FF"/><stop offset="1" stop-color="#EDFFFE"/></linearGradient><linearGradient x1="3518.65" y1="485.376" x2="3768.02" y2="485.376" gradientUnits="userSpaceOnUse" id="SVGID_9_"><stop offset="0" stop-color="#D5E4FF"/><stop offset="1" stop-color="#EDFFFE"/></linearGradient><g opacity="0.74"><path d="M4120.89 1404.02 3505.07 1404.02C3476.71 1404.02 3453.71 1381.03 3453.71 1352.66L3453.71 620.41C3453.71 592.05 3476.7 569.06 3505.07 569.06L4120.89 569.06C4149.25 569.06 4172.24 592.05 4172.24 620.41L4172.24 1352.67C4172.25 1381.03 4149.25 1404.02 4120.89 1404.02Z" fill="#1E6AA1"/></g><path d="M3961.97 540.13 3499.02 540.13C3482.98 540.13 3469.97 527.12 3469.97 511.08L3469.97 371.46C3469.97 355.42 3482.98 342.41 3499.02 342.41L3961.97 342.41C3978.01 342.41 3991.02 355.42 3991.02 371.46L3991.02 511.09C3991.02 527.13 3978.01 540.13 3961.97 540.13Z" fill="#1C6396" opacity="0.74"/><g><g><g><linearGradient x1="3533.35" y1="977.248" x2="3900.69" y2="977.248" gradientUnits="userSpaceOnUse" id="SVGID_1_"><stop offset="0" stop-color="#D5E4FF"/><stop offset="1" stop-color="#EDFFFE"/></linearGradient><path d="M3889.92 915.38C3862.43 838.47 3788.96 791.23 3711.54 793.56 3692.79 794.12 3673.82 797.59 3655.2 804.26 3598.8 824.44 3558.36 869.39 3541.74 922.49 3530.23 959.29 3530.15 1000.01 3544.13 1039.12 3545.52 1043.01 3547.03 1046.84 3548.65 1050.57 3556 1067.51 3565.65 1082.83 3577.11 1096.3 3625.16 1152.82 3704.89 1176.71 3778.86 1150.24 3874.35 1116.07 3924.07 1010.92 3889.92 915.38ZM3763.38 1106.94C3707.92 1126.79 3648.15 1108.87 3612.12 1066.51 3603.53 1056.41 3596.29 1044.92 3590.79 1032.22 3589.57 1029.42 3588.44 1026.55 3587.4 1023.63 3576.92 994.31 3576.98 963.78 3585.61 936.2 3598.07 896.38 3628.38 862.68 3670.67 847.56 3684.63 842.56 3698.86 839.97 3712.91 839.54 3770.95 837.79 3826.04 873.21 3846.66 930.87 3872.26 1002.49 3834.98 1081.32 3763.38 1106.94Z" fill="url(#SVGID_1_)"/></g></g><g><g><path d="M3585.61 936.19 3541.74 922.48C3558.35 869.38 3598.8 824.43 3655.2 804.25 3673.82 797.59 3692.8 794.12 3711.54 793.55L3712.91 839.52C3698.86 839.95 3684.63 842.55 3670.67 847.54 3628.38 862.67 3598.06 896.38 3585.61 936.19Z" fill="#1A598C"/></g></g><g><g><path d="M3590.79 1032.21 3548.65 1050.56C3547.03 1046.82 3545.52 1043 3544.13 1039.11 3530.15 1000 3530.22 959.28 3541.74 922.48L3585.61 936.19C3576.98 963.78 3576.92 994.3 3587.4 1023.62 3588.44 1026.54 3589.58 1029.41 3590.79 1032.21Z" fill="#2273B5"/></g></g><g><g><path d="M3577.11 1096.3C3565.65 1082.83 3556 1067.51 3548.65 1050.57L3590.79 1032.22C3596.3 1044.92 3603.54 1056.41 3612.12 1066.51L3577.11 1096.3Z" fill="#3788CC"/></g></g></g><g><g><g><linearGradient x1="3940.67" y1="1096.3" x2="4092.61" y2="1096.3" gradientUnits="userSpaceOnUse" id="SVGID_2_"><stop offset="0" stop-color="#D5E4FF"/><stop offset="1" stop-color="#EDFFFE"/></linearGradient><path d="M4049.12 1027.6C4018.59 1013.15 3983.3 1020.83 3961.33 1044.17 3956.01 1049.82 3951.48 1056.39 3947.98 1063.79 3937.38 1086.2 3938.69 1111.18 3949.36 1131.58 3956.75 1145.71 3968.63 1157.64 3984.15 1164.99 3985.69 1165.72 3987.25 1166.4 3988.82 1167.02 3995.92 1169.82 4003.23 1171.48 4010.52 1172.07 4041.1 1174.54 4071.4 1158.19 4085.3 1128.81 4103.24 1090.86 4087.04 1045.56 4049.12 1027.6ZM4068.12 1120.67C4057.7 1142.7 4034.98 1154.96 4012.06 1153.11 4006.6 1152.67 4001.12 1151.43 3995.79 1149.32 3994.61 1148.86 3993.44 1148.35 3992.29 1147.8 3980.65 1142.29 3971.75 1133.34 3966.21 1122.75 3958.21 1107.46 3957.23 1088.73 3965.17 1071.93 3967.79 1066.38 3971.19 1061.46 3975.18 1057.22 3991.64 1039.72 4018.11 1033.96 4041 1044.79 4069.42 1058.25 4081.57 1092.22 4068.12 1120.67Z" fill="url(#SVGID_2_)"/></g></g><g><g><path d="M3966.2 1122.75 3949.36 1131.58C3938.7 1111.19 3937.39 1086.2 3947.98 1063.79 3951.48 1056.39 3956.02 1049.82 3961.33 1044.17L3975.17 1057.21C3971.18 1061.45 3967.78 1066.37 3965.16 1071.92 3957.22 1088.73 3958.2 1107.46 3966.2 1122.75Z" fill="#1A598C"/></g></g><g><g><path d="M3995.79 1149.32 3988.83 1167.02C3987.26 1166.4 3985.7 1165.73 3984.16 1164.99 3968.64 1157.64 3956.76 1145.71 3949.37 1131.58L3966.21 1122.75C3971.75 1133.35 3980.66 1142.29 3992.29 1147.8 3993.44 1148.35 3994.61 1148.85 3995.79 1149.32Z" fill="#2273B5"/></g></g></g><g><g><g><linearGradient x1="3940.67" y1="864.875" x2="4092.61" y2="864.875" gradientUnits="userSpaceOnUse" id="SVGID_3_"><stop offset="0" stop-color="#D5E4FF"/><stop offset="1" stop-color="#EDFFFE"/></linearGradient><path d="M4085.3 897.38C4099.74 866.84 4092.06 831.52 4068.74 809.54 4063.09 804.22 4056.53 799.68 4049.13 796.18 4026.73 785.58 4001.76 786.89 3981.38 797.56 3967.25 804.95 3955.33 816.84 3947.98 832.37 3947.25 833.91 3946.57 835.48 3945.95 837.04 3943.15 844.15 3941.49 851.45 3940.91 858.75 3938.44 889.34 3954.78 919.66 3984.15 933.57 4022.07 951.52 4067.36 935.32 4085.3 897.38ZM3992.29 916.38C3970.27 905.96 3958.02 883.22 3959.87 860.29 3960.31 854.82 3961.55 849.34 3963.66 844.02 3964.12 842.84 3964.63 841.67 3965.18 840.51 3970.69 828.87 3979.63 819.96 3990.22 814.41 4005.5 806.41 4024.22 805.42 4041.01 813.37 4046.55 815.99 4051.47 819.4 4055.71 823.38 4073.2 839.85 4078.96 866.34 4068.13 889.24 4054.67 917.69 4020.72 929.84 3992.29 916.38Z" fill="url(#SVGID_3_)"/></g></g><g><g><path d="M3990.2 814.41 3981.38 797.56C4001.76 786.89 4026.73 785.58 4049.13 796.18 4056.52 799.68 4063.09 804.22 4068.74 809.54L4055.7 823.39C4051.46 819.4 4046.54 816 4041 813.38 4024.21 805.42 4005.49 806.4 3990.2 814.41Z" fill="#4AAFFF"/></g></g><g><g><path d="M3963.65 844.01 3945.96 837.05C3946.58 835.48 3947.25 833.92 3947.99 832.38 3955.33 816.85 3967.26 804.96 3981.39 797.57L3990.21 814.42C3979.62 819.96 3970.68 828.87 3965.17 840.52 3964.62 841.66 3964.11 842.83 3963.65 844.01Z" fill="#2273B5"/></g></g><g><g><path d="M3940.91 858.75C3941.49 851.45 3943.15 844.15 3945.95 837.04L3963.64 844C3961.54 849.33 3960.3 854.81 3959.85 860.27L3940.91 858.75Z" fill="#3788CC"/></g></g></g><g><path d="M3993.3 1222.16 3851.47 1222.16 3851.47 1219.34 3990.49 1219.34 3990.49 1165.72 3993.3 1165.72Z" fill="#E2F3FE"/></g><g><path d="M3726.21 1222.16 3541.74 1222.16 3541.74 1219.34 3723.39 1219.34 3723.39 1131.58 3726.21 1131.58Z" fill="#E2F3FE"/></g><g><linearGradient x1="3541.74" y1="1198.44" x2="3668.67" y2="1198.44" gradientUnits="userSpaceOnUse" id="SVGID_4_"><stop offset="0" stop-color="#D5E4FF"/><stop offset="1" stop-color="#EDFFFE"/></linearGradient><rect x="3541.74" y="1189.98" width="126.93" height="16.92" fill="url(#SVGID_4_)"/></g><g><linearGradient x1="3851.47" y1="1198.44" x2="3926.13" y2="1198.44" gradientUnits="userSpaceOnUse" id="SVGID_5_"><stop offset="0" stop-color="#D5E4FF"/><stop offset="1" stop-color="#EDFFFE"/></linearGradient><rect x="3851.47" y="1189.98" width="74.66" height="16.92" fill="url(#SVGID_5_)"/></g><g><linearGradient x1="3816.73" y1="444.145" x2="3938.5" y2="444.145" gradientUnits="userSpaceOnUse" id="SVGID_6_"><stop offset="0" stop-color="#D5E4FF"/><stop offset="1" stop-color="#EDFFFE"/></linearGradient><path d="M3877.62 505.06C3844.05 505.06 3816.74 477.73 3816.74 444.14 3816.74 410.55 3844.05 383.22 3877.62 383.22 3911.19 383.22 3938.5 410.55 3938.5 444.14 3938.5 477.73 3911.19 505.06 3877.62 505.06ZM3877.62 385.23C3845.15 385.23 3818.74 411.66 3818.74 444.15 3818.74 476.64 3845.16 503.07 3877.62 503.07 3910.08 503.07 3936.5 476.64 3936.5 444.15 3936.5 411.66 3910.09 385.23 3877.62 385.23Z" fill="url(#SVGID_6_)"/></g><rect x="3586.1" y="394.91" width="181.92" height="16" fill="url(#SVGID_7_)"/><rect x="3612.94" y="436.14" width="155.08" height="16" fill="url(#SVGID_8_)"/><rect x="3518.65" y="477.38" width="249.37" height="16" fill="url(#SVGID_9_)"/><g><linearGradient x1="3512.98" y1="647.221" x2="3573.73" y2="647.221" gradientUnits="userSpaceOnUse" id="SVGID_10_"><stop offset="0" stop-color="#D5E4FF"/><stop offset="1" stop-color="#EDFFFE"/></linearGradient><rect x="3512.98" y="640.73" width="60.75" height="12.99" fill="url(#SVGID_10_)"/></g><g><linearGradient x1="3766.24" y1="696.127" x2="3860.49" y2="696.127" gradientUnits="userSpaceOnUse" id="SVGID_11_"><stop offset="0" stop-color="#D5E4FF"/><stop offset="1" stop-color="#EDFFFE"/></linearGradient><rect x="3766.24" y="689.63" width="94.25" height="12.99" fill="url(#SVGID_11_)"/></g><g><linearGradient x1="3644.36" y1="696.127" x2="3701.9" y2="696.127" gradientUnits="userSpaceOnUse" id="SVGID_12_"><stop offset="0" stop-color="#D5E4FF"/><stop offset="1" stop-color="#EDFFFE"/></linearGradient><rect x="3644.36" y="689.63" width="57.54" height="12.99" fill="url(#SVGID_12_)"/></g><g><linearGradient x1="3512.98" y1="696.127" x2="3626.98" y2="696.127" gradientUnits="userSpaceOnUse" id="SVGID_13_"><stop offset="0" stop-color="#D5E4FF"/><stop offset="1" stop-color="#EDFFFE"/></linearGradient><rect x="3512.98" y="689.63" width="114" height="12.99" fill="url(#SVGID_13_)"/></g><g><linearGradient x1="3592.22" y1="647.221" x2="3682.24" y2="647.221" gradientUnits="userSpaceOnUse" id="SVGID_14_"><stop offset="0" stop-color="#D5E4FF"/><stop offset="1" stop-color="#EDFFFE"/></linearGradient><rect x="3592.22" y="640.73" width="90.01" height="12.99" fill="url(#SVGID_14_)"/></g><g><linearGradient x1="3719.91" y1="696.127" x2="3744.64" y2="696.127" gradientUnits="userSpaceOnUse" id="SVGID_15_"><stop offset="0" stop-color="#D5E4FF"/><stop offset="1" stop-color="#EDFFFE"/></linearGradient><rect x="3719.91" y="689.63" width="24.72" height="12.99" fill="url(#SVGID_15_)"/></g><g><linearGradient x1="3793.24" y1="647.942" x2="3860.49" y2="647.942" gradientUnits="userSpaceOnUse" id="SVGID_16_"><stop offset="0" stop-color="#D5E4FF"/><stop offset="1" stop-color="#EDFFFE"/></linearGradient><rect x="3793.24" y="641.45" width="67.24" height="12.99" fill="url(#SVGID_16_)"/></g><g><linearGradient x1="3884.47" y1="696.127" x2="3941.81" y2="696.127" gradientUnits="userSpaceOnUse" id="SVGID_17_"><stop offset="0" stop-color="#D5E4FF"/><stop offset="1" stop-color="#EDFFFE"/></linearGradient><rect x="3884.47" y="689.63" width="57.34" height="12.99" fill="url(#SVGID_17_)"/></g><g><linearGradient x1="3704.37" y1="647.942" x2="3775.65" y2="647.942" gradientUnits="userSpaceOnUse" id="SVGID_18_"><stop offset="0" stop-color="#D5E4FF"/><stop offset="1" stop-color="#EDFFFE"/></linearGradient><rect x="3704.37" y="641.45" width="71.28" height="12.99" fill="url(#SVGID_18_)"/></g></g><path d="M3619.14 1652.02 1410.5 1875.27 559.15 1878.1 559.15 1652.02Z" fill="#2788CF" opacity="0.72"/><rect x="766.08" y="806.67" width="369.79" height="1071.44" fill="#FCFCFC"/><rect x="737.73" y="1808.05" width="426.48" height="70.05" fill="#8CC7F2"/><g><g opacity="0.74"><path d="M1160.78 1713.92 741.17 1713.92C716.97 1713.92 697.35 1694.3 697.35 1670.09L697.35 896.42C697.35 872.22 716.97 852.59 741.17 852.59L1160.78 852.59C1184.98 852.59 1204.6 872.21 1204.6 896.41L1204.6 1670.08C1204.6 1694.3 1184.98 1713.92 1160.78 1713.92Z" fill="#125D94"/></g><g><g><rect x="732.68" y="1366.36" width="2.22" height="284.73" fill="#DBF2FC"/></g><g><rect x="840.56" y="1366.36" width="2.22" height="284.73" fill="#DBF2FC"/></g><g><rect x="948.45" y="1366.36" width="2.22" height="284.73" fill="#DBF2FC"/></g><g><rect x="1056.33" y="1366.36" width="2.22" height="284.73" fill="#DBF2FC"/></g><g><rect x="1164.21" y="1366.36" width="2.22" height="284.73" fill="#DBF2FC"/></g></g><path d="M733.79 1535.63C733.79 1535.63 777.75 1572.67 820.24 1528.8 862.73 1484.93 911.73 1470.27 955.06 1507.21 998.38 1544.15 1015.24 1493.46 1058.56 1451.89 1101.88 1410.33 1101.19 1386.7 1165.33 1386.7L1165.33 1651.07 733.79 1651.07 733.79 1535.63Z" fill="#DBF2FC"/><rect x="733.79" y="1342.64" width="42.77" height="10.36" fill="#DBF2FC"/><rect x="841.67" y="1342.64" width="26.81" height="10.36" fill="#DBF2FC"/><rect x="949.55" y="1342.64" width="33.04" height="10.36" fill="#DBF2FC"/><rect x="1056.33" y="1342.64" width="33.04" height="10.36" fill="#DBF2FC"/><rect x="1002.2" y="1155.43" width="144.26" height="18.26" fill="#DBF2FC"/><rect x="1002.2" y="1231.95" width="132.42" height="18.26" fill="#DBF2FC"/><rect x="1002.2" y="1193.69" width="114.58" height="18.26" fill="#DBF2FC"/><path d="M872.86 1129.37C872.86 1143.31 861.57 1154.61 847.64 1154.61 833.71 1154.61 822.42 1143.31 822.42 1129.37 822.42 1115.43 833.71 1104.13 847.64 1104.13 861.57 1104.13 872.86 1115.43 872.86 1129.37Z" fill="#2273B5"/><path d="M893.14 1211.64 893.14 1259.63C879.21 1265.97 863.72 1269.5 847.42 1269.5 831.12 1269.5 815.63 1265.97 801.7 1259.63L801.7 1211.64C801.7 1186.38 822.16 1165.89 847.42 1165.89 872.67 1165.9 893.14 1186.39 893.14 1211.64Z" fill="#2273B5"/><g><path d="M847.42 1272.5C831.03 1272.5 815.23 1269.09 800.46 1262.37 759.96 1243.95 733.79 1203.31 733.79 1158.81 733.79 1096.12 784.76 1045.12 847.42 1045.12 910.08 1045.12 961.05 1096.12 961.05 1158.81 961.05 1203.3 934.88 1243.95 894.38 1262.37 879.6 1269.09 863.8 1272.5 847.42 1272.5ZM847.42 1051.12C788.07 1051.12 739.79 1099.43 739.79 1158.81 739.79 1200.95 764.58 1239.46 802.94 1256.9 816.93 1263.27 831.9 1266.5 847.42 1266.5 862.94 1266.5 877.91 1263.27 891.9 1256.91 930.26 1239.46 955.05 1200.96 955.05 1158.82 955.05 1099.43 906.76 1051.12 847.42 1051.12Z" fill="#2273B5"/></g><g><path d="M1072.85 1109.11C1035.92 1109.11 1005.87 1079.05 1005.87 1042.09 1005.87 1005.14 1035.92 975.07 1072.85 975.07 1109.78 975.07 1139.83 1005.13 1139.83 1042.09 1139.83 1079.04 1109.78 1109.11 1072.85 1109.11ZM1072.85 985.49C1041.66 985.49 1016.29 1010.88 1016.29 1042.09 1016.29 1073.3 1041.67 1098.69 1072.85 1098.69 1104.04 1098.69 1129.42 1073.3 1129.42 1042.09 1129.42 1010.88 1104.04 985.49 1072.85 985.49Z" fill="#DBF2FC"/></g><rect x="842.27" y="905.19" width="103.44" height="16.51" fill="#DBF2FC"/><rect x="857.53" y="947.72" width="88.18" height="16.5" fill="#DBF2FC"/><rect x="803.91" y="990.25" width="141.79" height="16.5" fill="#DBF2FC"/></g><g><g><g><rect x="197.04" y="1044.44" width="13.81" height="335.01" fill="#1B8CDE" opacity="0.74"/></g><g><rect x="260.49" y="1044.44" width="13.81" height="335.01" fill="#1B8CDE" opacity="0.74"/></g><g><rect x="323.93" y="1044.44" width="13.81" height="335.01" fill="#1B8CDE" opacity="0.74"/></g><g><rect x="387.38" y="1044.44" width="13.81" height="335.01" fill="#1B8CDE" opacity="0.74"/></g><g><rect x="450.83" y="1044.44" width="13.81" height="335.01" fill="#1B8CDE" opacity="0.74"/></g><g><rect x="514.27" y="1044.44" width="13.81" height="335.01" fill="#1B8CDE" opacity="0.74"/></g><g><rect x="577.72" y="1044.44" width="13.81" height="335.01" fill="#1B8CDE" opacity="0.74"/></g></g><g><g><linearGradient x1="203.946" y1="1489.67" x2="203.946" y2="1267.16" gradientUnits="userSpaceOnUse" id="SVGID_19_"><stop offset="0" stop-color="#D5E4FF"/><stop offset="1" stop-color="#EDFFFE"/></linearGradient><rect x="197.04" y="1144.6" width="13.81" height="234.85" fill="url(#SVGID_19_)"/></g><g><linearGradient x1="267.392" y1="1489.67" x2="267.392" y2="1267.16" gradientUnits="userSpaceOnUse" id="SVGID_20_"><stop offset="0" stop-color="#D5E4FF"/><stop offset="1" stop-color="#EDFFFE"/></linearGradient><rect x="260.49" y="1225.76" width="13.81" height="153.69" fill="url(#SVGID_20_)"/></g><g><linearGradient x1="330.837" y1="1489.67" x2="330.837" y2="1267.16" gradientUnits="userSpaceOnUse" id="SVGID_21_"><stop offset="0" stop-color="#D5E4FF"/><stop offset="1" stop-color="#EDFFFE"/></linearGradient><rect x="323.93" y="1092.79" width="13.81" height="286.65" fill="url(#SVGID_21_)"/></g><g><linearGradient x1="394.283" y1="1489.67" x2="394.283" y2="1267.16" gradientUnits="userSpaceOnUse" id="SVGID_22_"><stop offset="0" stop-color="#D5E4FF"/><stop offset="1" stop-color="#EDFFFE"/></linearGradient><rect x="387.38" y="1295.99" width="13.81" height="83.46" fill="url(#SVGID_22_)"/></g><g><linearGradient x1="457.729" y1="1489.67" x2="457.729" y2="1267.16" gradientUnits="userSpaceOnUse" id="SVGID_23_"><stop offset="0" stop-color="#D5E4FF"/><stop offset="1" stop-color="#EDFFFE"/></linearGradient><rect x="450.83" y="1211.95" width="13.81" height="167.5" fill="url(#SVGID_23_)"/></g><g><linearGradient x1="521.174" y1="1489.67" x2="521.174" y2="1267.16" gradientUnits="userSpaceOnUse" id="SVGID_24_"><stop offset="0" stop-color="#D5E4FF"/><stop offset="1" stop-color="#EDFFFE"/></linearGradient><rect x="514.27" y="1149.21" width="13.81" height="230.24" fill="url(#SVGID_24_)"/></g><g><linearGradient x1="584.62" y1="1489.67" x2="584.62" y2="1267.16" gradientUnits="userSpaceOnUse" id="SVGID_25_"><stop offset="0" stop-color="#D5E4FF"/><stop offset="1" stop-color="#EDFFFE"/></linearGradient><rect x="577.72" y="1230.94" width="13.81" height="148.51" fill="url(#SVGID_25_)"/></g></g></g><g><rect x="1889.02" y="1173.68" width="301.88" height="302.04" fill="#C29472"/><rect x="2004.87" y="1173.68" width="70.18" height="35.11" fill="#FFE0C9"/></g><g><rect x="2418.79" y="1173.68" width="301.88" height="302.04" fill="#C29472"/><rect x="2534.64" y="1173.68" width="70.18" height="35.11" fill="#FFE0C9"/></g><g><rect x="2948.57" y="1173.68" width="301.88" height="302.04" fill="#C29472"/><rect x="3064.42" y="1173.68" width="70.18" height="35.11" fill="#FFE0C9"/></g><rect x="1193.67" y="292.43" width="126.18" height="188.08" fill="#DAF1FE"/><rect x="1467.15" y="865.68" width="182" height="26.19" fill="#385369" transform="matrix(6.12323e-17 -1 1 6.12323e-17 679.37 2436.93)"/><rect x="1376.16" y="865.68" width="182" height="26.19" fill="#385369" transform="matrix(6.12323e-17 -1 1 6.12323e-17 588.376 2345.94)"/><rect x="1303.64" y="410.75" width="126.22" height="307.39" fill="#DAF1FE" transform="matrix(0.618 -0.7862 0.7862 0.618 78.3661 1290.16)"/><ellipse cx="1256.76" cy="480.51" rx="77.9" ry="77.94" fill="#385369"/><ellipse cx="1256.76" cy="480.51" rx="56.41" ry="56.44" fill="#ABC6DB"/><path d="M1400.97 318.2 1112.56 318.2 1112.56 313.67C1112.56 279.88 1139.95 252.5 1173.74 252.5L1339.8 252.5C1373.59 252.5 1400.98 279.89 1400.98 313.67L1400.98 318.2Z" fill="#87D0FA"/><rect x="1447.78" y="669.5" width="126.18" height="188.08" fill="#DAF1FE"/><rect x="1419.92" y="820.27" width="181.9" height="52.36" fill="#DAF1FE"/><rect x="1419.92" y="900.03" width="181.9" height="52.36" fill="#DAF1FE"/><ellipse cx="1508.77" cy="671.18" rx="77.9" ry="77.94" fill="#385369"/><ellipse cx="1508.77" cy="671.18" rx="56.41" ry="56.44" fill="#ABC6DB"/><path d="M1582.43 979.23 1661.2 1028.5 1690.97 1089.85 1674.56 1185.51 1661.2 1191.24 1649.45 1095.65 1617.52 1044.44 1570.25 1022.22 1570.25 979.23Z" fill="#DAF1FE"/><path d="M1437.95 979.23 1359.19 1028.5 1329.41 1089.85 1345.83 1185.51 1359.19 1191.24 1370.94 1095.65 1402.86 1044.44 1450.14 1022.22 1450.14 979.23Z" fill="#DAF1FE"/><rect x="1432.63" y="964.23" width="154.06" height="42.53" fill="#DAF1FE"/><path d="M1598.05 993.72C1598.05 1003.73 1589.94 1011.84 1579.94 1011.84 1569.94 1011.84 1561.83 1003.73 1561.83 993.72 1561.83 983.71 1569.94 975.6 1579.94 975.6 1589.94 975.6 1598.05 983.71 1598.05 993.72Z" fill="#ABC6DB"/><path d="M1592.75 993.72C1592.75 1000.8 1587.02 1006.53 1579.94 1006.53 1572.87 1006.53 1567.13 1000.79 1567.13 993.72 1567.13 986.64 1572.86 980.91 1579.94 980.91 1587.01 980.9 1592.75 986.64 1592.75 993.72Z" fill="#385369"/><path d="M1462.03 993.72C1462.03 1003.73 1453.92 1011.84 1443.92 1011.84 1433.92 1011.84 1425.81 1003.73 1425.81 993.72 1425.81 983.71 1433.92 975.6 1443.92 975.6 1453.92 975.6 1462.03 983.71 1462.03 993.72Z" fill="#ABC6DB"/><path d="M1456.73 993.72C1456.73 1000.8 1451 1006.53 1443.92 1006.53 1436.85 1006.53 1431.11 1000.79 1431.11 993.72 1431.11 986.64 1436.84 980.91 1443.92 980.91 1450.99 980.9 1456.73 986.64 1456.73 993.72Z" fill="#385369"/><rect x="621.27" y="318.2" width="495.5" height="203.54" fill="#AEE2FE"/><rect x="621.27" y="585.4" width="495.5" height="50.35" fill="#AEE2FE"/><rect x="348.02" y="252.17" width="346.32" height="35.18" fill="#AEE2FE" transform="matrix(0.8659 0.5002 -0.5002 0.8659 204.822 -224.52)"/><rect x="112.38" y="274.84" width="346.41" height="35.17" fill="#AEE2FE" transform="matrix(-0.4998 0.8661 -0.8661 -0.4998 681.604 191.231)"/><rect x="538.56" y="474.73" width="234.83" height="14.18" fill="#4689B0" transform="matrix(-0.4998 0.8661 -0.8661 -0.4998 1401.15 154.465)"/><rect x="413.42" y="318.2" width="187.54" height="383.9" fill="#2379B8"/><rect x="672.88" y="285.35" width="363.29" height="184.22" fill="#87D0FA"/><path d="M552.8 476.7 463.16 476.7C455.91 476.7 450.04 470.83 450.04 463.58L450.04 458.16C450.04 450.92 455.91 445.04 463.16 445.04L552.8 445.04C560.05 445.04 565.92 450.91 565.92 458.16L565.92 463.58C565.92 470.83 560.05 476.7 552.8 476.7Z" fill="#1A5E8F"/><path d="M552.8 529.24 463.16 529.24C455.91 529.24 450.04 523.37 450.04 516.12L450.04 510.7C450.04 503.46 455.91 497.58 463.16 497.58L552.8 497.58C560.05 497.58 565.92 503.45 565.92 510.7L565.92 516.12C565.92 523.37 560.05 529.24 552.8 529.24Z" fill="#1A5E8F"/><path d="M552.8 581.79 463.16 581.79C455.91 581.79 450.04 575.92 450.04 568.67L450.04 563.25C450.04 556 455.91 550.13 463.16 550.13L552.8 550.13C560.05 550.13 565.92 556 565.92 563.25L565.92 568.67C565.92 575.91 560.05 581.79 552.8 581.79Z" fill="#1A5E8F"/><path d="M552.8 634.33 463.16 634.33C455.91 634.33 450.04 628.46 450.04 621.21L450.04 615.79C450.04 608.54 455.91 602.67 463.16 602.67L552.8 602.67C560.05 602.67 565.92 608.54 565.92 615.79L565.92 621.21C565.92 628.46 560.05 634.33 552.8 634.33Z" fill="#1A5E8F"/><ellipse cx="354.83" cy="189.02" rx="63.45" ry="63.48" fill="#4689B0"/><ellipse cx="354.84" cy="189.02" rx="39.27" ry="39.29" fill="#385369"/><rect x="558.53" y="490.76" width="234.83" height="14.18" fill="#4689B0" transform="matrix(-0.4998 0.8661 -0.8661 -0.4998 1444.99 161.214)"/><g><ellipse cx="629.82" cy="349.11" rx="131.4" ry="131.33" fill="#385369" transform="matrix(0.00177572 -1 1 0.00177572 279.587 978.311)"/><path d="M722.43 349.11C722.43 400.28 680.97 441.77 629.82 441.77 578.67 441.77 537.21 400.28 537.21 349.11 537.21 297.94 578.67 256.45 629.82 256.45 680.96 256.46 722.43 297.94 722.43 349.11Z" fill="#509BC7"/></g><path d="M222.36 535.7 45.7 535.7C20.83 535.7 0.67 515.54 0.67 490.67L0.67 431.06C0.67 406.19 20.83 386.03 45.7 386.03L222.36 386.03C247.23 386.03 267.39 406.19 267.39 431.06L267.39 490.67C267.39 515.54 247.23 535.7 222.36 535.7Z" fill="#87D0FA"/><g><path d="M207.83 622.47C155.57 622.47 116.02 608.57 90.07 581.04 50.89 539.46 57.35 482.51 57.65 480.11L64.22 480.91C64.16 481.47 57.88 537.27 94.94 576.54 122.74 606.01 167.45 619.01 227.79 615.19 300.33 610.6 357.42 587.17 407.79 566.49 485.94 534.41 547.69 509.06 623.38 572L619.15 577.1C546.52 516.72 486.42 541.39 410.3 572.63 359.46 593.5 301.84 617.15 228.21 621.81 221.22 622.25 214.43 622.47 207.83 622.47Z" fill="#385369"/></g><g><path d="M340.85 664.18C115.41 664.18 88.18 471.92 87.93 469.98L94.5 469.14C94.74 471.02 121.35 657.55 340.85 657.55 466.91 657.55 505.81 631.94 537.07 611.36 561.1 595.54 580.08 583.05 629.55 589.95L628.63 596.51C581.64 589.95 564.46 601.25 540.71 616.89 510.4 636.86 468.89 664.18 340.85 664.18Z" fill="#385369"/></g><rect x="22.18" y="450.13" width="181.77" height="53.14" fill="#2379B8"/><rect x="901.62" y="377.46" width="80.98" height="233.12" fill="#87D0FA"/><rect x="800.07" y="377.46" width="80.98" height="233.12" fill="#87D0FA"/><path d="M959.17 424.07 831.79 424.07C814.27 424.07 800.08 409.87 800.08 392.36L800.08 380.83C800.08 363.31 814.28 349.12 831.79 349.12L959.17 349.12C976.69 349.12 990.88 363.32 990.88 380.83L990.88 392.36C990.88 409.88 976.68 424.07 959.17 424.07Z" fill="#AEE2FE"/><g><path d="M661.43 574.56C661.43 596.75 643.45 614.74 621.27 614.74 599.09 614.74 581.11 596.75 581.11 574.56 581.11 552.37 599.09 534.38 621.27 534.38 643.45 534.37 661.43 552.36 661.43 574.56Z" fill="#385369"/><path d="M647.03 574.56C647.03 588.8 635.5 600.34 621.27 600.34 607.04 600.34 595.51 588.8 595.51 574.56 595.51 560.32 607.04 548.78 621.27 548.78 635.5 548.78 647.03 560.32 647.03 574.56Z" fill="#509BC7"/></g><g><path d="M2554.26 1100.05C2554.26 1100.05 2541.49 1085.88 2539.47 1083.77 2537.45 1081.67 2529.51 1079.94 2520.21 1078.74 2510.91 1077.54 2497.82 1080.1 2496.76 1081.33 2495.7 1082.55 2494.06 1083.3 2493.63 1087.43 2493.2 1091.56 2495.1 1095.29 2495.1 1095.29 2495.1 1095.29 2492.18 1100.13 2494.87 1104.55 2494.87 1104.55 2492.33 1109.23 2496.2 1113.74 2496.2 1113.74 2493.84 1118.37 2496.94 1121.42 2496.94 1121.42 2504.9 1123.17 2507.66 1124.66 2510.42 1126.15 2527.23 1128.66 2543.72 1128.57 2543.74 1128.57 2559.29 1123.21 2554.26 1100.05Z" fill="#EEA886"/><path d="M2527.18 1099.66C2527.18 1099.66 2530.3 1108.72 2532.46 1110.82 2534.62 1112.92 2517.21 1125.7 2517.21 1125.7 2517.21 1125.7 2516.27 1103.75 2527.18 1099.66Z" fill="#CF8C6C"/><path d="M2543.74 1128.57C2543.74 1128.57 2550.75 1131.55 2551.71 1132.16 2552.67 1132.77 2571.15 1107.86 2554.26 1100.05 2537.38 1092.25 2543.74 1128.57 2543.74 1128.57Z" fill="#EEA886"/><g><path d="M2668.49 1024.21C2668.49 1024.21 2666.72 1102.37 2661.2 1104.05 2655.68 1105.73 2551.77 1093 2551.77 1093 2551.77 1093 2543.94 1132.44 2549.46 1133.78 2557.16 1135.65 2701.83 1168.42 2709.19 1160.9 2716.56 1153.37 2701.36 1098.52 2701.36 1098.52 2701.36 1098.52 2697.21 1017.23 2668.49 1024.21Z" fill="#385369"/></g><path d="M2499.21 1081.55C2499.21 1081.55 2522.7 1085.15 2522.59 1089 2522.48 1092.86 2520.1 1094.21 2520.1 1094.21L2529.1 1100.08C2529.1 1100.08 2532.87 1107.33 2523.87 1109.32 2523.87 1109.32 2528.09 1115.73 2519.18 1116.61 2519.18 1116.61 2520.08 1122.08 2516.02 1123.22 2511.96 1124.36 2496.94 1121.42 2496.94 1121.42 2496.94 1121.42 2494.05 1119.37 2496.2 1113.74 2496.2 1113.74 2492.23 1109.63 2494.87 1104.55 2494.87 1104.55 2492.2 1100.76 2495.1 1095.29 2495.1 1095.29 2489.82 1086.38 2496.76 1081.34 2496.76 1081.33 2498.23 1081.39 2499.21 1081.55Z" fill="#DB9C7C"/><rect x="2471.67" y="1008.14" width="11.7" height="234.74" fill="#515154" transform="matrix(-0.8846 0.4663 -0.4663 -0.8846 5194.03 965.975)"/><path d="M2624.44 1886.84C2624.44 1886.84 2592.9 1880.15 2591.81 1879.17 2590.72 1878.19 2584.15 1865.56 2579.22 1867.66 2574.29 1869.76 2573.96 1884.98 2569.13 1887.47 2564.3 1889.96 2526.08 1914.83 2521.35 1919.4 2516.63 1923.97 2488.07 1920.73 2484.64 1928.75 2481.21 1936.77 2480.6 1955.85 2523.36 1952.11 2566.12 1948.37 2614.73 1956.18 2624 1951.3 2633.29 1946.41 2627.16 1899.19 2624.44 1886.84Z" fill="#323657"/><path d="M2879.49 1869.24C2879.49 1869.24 2847.29 1867.69 2846.05 1866.89 2844.81 1866.09 2836.31 1854.68 2831.78 1857.54 2827.25 1860.4 2829.36 1875.48 2824.99 1878.71 2820.62 1881.94 2786.87 1912.61 2782.94 1917.87 2779.01 1923.13 2750.3 1924.51 2748.2 1932.97 2746.1 1941.43 2748.55 1960.37 2790.16 1949.83 2831.77 1939.29 2881 1939.22 2889.38 1932.91 2897.75 1926.62 2884.15 1880.99 2879.49 1869.24Z" fill="#323657"/><g><path d="M2687.77 905.85C2687.77 905.85 2687.97 908.56 2688.21 912.77 2688.39 915.87 2688.59 919.76 2688.75 923.98 2689.17 935.4 2689.27 949.15 2687.75 955.39 2684.9 967.07 2737.77 919.58 2737.77 919.58 2737.77 919.58 2735.15 880.84 2739.13 837.61 2743.11 794.38 2687.77 905.85 2687.77 905.85Z" fill="#EEA886"/></g><g><g><g><g><g><path d="M2497.72 1214.63C2497.72 1214.63 2502.96 1215.77 2505.33 1215.18 2505.33 1215.18 2509.52 1213.76 2512.59 1212.94 2513.56 1212.68 2514.42 1212.48 2515 1212.41 2517.41 1212.12 2522.88 1212.21 2528.23 1209.84 2533.57 1207.48 2553.12 1190.93 2553.12 1190.93L2545.54 1176.46 2540.26 1162.17C2540.26 1162.17 2502.22 1156.48 2496.9 1158.07 2496.38 1158.23 2495.88 1158.4 2495.42 1158.61 2491.11 1160.41 2488.93 1163.69 2486.81 1164.91 2486.04 1165.36 2478.73 1170.44 2478.76 1173.27 2478.8 1177.2 2480.44 1180.13 2482.73 1181.91 2482.73 1181.91 2483.15 1189.65 2486.69 1193.97 2486.69 1193.97 2486.85 1201.09 2492.62 1205.42 2492.61 1205.4 2493.59 1212.72 2497.72 1214.63Z" fill="#EEA886"/></g></g></g></g></g><g><path d="M2661.56 1142.37C2662.82 1147.24 2664.1 1152.31 2665.37 1157.63 2665.96 1160.07 2666.5 1162.61 2667 1165.22 2674.21 1202.77 2670.44 1256.99 2664.44 1317.99 2664.44 1317.99 2690.96 1326.31 2831.38 1348.94 2836.96 1166.71 2802.42 996.8 2802.42 996.8 2792 957.24 2771.93 942.46 2739.28 917.75 2739.28 917.75 2732.96 918.01 2688.57 949.78 2685.46 952 2671.08 980.74 2662.09 1012.72 2646.19 1069.3 2650.27 1098.58 2661.56 1142.37Z" fill="#FFD796"/></g><path d="M2746.08 1130.41C2752.12 1132.11 2757.7 1132.21 2762.18 1130.4 2762.59 1130.23 2762.99 1130.06 2763.38 1129.86 2785.7 1118.59 2804.85 985.45 2763.88 961.97 2763.88 961.97 2744.3 952.04 2725.23 960.02 2706.17 968 2692.59 1001.58 2690.06 1050.56 2688.06 1089.29 2721.13 1123.41 2746.08 1130.41Z" fill="#385369"/><g><path d="M2688.21 912.77C2688.39 915.87 2688.66 921.86 2688.82 926.08 2706.12 914.04 2720.07 896.68 2724.3 891.89 2716.36 899.78 2688.21 912.77 2688.21 912.77Z" fill="#A77860"/></g><g><path d="M2629.16 818.41C2629.16 818.41 2620.81 847.38 2628.61 849.9 2635.06 851.99 2628.15 880.13 2627.43 884.64 2626.71 889.15 2639.36 889.56 2642.48 891.69 2645.61 893.81 2660.31 925.09 2670.4 923.94 2680.49 922.79 2721.65 897.62 2731.03 882.38 2740.41 867.14 2738 808.02 2724.69 785.75 2711.39 763.49 2644 767.76 2629.16 818.41Z" fill="#EEA886"/></g><g><path d="M2627.37 824.37C2627.37 824.37 2621.01 812.89 2642.42 786.48 2663.83 760.08 2705.76 773 2711.45 773.22 2717.14 773.44 2747.57 791.88 2744.38 825.94 2739.05 882.86 2736.83 881.69 2736.83 881.69 2736.83 881.69 2727.73 850 2717.53 849.85 2706.47 849.69 2688.54 851.09 2688.54 851.09 2688.54 851.09 2692.41 824.82 2677.38 824.48 2662.34 824.15 2640.66 815.86 2627.37 824.37Z" fill="#754836"/></g><path d="M2695.08 851.51C2695.18 848.51 2695.68 835.08 2706.05 834.83 2716.42 834.58 2716.47 850.96 2710.73 861.77 2704.99 872.58 2694.55 868.23 2695.08 851.51Z" fill="#EEA886"/><path d="M2624 825.11C2624 825.11 2629.96 741.31 2702.44 755.96 2786.75 773.01 2741.77 852.31 2741.77 852.31 2741.77 852.31 2713.69 824 2624 825.11Z" fill="#FFD796"/><path d="M2624.71 817.76C2624.71 817.76 2613.62 821.05 2607.12 824.61 2587.09 835.57 2657.71 825.85 2664.24 826.74 2725.08 835.04 2624.71 817.76 2624.71 817.76Z" fill="#FFD796"/><path d="M2704.43 989.96C2704.43 989.96 2717.21 946.18 2763.39 965.76 2788.8 976.54 2789.27 1008.77 2748.84 1119.94 2748.84 1119.94 2736.18 1170.49 2728.03 1177.76 2698.59 1204.02 2555.97 1202.06 2542.76 1199.9L2538.14 1161.16C2538.14 1161.16 2586.03 1157.61 2614.43 1149.68 2645.3 1141.06 2673.21 1137.45 2673.21 1137.45L2704.43 989.96Z" fill="#385369"/><path d="M2739.28 917.74 2737.26 908.98 2687.79 941.17 2688.57 949.77Z" fill="#385369"/><path d="M2879.49 1869.24 2870.94 1840.86 2832.53 1846.38 2837.81 1871.93Z" fill="#3B3F66"/><path d="M2626.87 1871.38 2624.44 1886.84 2582.64 1879.11 2585.28 1855.99Z" fill="#555C94"/><g><path d="M2725.35 1375.37C2725.35 1375.37 2731.84 1430.81 2738.96 1487.63 2740.58 1500.56 2742.24 1513.56 2743.85 1525.99 2749.17 1566.82 2754.09 1601.56 2756.19 1607.65 2761.86 1624.05 2825.68 1871.93 2825.68 1871.93 2825.68 1871.93 2883.06 1878.64 2885.13 1871.93 2885.13 1871.93 2837.64 1594.41 2838.41 1585.11 2839.18 1575.81 2830.06 1313.56 2830.06 1313.56 2830.06 1313.56 2728.46 1360.3 2725.35 1375.37Z" fill="#FFD796"/></g><g><path d="M2669.18 1295.75C2669.18 1295.75 2614.41 1552.23 2609.76 1571.86 2605.11 1591.49 2568.09 1875.42 2568.09 1875.42 2568.09 1875.42 2590.97 1898.87 2632.82 1890.84 2632.82 1890.84 2696.02 1587.99 2700.98 1578.59 2720.23 1542.08 2786.89 1361.04 2796.18 1335.72 2805.47 1310.4 2831.17 1284.83 2831.17 1284.83 2831.17 1284.83 2764.03 1245.51 2669.18 1295.75Z" fill="#FFD796"/></g><path d="M2483.13 1119.31 2489.96 1111.64 2547.18 1069.32 2549.69 1072.71 2492.47 1115.03Z" fill="#515154"/><path d="M2538.75 1083.58C2538.75 1083.58 2523.28 1088.74 2516.06 1095.27 2514.43 1096.75 2513.12 1098.48 2513.87 1100.55 2514.62 1102.62 2518.58 1104.16 2525.4 1102.27 2532.22 1100.38 2541.89 1101.05 2541.89 1101.05 2541.89 1101.05 2548.34 1097.05 2538.75 1083.58Z" fill="#EEA886"/><path d="M2738.96 1487.63C2740.58 1500.56 2742.24 1513.56 2743.85 1525.99 2743.85 1525.98 2743.86 1525.98 2743.86 1525.98 2763.58 1476.07 2789.19 1355.52 2789.59 1353.63 2786.83 1361.09 2738.96 1487.63 2738.96 1487.63Z" fill="#8C7653"/><path d="M2746.07 1130.4C2746.07 1130.4 2746.07 1130.4 2746.07 1130.4 2752.12 1132.11 2757.69 1132.21 2762.17 1130.4 2765.76 1105.17 2773.41 1044.32 2773.41 1044.32 2773.41 1044.32 2756.6 1101.78 2752.14 1110.81 2747.67 1119.85 2746.07 1130.4 2746.07 1130.4Z" fill="#1A2630"/></g><path d="M1199.77 1118.25C1193.65 1112.33 1172.19 1074.13 1141.35 1092.13 1110.51 1110.13 1119.09 1148.33 1136.54 1168.54 1153.99 1188.75 1176.24 1215.52 1179.66 1220.03 1183.08 1224.54 1249.6 1288.32 1256.39 1291.02 1263.18 1293.72 1339.41 1325.15 1351.62 1327.38 1363.83 1329.61 1454.07 1350.72 1454.07 1350.72L1465.79 1312.99C1465.79 1312.99 1321.53 1255.56 1310.01 1251.45 1298.49 1247.34 1278.94 1234.72 1272.88 1224.24 1266.82 1213.75 1208.89 1127.07 1199.77 1118.25Z" fill="#2C4152"/><g><path d="M1207.62 1887.11C1207.62 1887.11 1217.99 1890.32 1229.26 1898.56 1240.53 1906.8 1255.72 1920.27 1272.38 1923.29 1289.04 1926.31 1306.68 1926.04 1303.99 1943.9 1301.29 1961.76 1246.41 1970.56 1196.91 1955.44 1147.41 1940.33 1146.68 1938.95 1146.68 1934.56 1146.68 1930.16 1154.17 1885.91 1156.43 1884.4 1158.7 1882.9 1207.62 1887.11 1207.62 1887.11Z" fill="#202338"/></g><g><path d="M919.26 1870.62C919.26 1870.62 938.33 1890.37 954.76 1893.69 971.19 1897.01 992.74 1902.35 993.85 1913.14 994.96 1923.93 988.09 1926.73 987.46 1927.4 983.35 1930.55 905 1933.4 874.68 1921.97 856.07 1914.95 877.51 1856.67 877.51 1856.67L919.26 1870.62Z" fill="#202338"/></g><g><path d="M1137.37 1613.67C1133.21 1628.92 1079.74 1698.2 1073.99 1706.55 1066.27 1717.76 948.23 1877.75 946.84 1880.98 945.45 1884.21 876.13 1867.52 873.35 1852.74 873.35 1852.74 967.72 1674.76 990.82 1648.42 1013.91 1622.08 1022.69 1599.84 1019 1569.34 1015.31 1538.83 969.3 1416.38 976.23 1375.71 983.16 1335.04 1103.08 1463.24 1107.23 1506.15 1107.23 1506.15 1107.45 1506.72 1107.83 1507.77 1107.84 1507.78 1107.84 1507.78 1107.84 1507.78 1109.23 1511.52 1112.83 1521.29 1116.8 1533.1 1117.06 1533.87 1117.32 1534.64 1117.58 1535.42 1117.58 1535.43 1117.58 1535.43 1117.58 1535.43 1125 1557.65 1139.77 1604.85 1137.37 1613.67Z" fill="#FFD796"/></g><g><path d="M1156.05 1379.29C1156.05 1379.29 1321.51 1504.71 1340.04 1530.36 1358.57 1556.01 1337.79 1594.13 1335.01 1606.61 1332.24 1619.09 1220.68 1866.05 1219.3 1887.54 1219.3 1887.54 1144.45 1893.78 1131.29 1877.14 1131.29 1877.14 1212.72 1642.71 1224.5 1602.51 1236.28 1562.3 1195.76 1552.54 1163.2 1537.98 1130.64 1523.42 989.16 1440.76 980.84 1409.19 973.24 1380.36 981.22 1351.58 981.22 1351.58 981.22 1351.58 1019.35 1331.51 1156.05 1379.29Z" fill="#FFD796"/></g><path d="M1201.03 1072.83C1201.03 1072.83 1222.51 1128.68 1219.9 1156.76 1217.3 1184.85 1181.19 1228.49 1172.14 1237.89 1163.09 1247.29 1144.8 1309.22 1148.49 1322.02 1152.18 1334.81 1162.61 1386.71 1162.61 1386.71 1162.61 1386.71 1012.67 1423.7 975.55 1383.52 975.55 1383.52 976.51 1253.21 1008.02 1172.53 1014.9 1154.91 1030.33 1121.74 1048.91 1099.15 1067.49 1076.56 1154.61 1025.11 1154.61 1025.11L1201.03 1072.83Z" fill="#FFD796"/><g><path d="M1304.73 979.6C1304.73 979.6 1300.08 1011.16 1291.46 1010.17 1284.34 1009.35 1278.65 1039.49 1277.37 1044.15 1276.09 1048.81 1263.73 1043.66 1259.78 1044.33 1255.84 1045 1227.97 1068.68 1218.76 1063.14 1209.55 1057.6 1180.94 1015.32 1178.59 996.52 1176.23 977.73 1204.47 921.86 1227.04 906.25 1249.61 890.64 1312.64 924.31 1304.73 979.6Z" fill="#EEA886"/></g><g><path d="M1303.84 986.12C1303.84 986.12 1313.13 968.57 1304.08 933.75 1295.04 898.93 1250.86 902.26 1245.29 899.97 1239.72 897.69 1212.77 897.55 1191.54 941.83 1165.39 996.37 1180.38 988.13 1180.38 988.13 1180.38 988.13 1195.97 966.76 1205.85 971.09 1216.58 975.79 1233.22 985 1233.22 985 1233.22 985 1241.01 958 1255.63 964.28 1270.26 970.57 1294.77 972.1 1303.84 986.12Z" fill="#163342"/></g><path d="M1226.11 1050.83C1220.2 1050.34 1215.05 1052.48 1210.85 1055.38 1208.36 1057.14 1206.19 1059.18 1204.43 1061.1 1200.91 1064.95 1198.96 1068.42 1198.96 1068.42 1198.96 1068.42 1142.11 1031.93 1155.98 1024.23 1169.88 1016.56 1178.85 989.2 1178.85 989.2 1178.85 989.2 1242.55 1052.19 1226.11 1050.83Z" fill="#EEA886"/><path d="M1201.03 1072.83 1203.32 1064.02 1161.84 1017.76 1146.48 1029.57C1146.48 1029.57 1184.5 1066.38 1201.03 1072.83Z" fill="#385369"/><path d="M1177.75 1232.04C1176.22 1234.1 1174.81 1235.95 1173.57 1237.55 1170.12 1241.99 1167.93 1244.55 1167.93 1244.55 1167.93 1244.55 1100.01 1237.3 1091.32 1180.3 1082.63 1123.3 1127.97 1080.99 1169.6 1078.58 1211.22 1076.17 1212 1125.84 1212 1125.84 1219.62 1178.36 1195.25 1208.44 1177.75 1232.04Z" fill="#385369"/><path d="M1207.55 1091.55C1207.55 1091.55 1201.16 1066.84 1159.49 1068.91 1117.82 1070.98 1088.38 1114.25 1088.38 1114.25L1048.91 1099.15C1048.91 1099.15 1071.43 1070.61 1110.37 1049.43 1149.31 1028.25 1146.48 1029.56 1146.48 1029.56L1201.03 1072.82 1201.03 1072.82C1201.03 1072.83 1206.5 1085.86 1207.55 1091.55Z" fill="#385369"/><g><path d="M1226.1 967.19C1227.16 963.48 1232.29 952.58 1216.2 951.92 1200.1 951.26 1200.53 983.43 1202.16 985.12 1203.79 986.8 1217.15 998.38 1226.1 967.19Z" fill="#EEA886"/></g><path d="M1117.58 1535.4C1117.58 1535.41 1117.58 1535.41 1117.58 1535.4 1069.99 1511.98 1025.63 1454.44 1024.94 1453.53 1045.29 1473.1 1106.87 1507.22 1107.84 1507.75 1107.85 1507.76 1107.85 1507.76 1107.85 1507.76 1109.24 1511.5 1112.84 1521.27 1116.81 1533.08 1117.06 1533.85 1117.33 1534.62 1117.58 1535.4Z" fill="#769661"/><path d="M1307.91 984.88C1307.91 984.88 1343.48 911.38 1259.23 887.05 1183.25 865.11 1178.35 967.52 1178.35 967.52 1178.35 967.52 1218.35 950.49 1307.91 984.88Z" fill="#FFD796"/><path d="M1309.93 977.25C1309.93 977.25 1319.83 984.66 1325.04 990.64 1341.08 1009.07 1273.83 973.11 1266.94 971.58 1202.84 957.34 1309.93 977.25 1309.93 977.25Z" fill="#FFD796"/><path d="M1210.85 1055.39C1208.36 1057.15 1206.19 1059.19 1204.43 1061.11 1197.98 1051.7 1188.31 1024.18 1185.95 1017.38 1190.34 1028.82 1210.01 1054.3 1210.85 1055.39Z" fill="#A77860"/><g><rect x="1359.25" y="1173.68" width="301.88" height="302.04" fill="#C29472"/><rect x="1475.1" y="1173.68" width="70.18" height="35.11" fill="#FFE0C9"/></g><g><g><g><g><path d="M1376.32 1349.64C1376.32 1349.64 1370.86 1351.12 1368.15 1350.6 1368.15 1350.6 1363.3 1349.28 1359.8 1348.55 1358.69 1348.32 1357.71 1348.15 1357.07 1348.1 1354.39 1347.9 1348.45 1348.27 1342.15 1345.99 1335.86 1343.72 1311.23 1326.91 1311.23 1326.91L1316.53 1311.01 1319.37 1295.42C1319.37 1295.42 1359.59 1287.46 1365.7 1288.9 1366.3 1289.04 1366.88 1289.21 1367.42 1289.4 1372.48 1291.12 1375.51 1294.53 1378.06 1295.74 1378.99 1296.19 1387.98 1301.27 1388.52 1304.31 1389.28 1308.53 1388.09 1311.76 1385.96 1313.78 1385.96 1313.78 1387.08 1322.1 1384.11 1326.91 1384.11 1326.91 1385.39 1334.55 1379.99 1339.48 1380 1339.49 1380.42 1347.39 1376.32 1349.64Z" fill="#EEA886"/></g></g></g></g><path d="M1186.71 1122.83C1186.71 1122.83 1198.15 1075.33 1149.59 1087.73 1090.82 1102.75 1100.59 1144.28 1099.9 1294.6 1099.9 1294.6 1103.96 1316.79 1148.49 1322.02 1189.23 1326.81 1311.16 1338.09 1323.99 1340.34L1325.9 1288.72C1325.9 1288.72 1268.73 1281.35 1236.18 1274.17 1203.63 1266.99 1174.15 1254.39 1174.15 1254.39L1186.71 1122.83Z" fill="#385369"/></g><g><path d="M1868.36 1069.73C1868.36 1069.73 1901.4 1067.34 1924.72 1069.73 1948.04 1072.12 1980.26 1091.21 1999.76 1096.72 2019.26 1102.23 2066.32 1133.88 2065.05 1138.21 2063.78 1142.53 2045.55 1194.03 2011.85 1235.85 1982.99 1271.65 1868.36 1069.73 1868.36 1069.73Z" fill="#385369"/><path d="M1939.65 1090.48C1939.65 1090.48 1975.27 1116.87 1987.67 1141.05 2000.07 1165.23 2004.3 1194.03 2004.3 1194.03L1939.65 1090.48Z" fill="#1A2630"/><path d="M1747.3 1896.59C1747.3 1896.59 1737.13 1907.41 1731.24 1910.27 1725.36 1913.13 1655.09 1925.22 1650.32 1930.95 1645.55 1936.68 1645.55 1959.26 1663.67 1959.26 1681.79 1959.26 1742.2 1958.94 1752.38 1959.26 1762.55 1959.58 1805.53 1968.17 1809.96 1959.26 1814.38 1950.35 1813.97 1908.78 1806.12 1898.82 1798.27 1888.86 1747.3 1896.59 1747.3 1896.59Z" fill="#2E2626"/><path d="M1749.46 1883.96 1747.3 1896.59C1747.3 1896.59 1766.06 1905.18 1806.12 1898.82L1806.12 1885.78 1749.46 1883.96Z" fill="#4A3F3F"/><path d="M2341.56 1841.24C2341.56 1841.24 2352.69 1854.28 2353.32 1862.24 2353.95 1870.19 2367.63 1905.19 2362.54 1913.78 2357.45 1922.37 2317.39 1923.64 2297.36 1920.46 2277.33 1917.28 2233.77 1923.96 2229.32 1915.37 2224.87 1906.78 2222.32 1894.26 2235.36 1889.38 2248.4 1884.51 2278.28 1871.78 2283.69 1858.42 2289.09 1845.06 2341.56 1841.24 2341.56 1841.24Z" fill="#2E2626"/><path d="M2278.13 1844.1 2283.69 1858.42C2283.69 1858.42 2341.08 1854.11 2341.56 1841.24L2323.44 1814.84 2278.13 1844.1Z" fill="#4A3F3F"/><g><g><path d="M1769.42 1088.72C1770.93 1088.93 1773.37 1090.25 1776.34 1092.3 1778.5 1093.79 1780.95 1095.66 1783.55 1097.76 1797.84 1109.32 1816.63 1127.82 1816.63 1127.82 1816.63 1127.82 1857.11 1068.1 1848.01 1070.32 1838.91 1072.54 1806.22 1041.81 1806.22 1041.81 1806.22 1041.81 1760.74 1087.57 1769.42 1088.72Z" fill="#EEA886"/></g></g><path d="M1798.8 1269.2C1801.55 1273.02 1803.76 1275.74 1805.17 1276.99 1806.14 1277.83 1807.31 1278.81 1808.65 1279.9 1808.66 1279.91 1808.67 1279.91 1808.67 1279.91 1821.62 1290.27 1850.67 1310.41 1864.08 1317.7 1878.92 1325.77 1914.95 1396.6 1914.95 1396.6 1914.95 1396.6 2039.8 1384.73 2070.33 1316.01 2070.33 1316.01 2048.71 1267.65 2029 1239.02 2009.29 1210.39 1966.05 1107.32 1943.15 1092.68 1920.25 1078.04 1900.54 1068.5 1855.39 1069.77 1810.24 1071.04 1785.22 1106.89 1785.22 1106.89 1785.22 1106.89 1750.88 1143.79 1747.5 1163.3 1744.59 1180.1 1781.87 1245.6 1798.8 1269.2Z" fill="#385369"/><path d="M1804.75 1152.71C1815.64 1159.29 1817.47 1161.41 1816.2 1192.58 1814.93 1223.76 1802 1248.89 1801.04 1257.48 1800.09 1266.07 1774.69 1365.65 1772.42 1372.01 1770.3 1377.95 1769.35 1386.77 1762.21 1389.9 1734.56 1402.01 1625.33 1462 1625.33 1462L1588.1 1450.57C1588.1 1450.57 1708.51 1363.95 1711.48 1356.74 1714.45 1349.53 1735.83 1228.1 1738.38 1214.95 1740.92 1201.8 1736.49 1181.14 1752.19 1149.95 1766.25 1122.01 1804.75 1152.71 1804.75 1152.71Z" fill="#385369"/><path d="M1914.97 1396.61C1914.97 1396.61 1906.91 1407.64 1900.98 1414 1895.04 1420.36 1795 1532.77 1788.64 1547.61 1782.28 1562.46 1780.59 1619.72 1778.47 1640.5 1776.35 1661.28 1739.96 1886.72 1738.26 1889.69 1736.56 1892.66 1789 1905.54 1823.88 1901.17 1823.88 1901.17 1847.15 1747.4 1853.51 1724.92 1859.87 1702.44 1871.32 1625.67 1870.04 1616.76 1868.77 1607.85 1950.59 1513.26 1973.48 1499.27 1996.37 1485.27 2052.33 1435.65 2058.69 1429.28 2065.05 1422.91 2101.08 1405.95 2097.69 1373.71 2094.3 1341.47 2070.35 1316.02 2070.35 1316.02L1914.97 1396.61Z" fill="#FFD796"/><path d="M2015.59 1467.02C2015.59 1467.02 2019.16 1476.44 2024.19 1489.63 2034.97 1517.97 2052.4 1563.7 2055.3 1570.93 2059.54 1581.54 2080.74 1627.35 2090.91 1636.26 2101.08 1645.17 2274.12 1856.72 2274.55 1858.41 2274.97 1860.1 2346.44 1835.79 2350.26 1823.48 2350.26 1823.48 2244.8 1686.72 2230.81 1669.34 2216.82 1651.95 2187.57 1626.07 2177.81 1584.92 2168.06 1543.78 2098.13 1385.57 2097.91 1379.63 2097.91 1379.63 2086.65 1330.85 2070.34 1316.01 2054.03 1301.17 1994.67 1318.55 1985.34 1349.51 1976.01 1380.49 2015.59 1467.02 2015.59 1467.02Z" fill="#FFD796"/><path d="M1808.68 1279.92C1808.68 1279.92 1881.9 1249 1858.58 1189.62 1858.58 1189.62 1848.83 1173.5 1847.98 1172.23 1847.98 1172.23 1920.9 1123.06 1935.73 1119.66 1935.73 1119.66 1972.39 1150.73 1994.12 1173.99 1994.12 1173.99 2066.3 1302.34 2080.18 1329.65 2094.06 1356.96 1914.95 1396.61 1914.95 1396.61 1914.95 1396.61 1875.83 1325.16 1866.53 1319.45 1857.25 1313.73 1812.62 1289.62 1808.68 1279.92Z" fill="#FFD796"/><path d="M1847.99 1172.22C1847.99 1172.22 1810.82 1122.93 1765.55 1130.55 1765.55 1130.55 1770.77 1122.05 1774.16 1119.65 1774.16 1119.65 1827.18 1118.19 1860.16 1164.29 1893.14 1210.4 1847.99 1172.22 1847.99 1172.22Z" fill="#FFD796"/><path d="M1935.74 1119.66C1935.74 1119.66 1897.85 1080.49 1868.36 1069.74 1868.36 1069.74 1862.08 1067.89 1855.4 1069.8 1855.4 1069.8 1915.04 1109.82 1919.72 1128.3 1924.4 1146.78 1935.74 1119.66 1935.74 1119.66Z" fill="#FFD796"/><path d="M1588.1 1450.56C1588.1 1450.56 1576.28 1461.47 1571.92 1464.37 1566.64 1467.9 1561.19 1470.5 1562.62 1475.73 1564.05 1480.96 1564.6 1495.42 1566.45 1503.31 1568.3 1511.2 1605.99 1521.69 1612.84 1519.49 1619.7 1517.3 1634.36 1486.14 1629.91 1474.07 1625.46 1462 1618.35 1444.35 1618.35 1444.35L1588.1 1450.56Z" fill="#EEA886"/><path d="M1713.02 1350.88C1713.02 1350.88 1742.14 1362.58 1762.21 1389.9 1762.21 1389.9 1703.44 1421.09 1682.58 1431.59 1661.72 1442.1 1610.35 1470.13 1610.35 1470.13L1588.09 1450.56C1588.09 1450.56 1660.17 1394.69 1674.49 1380.82 1688.82 1366.95 1713.02 1350.88 1713.02 1350.88Z" fill="#EEA886"/><path d="M1850.9 1070.04 1837.38 1064.7C1837.38 1064.7 1803.25 1072.55 1783.54 1099.91L1785.24 1108.09C1785.24 1108.08 1837.29 1096.79 1850.9 1070.04Z" fill="#385369"/><path d="M1798.8 1269.2C1801.55 1273.02 1803.76 1275.74 1805.17 1276.99 1806.14 1277.83 1807.31 1278.81 1808.65 1279.9 1808.66 1279.91 1808.67 1279.91 1808.67 1279.91L1809.95 1228.6C1809.95 1228.6 1803.52 1248.38 1802.56 1251.3 1801.61 1254.25 1798.8 1269.2 1798.8 1269.2Z" fill="#1A2630"/><path d="M2015.59 1467.02C2015.59 1467.02 2019.16 1476.44 2024.19 1489.63 2035.59 1476.51 2061.59 1426.91 2061.59 1426.91 2059.9 1428.12 2054.46 1433.23 2053.2 1434.37 2051.95 1435.52 2015.59 1467.02 2015.59 1467.02Z" fill="#705F42"/><g><path d="M1686.27 1010.26C1686.27 1010.26 1683.53 1042.13 1692.17 1043.16 1699.31 1044.01 1697.9 1074.73 1698.07 1079.57 1698.24 1084.42 1711.5 1082.24 1715.19 1083.81 1718.88 1085.38 1740.61 1114.92 1750.88 1111.64 1761.15 1108.36 1798.82 1073.71 1805.46 1055.91 1812.1 1038.11 1797.44 977.06 1779.01 956.62 1760.59 936.17 1691.31 954.47 1686.27 1010.26Z" fill="#EEA886"/></g><g><path d="M1685.63 1016.83C1685.63 1016.83 1676.65 1006.18 1693.51 974.29 1710.37 942.4 1756.69 947.23 1762.65 946.29 1768.62 945.35 1795.82 960.12 1807.76 994.4 1812.49 1007.99 1814.29 1049.05 1814.29 1049.05 1814.29 1049.05 1785.92 1023.62 1777.89 1025.66 1766.51 1028.54 1754.8 1032.07 1754.8 1032.07 1754.8 1032.07 1753.43 1003.92 1737.71 1006.67 1721.99 1009.41 1697.72 1005.24 1685.63 1016.83Z" fill="#754836"/></g><path d="M1761.7 1032.49C1761.18 1029.35 1758.95 1015.27 1769.69 1012.87 1780.44 1010.47 1783.85 1027.52 1780.1 1039.96 1776.36 1052.39 1764.58 1050.01 1761.7 1032.49Z" fill="#EEA886"/><path d="M1682.28 1018.29C1682.28 1018.29 1658.98 940.69 1745.34 930.11 1823.22 920.57 1812.5 1022.44 1812.5 1022.44 1812.5 1022.44 1775.42 998.69 1682.28 1018.29Z" fill="#FFD796"/><path d="M1681.5 1010.49C1681.5 1010.49 1670.63 1016.2 1664.6 1021.23 1646 1036.76 1717.52 1012.12 1724.51 1011.7 1789.54 1007.84 1681.5 1010.49 1681.5 1010.49Z" fill="#FFD796"/><path d="M1776.34 1092.29C1778.5 1093.78 1780.95 1095.65 1783.55 1097.75 1800.97 1071.86 1803.5 1060.11 1803.5 1060.11 1796.88 1072.46 1776.34 1092.29 1776.34 1092.29Z" fill="#A77860"/></g></g></svg>