<svg width="4352" height="2000" viewBox="0 0 4352 2000" xmlns="http://www.w3.org/2000/svg" xmlns:xlink="http://www.w3.org/1999/xlink" xml:space="preserve" overflow="visible"><defs></defs><g><rect x="0" y="0" width="4352" height="2000" fill="#EFF3FD"/><rect x="0" y="1874.33" width="4352" height="125.67" fill="#CFEBFF"/><g><rect x="1410.5" y="775.46" width="1631.94" height="1099.81" fill="#2788CF"/><path d="M4268.99 1875.27 3042.45 1875.27 3042.45 592.96C3042.45 483.58 3128.1 394.91 3233.74 394.91L4268.99 394.91 4268.99 1875.27Z" fill="#8FCFFF"/><rect x="4268.99" y="394.91" width="83.01" height="1480.36" fill="#3588C4"/></g><path d="M2072.35 1876.68 0 1876.68 0 402 1688.95 402C1900.7 402 2072.35 573.65 2072.35 785.4L2072.35 1876.68Z" fill="#8FCFFF"/><rect x="0.67" y="318.2" width="90.55" height="1558.49" fill="#70C2FF"/><path d="M0.67 408.79 0.67 318.19 2252.04 318.19 2252.04 318.22C2252.04 368.24 2211.49 408.79 2161.47 408.79L0.67 408.79Z" fill="#2788CF"/><g><path d="M3512.98 1878.1 2370.21 1878.1 2370.21 681.77 3295.07 681.77C3415.42 681.77 3512.98 779.33 3512.98 899.68L3512.98 1878.1Z" fill="#FCFCFC"/><g><g><path d="M2531.62 1510.7 2531.62 1638.04C2531.62 1642.34 2528.14 1645.83 2523.84 1645.83L2496.35 1645.83C2492.05 1645.83 2488.57 1642.34 2488.57 1638.04L2488.57 1510.7C2488.57 1506.4 2492.05 1502.91 2496.35 1502.91L2523.84 1502.91C2528.14 1502.91 2531.62 1506.4 2531.62 1510.7Z" fill="#4DA8F2"/></g><g><path d="M2634.84 1510.7 2634.84 1638.04C2634.84 1642.34 2631.36 1645.83 2627.06 1645.83L2599.57 1645.83C2595.27 1645.83 2591.79 1642.34 2591.79 1638.04L2591.79 1510.7C2591.79 1506.4 2595.27 1502.91 2599.57 1502.91L2627.06 1502.91C2631.36 1502.91 2634.84 1506.4 2634.84 1510.7Z" fill="#E8E8E8"/></g><g><path d="M2738.06 1510.7 2738.06 1638.04C2738.06 1642.34 2734.58 1645.83 2730.28 1645.83L2702.79 1645.83C2698.49 1645.83 2695.01 1642.34 2695.01 1638.04L2695.01 1510.7C2695.01 1506.4 2698.49 1502.91 2702.79 1502.91L2730.28 1502.91C2734.58 1502.91 2738.06 1506.4 2738.06 1510.7Z" fill="#E8E8E8"/></g><g><path d="M2841.28 1510.7 2841.28 1638.04C2841.28 1642.34 2837.8 1645.83 2833.5 1645.83L2806.01 1645.83C2801.71 1645.83 2798.23 1642.34 2798.23 1638.04L2798.23 1510.7C2798.23 1506.4 2801.71 1502.91 2806.01 1502.91L2833.5 1502.91C2837.8 1502.91 2841.28 1506.4 2841.28 1510.7Z" fill="#E8E8E8"/></g><g><path d="M2944.5 1510.7 2944.5 1638.04C2944.5 1642.34 2941.02 1645.83 2936.72 1645.83L2909.23 1645.83C2904.93 1645.83 2901.45 1642.34 2901.45 1638.04L2901.45 1510.7C2901.45 1506.4 2904.93 1502.91 2909.23 1502.91L2936.72 1502.91C2941.02 1502.91 2944.5 1506.4 2944.5 1510.7Z" fill="#E8E8E8"/></g><g><path d="M3047.73 1510.7 3047.73 1638.04C3047.73 1642.34 3044.25 1645.83 3039.95 1645.83L3012.46 1645.83C3008.16 1645.83 3004.68 1642.34 3004.68 1638.04L3004.68 1510.7C3004.68 1506.4 3008.16 1502.91 3012.46 1502.91L3039.95 1502.91C3044.24 1502.91 3047.73 1506.4 3047.73 1510.7Z" fill="#E8E8E8"/></g><g><path d="M2531.62 1411.02 2531.62 1436.11C2531.62 1440.41 2528.14 1443.9 2523.84 1443.9L2496.35 1443.9C2492.05 1443.9 2488.57 1440.41 2488.57 1436.11L2488.57 1411.02C2488.57 1406.72 2492.05 1403.23 2496.35 1403.23L2523.84 1403.23C2528.14 1403.24 2531.62 1406.72 2531.62 1411.02Z" fill="#4DA8F2"/></g><g><path d="M2634.84 1411.02 2634.84 1436.11C2634.84 1440.41 2631.36 1443.9 2627.06 1443.9L2599.57 1443.9C2595.27 1443.9 2591.79 1440.41 2591.79 1436.11L2591.79 1411.02C2591.79 1406.72 2595.27 1403.23 2599.57 1403.23L2627.06 1403.23C2631.36 1403.24 2634.84 1406.72 2634.84 1411.02Z" fill="#E8E8E8"/></g><g><path d="M2738.06 1411.02 2738.06 1436.11C2738.06 1440.41 2734.58 1443.9 2730.28 1443.9L2702.79 1443.9C2698.49 1443.9 2695.01 1440.41 2695.01 1436.11L2695.01 1411.02C2695.01 1406.72 2698.49 1403.23 2702.79 1403.23L2730.28 1403.23C2734.58 1403.24 2738.06 1406.72 2738.06 1411.02Z" fill="#E8E8E8"/></g><g><path d="M2841.28 1411.02 2841.28 1436.11C2841.28 1440.41 2837.8 1443.9 2833.5 1443.9L2806.01 1443.9C2801.71 1443.9 2798.23 1440.41 2798.23 1436.11L2798.23 1411.02C2798.23 1406.72 2801.71 1403.23 2806.01 1403.23L2833.5 1403.23C2837.8 1403.24 2841.28 1406.72 2841.28 1411.02Z" fill="#E8E8E8"/></g><g><path d="M2944.5 1411.02 2944.5 1436.11C2944.5 1440.41 2941.02 1443.9 2936.72 1443.9L2909.23 1443.9C2904.93 1443.9 2901.45 1440.41 2901.45 1436.11L2901.45 1411.02C2901.45 1406.72 2904.93 1403.23 2909.23 1403.23L2936.72 1403.23C2941.02 1403.24 2944.5 1406.72 2944.5 1411.02Z" fill="#E8E8E8"/></g><g><path d="M3047.73 1411.02 3047.73 1436.11C3047.73 1440.41 3044.25 1443.9 3039.95 1443.9L3012.46 1443.9C3008.16 1443.9 3004.68 1440.41 3004.68 1436.11L3004.68 1411.02C3004.68 1406.72 3008.16 1403.23 3012.46 1403.23L3039.95 1403.23C3044.24 1403.24 3047.73 1406.72 3047.73 1411.02Z" fill="#E8E8E8"/></g></g><g><rect x="3189.43" y="892.99" width="191.54" height="23.52" fill="#1487E3"/><g><g><g><path d="M2982.55 1104.32C3019.19 1001.8 2986.12 891.28 2907.86 824.68 2889.21 808.79 2867.99 795.42 2844.54 785.23 2839.37 782.98 2834.07 780.89 2828.68 778.97 2774.53 759.59 2718.15 759.69 2667.2 775.65 2593.68 798.68 2531.45 854.74 2503.5 932.91 2494.28 958.72 2489.47 985.02 2488.69 1011.01 2485.47 1118.33 2550.87 1220.16 2657.36 1258.27 2789.64 1305.59 2935.23 1236.68 2982.55 1104.32ZM2678.79 1198.29C2598.95 1169.72 2549.9 1093.36 2552.33 1012.91 2552.92 993.43 2556.52 973.71 2563.44 954.36 2584.38 895.75 2631.04 853.73 2686.18 836.46 2724.38 824.5 2766.64 824.41 2807.24 838.94 2811.28 840.39 2815.25 841.96 2819.13 843.65 2836.72 851.28 2852.63 861.32 2866.61 873.22 2925.28 923.16 2950.07 1006.01 2922.6 1082.88 2887.12 1182.1 2777.97 1233.78 2678.79 1198.29Z" fill="#E8E8E8"/></g><g><path d="M2686.18 836.46 2667.2 775.65C2593.68 798.68 2531.45 854.74 2503.5 932.91 2494.28 958.72 2489.47 985.02 2488.69 1011.01L2552.33 1012.91C2552.92 993.43 2556.52 973.71 2563.44 954.36 2584.38 895.74 2631.04 853.72 2686.18 836.46Z" fill="#1173C2"/></g><g><path d="M2819.13 843.64 2844.54 785.23C2839.37 782.98 2834.07 780.89 2828.68 778.97 2774.53 759.59 2718.15 759.69 2667.2 775.65L2686.18 836.46C2724.38 824.5 2766.64 824.41 2807.24 838.94 2811.28 840.38 2815.25 841.96 2819.13 843.64Z" fill="#1487E3"/></g><g><path d="M2907.86 824.69C2889.21 808.8 2867.99 795.43 2844.54 785.24L2819.13 843.65C2836.72 851.28 2852.63 861.32 2866.61 873.22L2907.86 824.69Z" fill="#4AAFFF"/></g></g><g><path d="M3166.12 906.11 3022.52 906.11 3022.52 900.6 3163.84 900.6 3239.44 824.96 3332.03 824.96 3332.03 830.47 3241.72 830.47Z" fill="#4AAFFF"/></g><g><path d="M3302.2 1157.07 3117.42 1157.07 3057.54 1097.16 3061.43 1093.26 3119.7 1151.55 3302.2 1151.55Z" fill="#4AAFFF"/></g><rect x="3194.68" y="1101.24" width="154.19" height="23.52" fill="#1487E3"/></g></g><rect x="2488.69" y="1728.48" width="663.34" height="16.36" fill="#FFFFFF"/><rect x="2488.69" y="1768.26" width="328.09" height="16.36" fill="#FFFFFF"/><rect x="2488.69" y="1808.05" width="432.27" height="16.36" fill="#FFFFFF"/></g><rect x="559.14" y="1652.02" width="3060" height="226.09" fill="#A8DFFF"/><rect x="492.84" y="1594.04" width="3192.61" height="57.97" fill="#82D1FF"/><g><path d="M3739.83 1594.04 438.45 1594.04C408.04 1594.04 383.39 1569.39 383.39 1538.98L383.39 1538.95C383.39 1508.54 408.04 1483.89 438.45 1483.89L3739.83 1483.89C3770.24 1483.89 3794.89 1508.54 3794.89 1538.95L3794.89 1538.98C3794.89 1569.39 3770.24 1594.04 3739.83 1594.04Z" fill="#3B6075"/><path d="M3739.85 1601.53 438.44 1601.53C403.96 1601.53 375.91 1573.46 375.91 1538.97 375.91 1504.47 403.96 1476.41 438.44 1476.41L3739.85 1476.41C3774.33 1476.41 3802.38 1504.47 3802.38 1538.97 3802.38 1573.47 3774.33 1601.53 3739.85 1601.53ZM438.44 1491.39C412.22 1491.39 390.88 1512.74 390.88 1538.97 390.88 1565.21 412.22 1586.55 438.44 1586.55L3739.85 1586.55C3766.07 1586.55 3787.41 1565.2 3787.41 1538.97 3787.41 1512.73 3766.07 1491.39 3739.85 1491.39L438.44 1491.39Z" fill="#FCFCFC"/></g><path d="M2128.15 1538.97C2128.15 1560.53 2110.68 1578 2089.14 1578 2067.6 1578 2050.13 1560.52 2050.13 1538.97 2050.13 1517.42 2067.59 1499.94 2089.14 1499.94 2110.69 1499.94 2128.15 1517.42 2128.15 1538.97Z" fill="#BDE7FF"/><path d="M3763.47 1538.97C3763.47 1560.53 3746 1578 3724.46 1578 3702.92 1578 3685.45 1560.52 3685.45 1538.97 3685.45 1517.42 3702.92 1499.94 3724.46 1499.94 3746.01 1499.94 3763.47 1517.42 3763.47 1538.97Z" fill="#BDE7FF"/><ellipse cx="452.92" cy="1538.97" rx="39.01" ry="39.03" fill="#BDE7FF"/><g><path d="M1682.66 1414.69 1339.09 1414.69C1309.93 1414.69 1286.29 1391.05 1286.29 1361.89L1286.29 1018.08C1286.29 988.92 1309.93 965.28 1339.09 965.28L1682.66 965.28C1711.82 965.28 1735.46 988.92 1735.46 1018.08L1735.46 1361.89C1735.46 1391.05 1711.82 1414.69 1682.66 1414.69Z" fill="#59A6DE" opacity="0.74"/><g><g><rect x="1333.79" y="1087.38" width="1.8" height="230.89" fill="#2273B5"/></g><g><rect x="1421.28" y="1087.38" width="1.8" height="230.89" fill="#2273B5"/></g><g><rect x="1508.76" y="1087.38" width="1.8" height="230.89" fill="#2273B5"/></g><g><rect x="1596.25" y="1087.38" width="1.8" height="230.89" fill="#2273B5"/></g><g><rect x="1683.74" y="1087.38" width="1.8" height="230.89" fill="#2273B5"/></g></g><path d="M1334.69 1224.65C1334.69 1224.65 1367.12 1244.31 1401.57 1208.73 1436.02 1173.16 1473.18 1145.07 1508.31 1175.03 1543.44 1204.99 1565.06 1212.48 1600.19 1178.78 1635.32 1145.08 1632.62 1103.89 1685.54 1103.89L1685.54 1318.27 1334.7 1318.27 1334.7 1224.65Z" fill="#2273B5"/><rect x="1334.69" y="1068.14" width="34.69" height="8.4" fill="#2273B5"/><rect x="1422.18" y="1068.14" width="21.74" height="8.4" fill="#2273B5"/><rect x="1509.67" y="1068.14" width="26.79" height="8.4" fill="#2273B5"/><rect x="1597.15" y="1068.14" width="41.29" height="8.4" fill="#2273B5"/><rect x="1684.64" y="1068.14" width="14.4" height="8.4" fill="#2273B5"/><rect x="1335.59" y="1350.36" width="173.17" height="20.23" fill="#2273B5"/></g><g><linearGradient x1="3586.1" y1="402.914" x2="3768.02" y2="402.914" gradientUnits="userSpaceOnUse" id="SVGID_7_"><stop offset="0" stop-color="#D5E4FF"/><stop offset="1" stop-color="#EDFFFE"/></linearGradient><linearGradient x1="3612.94" y1="444.144" x2="3768.02" y2="444.144" gradientUnits="userSpaceOnUse" id="SVGID_8_"><stop offset="0" stop-color="#D5E4FF"/><stop offset="1" stop-color="#EDFFFE"/></linearGradient><linearGradient x1="3518.65" y1="485.376" x2="3768.02" y2="485.376" gradientUnits="userSpaceOnUse" id="SVGID_9_"><stop offset="0" stop-color="#D5E4FF"/><stop offset="1" stop-color="#EDFFFE"/></linearGradient><g opacity="0.74"><path d="M4120.89 1404.02 3505.07 1404.02C3476.71 1404.02 3453.71 1381.03 3453.71 1352.66L3453.71 620.41C3453.71 592.05 3476.7 569.06 3505.07 569.06L4120.89 569.06C4149.25 569.06 4172.24 592.05 4172.24 620.41L4172.24 1352.67C4172.25 1381.03 4149.25 1404.02 4120.89 1404.02Z" fill="#1E6AA1"/></g><path d="M3961.97 540.13 3499.02 540.13C3482.98 540.13 3469.97 527.12 3469.97 511.08L3469.97 371.46C3469.97 355.42 3482.98 342.41 3499.02 342.41L3961.97 342.41C3978.01 342.41 3991.02 355.42 3991.02 371.46L3991.02 511.09C3991.02 527.13 3978.01 540.13 3961.97 540.13Z" fill="#1C6396" opacity="0.74"/><g><g><g><linearGradient x1="3533.35" y1="977.248" x2="3900.69" y2="977.248" gradientUnits="userSpaceOnUse" id="SVGID_1_"><stop offset="0" stop-color="#D5E4FF"/><stop offset="1" stop-color="#EDFFFE"/></linearGradient><path d="M3889.92 915.38C3862.43 838.47 3788.96 791.23 3711.54 793.56 3692.79 794.12 3673.82 797.59 3655.2 804.26 3598.8 824.44 3558.36 869.39 3541.75 922.49 3530.24 959.29 3530.16 1000.01 3544.14 1039.12 3545.53 1043.01 3547.04 1046.84 3548.66 1050.57 3556.02 1067.51 3565.66 1082.83 3577.12 1096.3 3625.17 1152.82 3704.9 1176.71 3778.87 1150.24 3874.35 1116.07 3924.07 1010.92 3889.92 915.38ZM3763.38 1106.94C3707.92 1126.79 3648.15 1108.87 3612.12 1066.51 3603.53 1056.41 3596.29 1044.92 3590.79 1032.22 3589.57 1029.42 3588.44 1026.55 3587.39 1023.63 3576.91 994.31 3576.97 963.78 3585.6 936.2 3598.06 896.38 3628.37 862.68 3670.66 847.56 3684.62 842.56 3698.85 839.97 3712.9 839.54 3770.94 837.79 3826.03 873.21 3846.65 930.87 3872.25 1002.49 3834.98 1081.32 3763.38 1106.94Z" fill="url(#SVGID_1_)"/></g></g><g><g><path d="M3585.61 936.19 3541.74 922.48C3558.35 869.38 3598.8 824.43 3655.19 804.25 3673.81 797.59 3692.79 794.12 3711.53 793.55L3712.9 839.52C3698.85 839.95 3684.62 842.55 3670.66 847.54 3628.38 862.67 3598.06 896.38 3585.61 936.19Z" fill="#1A598C"/></g></g><g><g><path d="M3590.79 1032.21 3548.65 1050.56C3547.03 1046.82 3545.52 1043 3544.13 1039.11 3530.15 1000 3530.22 959.28 3541.74 922.48L3585.61 936.19C3576.98 963.78 3576.92 994.3 3587.4 1023.62 3588.44 1026.54 3589.58 1029.41 3590.79 1032.21Z" fill="#2273B5"/></g></g><g><g><path d="M3577.11 1096.3C3565.65 1082.83 3556 1067.51 3548.65 1050.57L3590.79 1032.22C3596.3 1044.92 3603.54 1056.41 3612.12 1066.51L3577.11 1096.3Z" fill="#3788CC"/></g></g></g><g><g><g><linearGradient x1="3940.67" y1="1096.3" x2="4092.61" y2="1096.3" gradientUnits="userSpaceOnUse" id="SVGID_2_"><stop offset="0" stop-color="#D5E4FF"/><stop offset="1" stop-color="#EDFFFE"/></linearGradient><path d="M4049.12 1027.6C4018.59 1013.15 3983.3 1020.83 3961.33 1044.17 3956.01 1049.82 3951.48 1056.39 3947.98 1063.79 3937.39 1086.2 3938.7 1111.18 3949.36 1131.58 3956.75 1145.71 3968.63 1157.64 3984.16 1164.99 3985.7 1165.72 3987.26 1166.4 3988.83 1167.02 3995.93 1169.82 4003.24 1171.48 4010.53 1172.07 4041.11 1174.54 4071.41 1158.19 4085.31 1128.81 4103.24 1090.86 4087.04 1045.56 4049.12 1027.6ZM4068.12 1120.67C4057.7 1142.7 4034.98 1154.96 4012.06 1153.11 4006.6 1152.67 4001.12 1151.43 3995.79 1149.32 3994.62 1148.86 3993.45 1148.35 3992.29 1147.8 3980.65 1142.29 3971.75 1133.34 3966.2 1122.75 3958.2 1107.46 3957.22 1088.73 3965.17 1071.93 3967.79 1066.38 3971.2 1061.46 3975.18 1057.22 3991.65 1039.72 4018.11 1033.96 4041 1044.79 4069.42 1058.25 4081.56 1092.22 4068.12 1120.67Z" fill="url(#SVGID_2_)"/></g></g><g><g><path d="M3966.2 1122.75 3949.36 1131.58C3938.7 1111.19 3937.39 1086.2 3947.98 1063.79 3951.48 1056.39 3956.02 1049.82 3961.33 1044.17L3975.17 1057.21C3971.19 1061.45 3967.78 1066.37 3965.16 1071.92 3957.22 1088.73 3958.2 1107.46 3966.2 1122.75Z" fill="#1A598C"/></g></g><g><g><path d="M3995.79 1149.32 3988.83 1167.02C3987.26 1166.4 3985.7 1165.73 3984.16 1164.99 3968.64 1157.64 3956.76 1145.71 3949.36 1131.58L3966.2 1122.75C3971.74 1133.35 3980.65 1142.29 3992.29 1147.8 3993.44 1148.35 3994.61 1148.85 3995.79 1149.32Z" fill="#2273B5"/></g></g></g><g><g><g><linearGradient x1="3940.67" y1="864.875" x2="4092.61" y2="864.875" gradientUnits="userSpaceOnUse" id="SVGID_3_"><stop offset="0" stop-color="#D5E4FF"/><stop offset="1" stop-color="#EDFFFE"/></linearGradient><path d="M4085.3 897.38C4099.74 866.84 4092.06 831.52 4068.74 809.54 4063.09 804.22 4056.53 799.68 4049.13 796.18 4026.73 785.58 4001.76 786.89 3981.38 797.56 3967.25 804.95 3955.33 816.84 3947.98 832.37 3947.25 833.91 3946.57 835.48 3945.95 837.04 3943.15 844.15 3941.49 851.45 3940.91 858.75 3938.44 889.34 3954.78 919.66 3984.15 933.57 4022.07 951.52 4067.36 935.32 4085.3 897.38ZM3992.29 916.38C3970.27 905.96 3958.02 883.22 3959.87 860.29 3960.31 854.82 3961.55 849.34 3963.65 844.02 3964.11 842.84 3964.62 841.67 3965.17 840.51 3970.68 828.87 3979.62 819.96 3990.21 814.41 4005.49 806.41 4024.21 805.42 4041 813.37 4046.54 815.99 4051.46 819.4 4055.7 823.38 4073.19 839.85 4078.95 866.34 4068.12 889.24 4054.67 917.69 4020.71 929.84 3992.29 916.38Z" fill="url(#SVGID_3_)"/></g></g><g><g><path d="M3990.2 814.41 3981.37 797.56C4001.75 786.89 4026.72 785.58 4049.12 796.18 4056.51 799.68 4063.08 804.22 4068.73 809.54L4055.69 823.39C4051.45 819.4 4046.53 816 4040.99 813.38 4024.21 805.42 4005.49 806.4 3990.2 814.41Z" fill="#4AAFFF"/></g></g><g><g><path d="M3963.65 844.01 3945.96 837.05C3946.58 835.48 3947.26 833.92 3947.99 832.38 3955.33 816.85 3967.26 804.96 3981.39 797.57L3990.22 814.42C3979.63 819.96 3970.69 828.87 3965.18 840.52 3964.62 841.66 3964.11 842.83 3963.65 844.01Z" fill="#2273B5"/></g></g><g><g><path d="M3940.91 858.75C3941.5 851.45 3943.15 844.15 3945.95 837.04L3963.64 844C3961.54 849.33 3960.3 854.81 3959.86 860.27L3940.91 858.75Z" fill="#3788CC"/></g></g></g><g><path d="M3993.3 1222.16 3851.47 1222.16 3851.47 1219.34 3990.49 1219.34 3990.49 1165.72 3993.3 1165.72Z" fill="#E2F3FE"/></g><g><path d="M3726.21 1222.16 3541.74 1222.16 3541.74 1219.34 3723.39 1219.34 3723.39 1131.58 3726.21 1131.58Z" fill="#E2F3FE"/></g><g><linearGradient x1="3541.74" y1="1198.44" x2="3668.67" y2="1198.44" gradientUnits="userSpaceOnUse" id="SVGID_4_"><stop offset="0" stop-color="#D5E4FF"/><stop offset="1" stop-color="#EDFFFE"/></linearGradient><rect x="3541.74" y="1189.98" width="126.93" height="16.92" fill="url(#SVGID_4_)"/></g><g><linearGradient x1="3851.47" y1="1198.44" x2="3926.13" y2="1198.44" gradientUnits="userSpaceOnUse" id="SVGID_5_"><stop offset="0" stop-color="#D5E4FF"/><stop offset="1" stop-color="#EDFFFE"/></linearGradient><rect x="3851.47" y="1189.98" width="74.66" height="16.92" fill="url(#SVGID_5_)"/></g><g><linearGradient x1="3816.73" y1="444.145" x2="3938.5" y2="444.145" gradientUnits="userSpaceOnUse" id="SVGID_6_"><stop offset="0" stop-color="#D5E4FF"/><stop offset="1" stop-color="#EDFFFE"/></linearGradient><path d="M3877.62 505.06C3844.05 505.06 3816.74 477.73 3816.74 444.14 3816.74 410.55 3844.05 383.22 3877.62 383.22 3911.19 383.22 3938.5 410.55 3938.5 444.14 3938.5 477.73 3911.19 505.06 3877.62 505.06ZM3877.62 385.23C3845.15 385.23 3818.74 411.66 3818.74 444.15 3818.74 476.64 3845.15 503.07 3877.62 503.07 3910.09 503.07 3936.5 476.64 3936.5 444.15 3936.5 411.66 3910.09 385.23 3877.62 385.23Z" fill="url(#SVGID_6_)"/></g><rect x="3586.1" y="394.91" width="181.92" height="16" fill="url(#SVGID_7_)"/><rect x="3612.94" y="436.14" width="155.08" height="16" fill="url(#SVGID_8_)"/><rect x="3518.65" y="477.38" width="249.37" height="16" fill="url(#SVGID_9_)"/><g><linearGradient x1="3512.98" y1="647.221" x2="3573.73" y2="647.221" gradientUnits="userSpaceOnUse" id="SVGID_10_"><stop offset="0" stop-color="#D5E4FF"/><stop offset="1" stop-color="#EDFFFE"/></linearGradient><rect x="3512.98" y="640.73" width="60.75" height="12.99" fill="url(#SVGID_10_)"/></g><g><linearGradient x1="3766.24" y1="696.127" x2="3860.49" y2="696.127" gradientUnits="userSpaceOnUse" id="SVGID_11_"><stop offset="0" stop-color="#D5E4FF"/><stop offset="1" stop-color="#EDFFFE"/></linearGradient><rect x="3766.24" y="689.63" width="94.25" height="12.99" fill="url(#SVGID_11_)"/></g><g><linearGradient x1="3644.36" y1="696.127" x2="3701.9" y2="696.127" gradientUnits="userSpaceOnUse" id="SVGID_12_"><stop offset="0" stop-color="#D5E4FF"/><stop offset="1" stop-color="#EDFFFE"/></linearGradient><rect x="3644.36" y="689.63" width="57.54" height="12.99" fill="url(#SVGID_12_)"/></g><g><linearGradient x1="3512.98" y1="696.127" x2="3626.98" y2="696.127" gradientUnits="userSpaceOnUse" id="SVGID_13_"><stop offset="0" stop-color="#D5E4FF"/><stop offset="1" stop-color="#EDFFFE"/></linearGradient><rect x="3512.98" y="689.63" width="114" height="12.99" fill="url(#SVGID_13_)"/></g><g><linearGradient x1="3592.22" y1="647.221" x2="3682.24" y2="647.221" gradientUnits="userSpaceOnUse" id="SVGID_14_"><stop offset="0" stop-color="#D5E4FF"/><stop offset="1" stop-color="#EDFFFE"/></linearGradient><rect x="3592.22" y="640.73" width="90.01" height="12.99" fill="url(#SVGID_14_)"/></g><g><linearGradient x1="3719.91" y1="696.127" x2="3744.64" y2="696.127" gradientUnits="userSpaceOnUse" id="SVGID_15_"><stop offset="0" stop-color="#D5E4FF"/><stop offset="1" stop-color="#EDFFFE"/></linearGradient><rect x="3719.91" y="689.63" width="24.72" height="12.99" fill="url(#SVGID_15_)"/></g><g><linearGradient x1="3793.24" y1="647.942" x2="3860.49" y2="647.942" gradientUnits="userSpaceOnUse" id="SVGID_16_"><stop offset="0" stop-color="#D5E4FF"/><stop offset="1" stop-color="#EDFFFE"/></linearGradient><rect x="3793.24" y="641.45" width="67.24" height="12.99" fill="url(#SVGID_16_)"/></g><g><linearGradient x1="3884.47" y1="696.127" x2="3941.81" y2="696.127" gradientUnits="userSpaceOnUse" id="SVGID_17_"><stop offset="0" stop-color="#D5E4FF"/><stop offset="1" stop-color="#EDFFFE"/></linearGradient><rect x="3884.47" y="689.63" width="57.34" height="12.99" fill="url(#SVGID_17_)"/></g><g><linearGradient x1="3704.37" y1="647.942" x2="3775.65" y2="647.942" gradientUnits="userSpaceOnUse" id="SVGID_18_"><stop offset="0" stop-color="#D5E4FF"/><stop offset="1" stop-color="#EDFFFE"/></linearGradient><rect x="3704.37" y="641.45" width="71.28" height="12.99" fill="url(#SVGID_18_)"/></g></g><path d="M3619.14 1652.02 1410.5 1875.27 559.14 1878.1 559.14 1652.02Z" fill="#2788CF" opacity="0.72"/><rect x="766.08" y="806.67" width="369.79" height="1071.44" fill="#FCFCFC"/><rect x="737.73" y="1808.05" width="426.48" height="70.05" fill="#8CC7F2"/><g><g opacity="0.74"><path d="M1160.78 1713.92 741.17 1713.92C716.97 1713.92 697.34 1694.3 697.34 1670.09L697.34 896.42C697.34 872.22 716.96 852.59 741.17 852.59L1160.78 852.59C1184.98 852.59 1204.61 872.21 1204.61 896.41L1204.61 1670.08C1204.6 1694.3 1184.98 1713.92 1160.78 1713.92Z" fill="#125D94"/></g><g><g><rect x="732.68" y="1366.36" width="2.22" height="284.73" fill="#DBF2FC"/></g><g><rect x="840.56" y="1366.36" width="2.22" height="284.73" fill="#DBF2FC"/></g><g><rect x="948.45" y="1366.36" width="2.22" height="284.73" fill="#DBF2FC"/></g><g><rect x="1056.33" y="1366.36" width="2.22" height="284.73" fill="#DBF2FC"/></g><g><rect x="1164.21" y="1366.36" width="2.22" height="284.73" fill="#DBF2FC"/></g></g><path d="M733.79 1535.63C733.79 1535.63 777.75 1572.67 820.24 1528.8 862.73 1484.93 911.74 1470.27 955.06 1507.21 998.38 1544.15 1015.24 1493.46 1058.56 1451.89 1101.88 1410.33 1101.19 1386.7 1165.34 1386.7L1165.34 1651.07 733.79 1651.07 733.79 1535.63Z" fill="#DBF2FC"/><rect x="733.79" y="1342.64" width="42.77" height="10.36" fill="#DBF2FC"/><rect x="841.67" y="1342.64" width="26.81" height="10.36" fill="#DBF2FC"/><rect x="949.55" y="1342.64" width="33.04" height="10.36" fill="#DBF2FC"/><rect x="1056.33" y="1342.64" width="33.04" height="10.36" fill="#DBF2FC"/><rect x="1002.2" y="1155.43" width="144.26" height="18.26" fill="#DBF2FC"/><rect x="1002.2" y="1231.95" width="132.42" height="18.26" fill="#DBF2FC"/><rect x="1002.2" y="1193.69" width="114.58" height="18.26" fill="#DBF2FC"/><path d="M872.86 1129.37C872.86 1143.31 861.57 1154.61 847.64 1154.61 833.71 1154.61 822.42 1143.31 822.42 1129.37 822.42 1115.43 833.71 1104.13 847.64 1104.13 861.57 1104.13 872.86 1115.43 872.86 1129.37Z" fill="#2273B5"/><path d="M893.14 1211.64 893.14 1259.63C879.21 1265.97 863.72 1269.5 847.42 1269.5 831.12 1269.5 815.63 1265.97 801.7 1259.63L801.7 1211.64C801.7 1186.38 822.16 1165.89 847.42 1165.89 872.67 1165.9 893.14 1186.39 893.14 1211.64Z" fill="#2273B5"/><g><path d="M847.42 1272.5C831.03 1272.5 815.23 1269.09 800.46 1262.37 759.96 1243.95 733.79 1203.31 733.79 1158.81 733.79 1096.12 784.76 1045.12 847.42 1045.12 910.08 1045.12 961.05 1096.12 961.05 1158.81 961.05 1203.3 934.88 1243.95 894.38 1262.37 879.6 1269.09 863.8 1272.5 847.42 1272.5ZM847.42 1051.12C788.07 1051.12 739.79 1099.43 739.79 1158.81 739.79 1200.95 764.58 1239.46 802.94 1256.9 816.93 1263.27 831.9 1266.5 847.42 1266.5 862.95 1266.5 877.91 1263.27 891.9 1256.91 930.26 1239.46 955.05 1200.96 955.05 1158.82 955.05 1099.43 906.76 1051.12 847.42 1051.12Z" fill="#2273B5"/></g><g><path d="M1072.85 1109.11C1035.92 1109.11 1005.87 1079.05 1005.87 1042.09 1005.87 1005.14 1035.92 975.07 1072.85 975.07 1109.78 975.07 1139.83 1005.13 1139.83 1042.09 1139.83 1079.04 1109.78 1109.11 1072.85 1109.11ZM1072.85 985.49C1041.66 985.49 1016.28 1010.88 1016.28 1042.09 1016.28 1073.3 1041.66 1098.69 1072.85 1098.69 1104.04 1098.69 1129.42 1073.3 1129.42 1042.09 1129.42 1010.88 1104.04 985.49 1072.85 985.49Z" fill="#DBF2FC"/></g><rect x="842.27" y="905.19" width="103.44" height="16.51" fill="#DBF2FC"/><rect x="857.53" y="947.72" width="88.18" height="16.5" fill="#DBF2FC"/><rect x="803.91" y="990.25" width="141.79" height="16.5" fill="#DBF2FC"/></g><g><g><g><rect x="197.04" y="1044.44" width="13.81" height="335.01" fill="#1B8CDE" opacity="0.74"/></g><g><rect x="260.49" y="1044.44" width="13.81" height="335.01" fill="#1B8CDE" opacity="0.74"/></g><g><rect x="323.93" y="1044.44" width="13.81" height="335.01" fill="#1B8CDE" opacity="0.74"/></g><g><rect x="387.38" y="1044.44" width="13.81" height="335.01" fill="#1B8CDE" opacity="0.74"/></g><g><rect x="450.83" y="1044.44" width="13.81" height="335.01" fill="#1B8CDE" opacity="0.74"/></g><g><rect x="514.27" y="1044.44" width="13.81" height="335.01" fill="#1B8CDE" opacity="0.74"/></g><g><rect x="577.72" y="1044.44" width="13.81" height="335.01" fill="#1B8CDE" opacity="0.74"/></g></g><g><g><linearGradient x1="203.946" y1="1489.67" x2="203.946" y2="1267.16" gradientUnits="userSpaceOnUse" id="SVGID_19_"><stop offset="0" stop-color="#D5E4FF"/><stop offset="1" stop-color="#EDFFFE"/></linearGradient><rect x="197.04" y="1144.6" width="13.81" height="234.85" fill="url(#SVGID_19_)"/></g><g><linearGradient x1="267.392" y1="1489.67" x2="267.392" y2="1267.16" gradientUnits="userSpaceOnUse" id="SVGID_20_"><stop offset="0" stop-color="#D5E4FF"/><stop offset="1" stop-color="#EDFFFE"/></linearGradient><rect x="260.49" y="1225.76" width="13.81" height="153.69" fill="url(#SVGID_20_)"/></g><g><linearGradient x1="330.837" y1="1489.67" x2="330.837" y2="1267.16" gradientUnits="userSpaceOnUse" id="SVGID_21_"><stop offset="0" stop-color="#D5E4FF"/><stop offset="1" stop-color="#EDFFFE"/></linearGradient><rect x="323.93" y="1092.79" width="13.81" height="286.65" fill="url(#SVGID_21_)"/></g><g><linearGradient x1="394.283" y1="1489.67" x2="394.283" y2="1267.16" gradientUnits="userSpaceOnUse" id="SVGID_22_"><stop offset="0" stop-color="#D5E4FF"/><stop offset="1" stop-color="#EDFFFE"/></linearGradient><rect x="387.38" y="1295.99" width="13.81" height="83.46" fill="url(#SVGID_22_)"/></g><g><linearGradient x1="457.728" y1="1489.67" x2="457.728" y2="1267.16" gradientUnits="userSpaceOnUse" id="SVGID_23_"><stop offset="0" stop-color="#D5E4FF"/><stop offset="1" stop-color="#EDFFFE"/></linearGradient><rect x="450.83" y="1211.95" width="13.81" height="167.5" fill="url(#SVGID_23_)"/></g><g><linearGradient x1="521.174" y1="1489.67" x2="521.174" y2="1267.16" gradientUnits="userSpaceOnUse" id="SVGID_24_"><stop offset="0" stop-color="#D5E4FF"/><stop offset="1" stop-color="#EDFFFE"/></linearGradient><rect x="514.27" y="1149.21" width="13.81" height="230.24" fill="url(#SVGID_24_)"/></g><g><linearGradient x1="584.62" y1="1489.67" x2="584.62" y2="1267.16" gradientUnits="userSpaceOnUse" id="SVGID_25_"><stop offset="0" stop-color="#D5E4FF"/><stop offset="1" stop-color="#EDFFFE"/></linearGradient><rect x="577.72" y="1230.94" width="13.81" height="148.51" fill="url(#SVGID_25_)"/></g></g></g><g><rect x="1359.25" y="1173.68" width="301.88" height="302.04" fill="#C29472"/><rect x="1475.1" y="1173.68" width="70.18" height="35.11" fill="#FFE0C9"/></g><g><rect x="1889.02" y="1173.68" width="301.88" height="302.04" fill="#C29472"/><rect x="2004.87" y="1173.68" width="70.18" height="35.11" fill="#FFE0C9"/></g><g><rect x="2418.79" y="1173.68" width="301.88" height="302.04" fill="#C29472"/><rect x="2534.64" y="1173.68" width="70.18" height="35.11" fill="#FFE0C9"/></g><g><rect x="2948.56" y="1173.68" width="301.88" height="302.04" fill="#C29472"/><rect x="3064.42" y="1173.68" width="70.18" height="35.11" fill="#FFE0C9"/></g><rect x="1193.67" y="292.43" width="126.18" height="188.08" fill="#DAF1FE"/><rect x="1467.15" y="865.68" width="182" height="26.19" fill="#385369" transform="matrix(6.12323e-17 -1 1 6.12323e-17 679.37 2436.93)"/><rect x="1376.16" y="865.68" width="182" height="26.19" fill="#385369" transform="matrix(6.12323e-17 -1 1 6.12323e-17 588.376 2345.94)"/><rect x="1303.64" y="410.75" width="126.22" height="307.39" fill="#DAF1FE" transform="matrix(0.618 -0.7862 0.7862 0.618 78.3665 1290.16)"/><ellipse cx="1256.76" cy="480.51" rx="77.9" ry="77.94" fill="#385369"/><ellipse cx="1256.76" cy="480.51" rx="56.41" ry="56.44" fill="#ABC6DB"/><path d="M1400.97 318.2 1112.56 318.2 1112.56 313.67C1112.56 279.88 1139.95 252.5 1173.73 252.5L1339.79 252.5C1373.58 252.5 1400.97 279.89 1400.97 313.67L1400.97 318.2Z" fill="#87D0FA"/><rect x="1447.78" y="669.5" width="126.18" height="188.08" fill="#DAF1FE"/><rect x="1419.92" y="820.27" width="181.9" height="52.36" fill="#DAF1FE"/><rect x="1419.92" y="900.03" width="181.9" height="52.36" fill="#DAF1FE"/><ellipse cx="1508.76" cy="671.18" rx="77.9" ry="77.94" fill="#385369"/><path d="M1565.18 671.18C1565.18 702.35 1539.92 727.62 1508.77 727.62 1477.62 727.62 1452.36 702.35 1452.36 671.18 1452.36 640.01 1477.62 614.74 1508.77 614.74 1539.92 614.74 1565.18 640.01 1565.18 671.18Z" fill="#ABC6DB"/><path d="M1582.43 979.23 1661.2 1028.5 1690.97 1089.85 1674.56 1185.51 1661.2 1191.24 1649.45 1095.65 1617.52 1044.44 1570.25 1022.22 1570.25 979.23Z" fill="#DAF1FE"/><path d="M1437.95 979.23 1359.19 1028.5 1329.41 1089.85 1345.83 1185.51 1359.19 1191.24 1370.94 1095.65 1402.86 1044.44 1450.14 1022.22 1450.14 979.23Z" fill="#DAF1FE"/><rect x="1432.63" y="964.23" width="154.06" height="42.53" fill="#DAF1FE"/><path d="M1598.05 993.72C1598.05 1003.73 1589.94 1011.84 1579.94 1011.84 1569.94 1011.84 1561.83 1003.73 1561.83 993.72 1561.83 983.71 1569.94 975.6 1579.94 975.6 1589.94 975.6 1598.05 983.71 1598.05 993.72Z" fill="#ABC6DB"/><ellipse cx="1579.94" cy="993.72" rx="12.81" ry="12.81" fill="#385369" transform="matrix(1 -0.001831 0.001831 1 -1.8169 2.8945)"/><path d="M1462.03 993.72C1462.03 1003.73 1453.92 1011.84 1443.92 1011.84 1433.92 1011.84 1425.81 1003.73 1425.81 993.72 1425.81 983.71 1433.92 975.6 1443.92 975.6 1453.92 975.6 1462.03 983.71 1462.03 993.72Z" fill="#ABC6DB"/><ellipse cx="1443.92" cy="993.72" rx="12.81" ry="12.81" fill="#385369" transform="matrix(1 -0.001831 0.001831 1 -1.8171 2.6455)"/><rect x="621.27" y="318.2" width="495.5" height="203.54" fill="#AEE2FE"/><rect x="621.27" y="585.4" width="495.5" height="50.35" fill="#AEE2FE"/><rect x="348.01" y="252.17" width="346.32" height="35.18" fill="#AEE2FE" transform="matrix(0.8659 0.5002 -0.5002 0.8659 204.821 -224.519)"/><rect x="112.38" y="274.84" width="346.41" height="35.17" fill="#AEE2FE" transform="matrix(-0.4998 0.8661 -0.8661 -0.4998 681.603 191.233)"/><rect x="538.56" y="474.73" width="234.83" height="14.18" fill="#4689B0" transform="matrix(-0.4998 0.8661 -0.8661 -0.4998 1401.15 154.465)"/><rect x="413.41" y="318.2" width="187.54" height="383.9" fill="#2379B8"/><rect x="672.88" y="285.35" width="363.29" height="184.22" fill="#87D0FA"/><path d="M552.8 476.7 463.16 476.7C455.91 476.7 450.04 470.83 450.04 463.58L450.04 458.16C450.04 450.92 455.91 445.04 463.16 445.04L552.8 445.04C560.05 445.04 565.92 450.91 565.92 458.16L565.92 463.58C565.92 470.83 560.05 476.7 552.8 476.7Z" fill="#1A5E8F"/><path d="M552.8 529.24 463.16 529.24C455.91 529.24 450.04 523.37 450.04 516.12L450.04 510.7C450.04 503.46 455.91 497.58 463.16 497.58L552.8 497.58C560.05 497.58 565.92 503.45 565.92 510.7L565.92 516.12C565.92 523.37 560.05 529.24 552.8 529.24Z" fill="#1A5E8F"/><path d="M552.8 581.79 463.16 581.79C455.91 581.79 450.04 575.92 450.04 568.67L450.04 563.25C450.04 556 455.91 550.13 463.16 550.13L552.8 550.13C560.05 550.13 565.92 556 565.92 563.25L565.92 568.67C565.92 575.91 560.05 581.79 552.8 581.79Z" fill="#1A5E8F"/><path d="M552.8 634.33 463.16 634.33C455.91 634.33 450.04 628.46 450.04 621.21L450.04 615.79C450.04 608.54 455.91 602.67 463.16 602.67L552.8 602.67C560.05 602.67 565.92 608.54 565.92 615.79L565.92 621.21C565.92 628.46 560.05 634.33 552.8 634.33Z" fill="#1A5E8F"/><ellipse cx="354.83" cy="189.02" rx="63.45" ry="63.48" fill="#4689B0"/><ellipse cx="354.83" cy="189.02" rx="39.27" ry="39.29" fill="#385369"/><rect x="558.53" y="490.76" width="234.83" height="14.18" fill="#4689B0" transform="matrix(-0.4998 0.8661 -0.8661 -0.4998 1444.99 161.214)"/><g><ellipse cx="629.82" cy="349.11" rx="131.4" ry="131.33" fill="#385369" transform="matrix(0.00177762 -1 1 0.00177762 279.586 978.31)"/><path d="M722.43 349.11C722.43 400.28 680.97 441.77 629.82 441.77 578.67 441.77 537.21 400.28 537.21 349.11 537.21 297.94 578.67 256.45 629.82 256.45 680.96 256.46 722.43 297.94 722.43 349.11Z" fill="#509BC7"/></g><path d="M222.36 535.7 45.7 535.7C20.83 535.7 0.67 515.54 0.67 490.67L0.67 431.06C0.67 406.19 20.83 386.03 45.7 386.03L222.36 386.03C247.23 386.03 267.39 406.19 267.39 431.06L267.39 490.67C267.39 515.54 247.23 535.7 222.36 535.7Z" fill="#87D0FA"/><g><path d="M207.84 622.47C155.58 622.47 116.03 608.57 90.08 581.04 50.9 539.46 57.36 482.51 57.66 480.11L64.23 480.91C64.17 481.47 57.89 537.27 94.95 576.54 122.75 606.01 167.46 619.01 227.8 615.19 300.34 610.6 357.43 587.17 407.79 566.49 485.96 534.41 547.7 509.07 623.38 572L619.15 577.1C546.54 516.72 486.42 541.39 410.31 572.63 359.47 593.5 301.85 617.15 228.22 621.81 221.22 622.25 214.43 622.47 207.84 622.47Z" fill="#385369"/></g><g><path d="M340.86 664.18C115.42 664.18 88.19 471.92 87.94 469.98L94.51 469.14C94.75 471.02 121.37 657.55 340.86 657.55 466.91 657.55 505.81 631.94 537.07 611.36 561.1 595.54 580.09 583.05 629.55 589.95L628.63 596.51C581.64 589.95 564.46 601.25 540.71 616.89 510.4 636.86 468.89 664.18 340.86 664.18Z" fill="#385369"/></g><rect x="22.18" y="450.13" width="181.77" height="53.14" fill="#2379B8"/><rect x="901.62" y="377.46" width="80.98" height="233.12" fill="#87D0FA"/><rect x="800.07" y="377.46" width="80.98" height="233.12" fill="#87D0FA"/><path d="M959.17 424.07 831.79 424.07C814.28 424.07 800.08 409.87 800.08 392.36L800.08 380.83C800.08 363.31 814.28 349.12 831.79 349.12L959.17 349.12C976.68 349.12 990.88 363.32 990.88 380.83L990.88 392.36C990.88 409.88 976.68 424.07 959.17 424.07Z" fill="#AEE2FE"/><g><path d="M661.43 574.56C661.43 596.75 643.45 614.74 621.27 614.74 599.09 614.74 581.11 596.75 581.11 574.56 581.11 552.37 599.09 534.38 621.27 534.38 643.45 534.37 661.43 552.36 661.43 574.56Z" fill="#385369"/><path d="M647.03 574.56C647.03 588.8 635.5 600.34 621.27 600.34 607.04 600.34 595.51 588.8 595.51 574.56 595.51 560.32 607.04 548.78 621.27 548.78 635.5 548.78 647.03 560.32 647.03 574.56Z" fill="#509BC7"/></g><g><g><path d="M435.44 907.36C435.44 907.36 435.85 910.21 436.56 914.59 437.08 917.82 437.76 921.88 438.56 926.27 440.73 938.15 443.76 952.34 446.75 958.44 452.35 969.83 387.01 932.92 387.01 932.92 387.01 932.92 380.89 892.37 366.93 848.7 352.96 805.03 435.44 907.36 435.44 907.36Z" fill="#8E4F3A"/></g><g><rect x="518.5" y="1061.32" width="281.24" height="281.36" fill="#C99A76" transform="matrix(0.9539 -0.3002 0.3002 0.9539 -330.412 253.28)"/></g><g><rect x="541.68" y="1084.51" width="234.88" height="234.99" fill="#F2B98F" transform="matrix(0.9539 -0.3002 0.3002 0.9539 -330.409 253.277)"/></g><g><rect x="487.46" y="913.91" width="164.67" height="164.74" fill="#C99A76" transform="matrix(0.9539 -0.3002 0.3002 0.9539 -272.775 216.974)"/></g><g><rect x="501.03" y="927.49" width="137.53" height="137.59" fill="#F2B98F" transform="matrix(0.9539 -0.3002 0.3002 0.9539 -272.783 216.982)"/></g><g><g><g><g><g><path d="M799.1 1189.76C799.1 1189.76 793.87 1191.93 791.29 1191.77 791.29 1191.77 786.67 1191.08 783.33 1190.81 782.27 1190.73 781.34 1190.68 780.73 1190.72 778.17 1190.87 772.5 1192 766.49 1190.55 760.49 1189.1 737.06 1175.59 737.06 1175.59L742.21 1159.12 745.01 1143.27C745.01 1143.27 783.47 1130.18 789.3 1130.83 789.87 1130.9 790.43 1130.98 790.94 1131.11 795.76 1132.17 798.64 1135.16 801.07 1136.03 801.96 1136.35 810.51 1140.25 811.01 1143.19 811.71 1147.28 810.56 1150.64 808.52 1152.92 808.52 1152.92 809.54 1161.04 806.68 1166.2 806.68 1166.2 807.86 1173.62 802.68 1179.22 802.67 1179.21 803.04 1187 799.1 1189.76Z" fill="#8E4F3A"/></g></g></g></g></g><path d="M177.1 1763.82C177.1 1763.82 196.33 1778.02 204.39 1783.78 212.45 1789.54 220.4 1786.28 217.58 1792.51 214.77 1798.74 209.92 1824.08 213.41 1833.99 216.9 1843.91 243.15 1906.15 230.93 1915.18 218.72 1924.21 197.93 1900.45 173.01 1864.17 148.12 1827.93 137.88 1832.92 128.96 1804.03 126.18 1795.03 177.1 1763.82 177.1 1763.82Z" fill="#385369"/><path d="M687.37 1860.58C687.37 1860.58 710 1850.79 719.29 1846.6 728.58 1842.42 729.79 1833.67 733.86 1839.39 737.93 1845.11 757.92 1862.52 768.53 1864.55 779.14 1866.58 847.97 1875.43 849.68 1890.96 851.38 1906.49 819.53 1912.68 774.44 1916.06 729.39 1919.44 728.53 1931.12 698.27 1924.11 688.83 1921.93 687.37 1860.58 687.37 1860.58Z" fill="#385369"/><path d="M682.16 1846.48 688.38 1863.33 729.43 1844.88 723.67 1828.47Z" fill="#EEA886"/><path d="M188.85 1750.4 177.1 1763.82 212.66 1790.92 224.24 1778.11Z" fill="#EEA886"/><path d="M547.08 1382.31C547.08 1382.31 544.54 1390.43 539.65 1403.81 536.92 1411.27 533.46 1420.37 529.32 1430.62L529.32 1430.62C524.11 1443.51 517.8 1458.21 510.47 1473.73L510.47 1473.73C510.47 1473.73 508.28 1478.53 504.51 1486.52 501.15 1493.63 496.55 1503.27 491.13 1514.29 468.81 1559.73 432.72 1628.71 413.49 1641.4 356.1 1679.27 224.25 1804.47 224.25 1804.47L164.13 1759.88C164.13 1759.88 267.4 1662.64 298.15 1630.61 336 1591.18 364.16 1581.34 370.45 1539 374.62 1510.91 376.18 1417.32 376.21 1415.78 373.59 1369.32 372.66 1308.71 383.51 1287.96 392.61 1270.55 547.08 1382.31 547.08 1382.31Z" fill="#FFD796"/><path d="M666.44 1561.77C667.2 1535.89 638.49 1471.48 617.42 1431.25L617.42 1431.25C584.35 1366.95 537.23 1286.13 537.23 1286.13 537.23 1286.13 375.14 1279.83 375.9 1299.48 377.34 1336.54 469.47 1449.72 482.18 1465.17L481.91 1465.32C481.91 1465.32 528.96 1509.26 549.33 1529.37 581.8 1561.41 573.13 1569.07 587.45 1616.55 600.27 1659.07 676.89 1874.33 676.89 1874.33L743.47 1840.49C743.47 1840.48 665.42 1596.67 666.44 1561.77Z" fill="#FFD796"/><g><path d="M516.36 1145.29C516.17 1150.6 516.01 1156.12 515.9 1161.89 515.85 1164.54 515.87 1167.28 515.95 1170.09 517.07 1210.46 520.71 1230.77 540.8 1292.3 540.8 1292.3 514.98 1315.86 375.32 1371.24 328.04 1184.58 337.92 1027.29 337.92 1027.29 342.42 976.94 356.98 964.29 385.02 931.36 385.02 931.36 391.59 930.18 444.61 952.83 448.32 954.41 469.7 980.77 486.26 1011.7 515.56 1066.43 518.02 1097.57 516.36 1145.29Z" fill="#FFD796"/></g><path d="M369.73 982.6C369.73 982.6 391.84 966.53 413.32 970.41 434.79 974.29 449.63 987.85 463.4 1037.77 477.17 1087.7 436.86 1116.95 411.27 1110.43 385.68 1103.91 332.83 1016.16 369.73 982.6Z" fill="#293C4D"/><g><path d="M436.55 914.6C437.07 917.83 437.75 921.89 438.55 926.28 417.96 917.81 400.02 905.28 394.57 901.3 404.57 907.62 436.55 914.6 436.55 914.6Z" fill="#522D21"/></g><g><path d="M469.93 799.65C469.93 799.65 487.09 826.47 479.94 831.37 474.04 835.42 489.49 861.84 491.57 866.19 493.66 870.54 480.97 874.76 478.44 877.85 475.91 880.94 470.42 917.03 459.85 918.9 449.28 920.77 400.06 907.66 385.98 895.05 371.9 882.44 356.59 821.85 363.38 795.31 370.17 768.77 439.69 752.83 469.93 799.65Z" fill="#8E4F3A"/></g><g><path d="M473.53 805.15C473.53 805.15 476.52 791.61 446.92 771.31 417.31 751.01 378.73 776.7 373.04 778.64 367.35 780.57 342.08 808.39 355.54 841.92 378.03 897.95 379.79 896.16 379.79 896.16 379.79 896.16 379.63 861.28 389.91 858.06 401.07 854.57 419.63 850.6 419.63 850.6 419.63 850.6 407.82 825.16 422.94 820.3 438.05 815.44 457.52 800.53 473.53 805.15Z" fill="#1C110D"/></g><path d="M413.12 852.99C412.12 849.99 407.58 836.54 397 839.4 386.42 842.26 391.29 858.86 400.35 868.09 409.4 877.31 418.68 869.76 413.12 852.99Z" fill="#8E4F3A"/><path d="M477.16 804.88C477.16 804.88 445.95 721.82 376.97 758.45 296.73 801.06 366.08 867.83 366.08 867.83 366.08 867.83 386.02 830.72 477.16 804.88Z" fill="#FFD796"/><path d="M474.24 797.65C474.24 797.65 486.45 797.65 494.11 799.29 517.69 804.36 443.26 815.75 436.91 818.62 377.8 845.32 474.24 797.65 474.24 797.65Z" fill="#FFD796"/><path d="M444.62 983.59C444.62 983.59 392.7 936.59 365.33 987.4 340.68 1033.15 400.13 1052.3 500.99 1133.38 500.99 1133.38 533.46 1156.12 558.95 1161.59 599.68 1170.32 735.42 1181.07 748.17 1184.6L746.3 1138.89C746.3 1138.89 678.95 1129.48 646.75 1119.06 614.55 1108.64 559.64 1098.59 559.64 1098.59L444.62 983.59Z" fill="#385369"/><path d="M516.36 1145.29C516.36 1145.29 516.36 1145.29 516.36 1145.29 516.18 1150.61 516.01 1156.12 515.91 1161.9 515.86 1164.55 515.88 1167.29 515.96 1170.1 478.61 1141.32 456.3 1099.23 455.64 1098.39 468.82 1107.95 516.36 1145.29 516.36 1145.29Z" fill="#A88E63"/><path d="M504.49 1486.52C501.13 1493.63 496.53 1503.27 491.11 1514.29 447.62 1454.33 430.19 1398.43 429.92 1397.56 456.49 1436.32 504.49 1486.52 504.49 1486.52Z" fill="#A88E63"/><path d="M385.02 931.37 385.21 922.48 443.46 943.79 444.62 952.84Z" fill="#385369"/></g><g><rect x="874.67" y="1622.8" width="301.88" height="302.04" fill="#F2B98F"/><rect x="990.52" y="1622.8" width="70.18" height="35.11" fill="#FFE0C9"/></g><g><rect x="1181.18" y="1622.8" width="301.88" height="302.04" fill="#F2B98F"/><rect x="1297.03" y="1622.8" width="70.18" height="35.11" fill="#FFE0C9"/></g><g><rect x="1000.56" y="1321.22" width="301.88" height="302.04" fill="#F2B98F"/><rect x="1116.41" y="1321.22" width="70.18" height="35.11" fill="#FFE0C9"/></g><g><g><path d="M1562.3 1166.01C1562.3 1166.01 1695.66 1148.37 1718.01 1133.37 1728.34 1126.44 1737.58 1105.31 1745.07 1081.69 1747.54 1073.91 1749.81 1065.87 1751.89 1057.97 1751.9 1057.95 1751.89 1057.94 1751.89 1057.94 1760.14 1026.4 1765.01 997.29 1765.01 997.29 1765.01 997.29 1794.52 918.09 1743.36 906.24 1743.36 906.24 1723.43 911.29 1715.04 931.09 1706.63 950.9 1694.42 979.62 1690.5 992.44 1687.8 1001.25 1665.84 1085.08 1663.82 1087.68 1661.8 1090.28 1650.84 1099.84 1632.57 1104.83 1602.78 1112.96 1554.15 1114 1554.15 1114L1562.3 1166.01Z" fill="#385369"/></g><g><path d="M1672.49 1898.58C1672.49 1898.58 1652.18 1919.92 1631.56 1924.39 1610.94 1928.86 1596.52 1934.56 1596.36 1946.81 1596.21 1959.06 1655.7 1967.13 1679.3 1954.78 1714.52 1936.36 1718.1 1941.91 1722 1932.7 1725.9 1923.49 1717.31 1898.86 1717.56 1895.94 1717.87 1892.32 1672.49 1898.58 1672.49 1898.58Z" fill="#202338"/></g><g><path d="M1674.77 1888.37C1674.77 1888.37 1672.09 1898.37 1672.49 1898.58 1672.89 1898.79 1718.95 1903.96 1717.56 1895.93 1716.43 1889.42 1714.82 1882.35 1714.82 1882.35L1674.77 1888.37Z" fill="#2F6B8C"/></g><g><path d="M1901.92 1904.15C1901.92 1904.15 1886.98 1924.94 1866.99 1929.73 1847.28 1934.46 1834.51 1943.45 1833.55 1955.36 1832.58 1967.26 1880.01 1982.85 1913.33 1961.94 1935.23 1948.2 1943.39 1948.98 1947.8 1940.26 1952.21 1931.53 1945.49 1907.07 1945.93 1904.24 1946.48 1900.73 1901.92 1904.15 1901.92 1904.15Z" fill="#202338"/></g><g><path d="M1902.53 1893.87C1902.53 1893.87 1901.55 1903.92 1901.92 1904.15 1902.29 1904.38 1946.2 1912.15 1945.94 1904.23 1945.73 1897.94 1943.16 1890.11 1943.16 1890.11L1902.53 1893.87Z" fill="#2F6B8C"/></g><g><path d="M1721.23 1287.98C1721.23 1287.98 1699.9 1443.02 1691.18 1495.44 1680.99 1556.72 1677.54 1607.36 1674.7 1639.08 1671.13 1678.98 1666.39 1883.14 1663.88 1894.81 1661.38 1906.48 1726.02 1900.41 1726.02 1900.41 1726.02 1900.41 1759.88 1634.24 1770.52 1591.76 1780.43 1552.2 1809.28 1381.31 1818.33 1392.12 1827.37 1402.92 1855.06 1596.5 1861.75 1627.71 1868.45 1658.91 1886.4 1904.54 1886.4 1904.54 1886.4 1904.54 1947.37 1914.32 1959.65 1904.54 1959.65 1904.54 1950.03 1685.52 1945.76 1627.02 1944.13 1604.73 1959.85 1360.13 1922.18 1261.49 1902.28 1209.34 1721.23 1287.98 1721.23 1287.98Z" fill="#FFD796"/></g><g><g><g><g><g><path d="M1848.83 818.37C1848.82 818.42 1848.82 818.42 1848.82 818.42 1846.3 830.69 1842.52 842.68 1837.74 853.23 1821.2 889.71 1765.58 903.9 1744.48 819.77 1740.48 803.84 1739.36 790.4 1740.04 779.13 1742.46 738.95 1767.8 726.26 1767.8 726.26 1787.37 720.39 1823.25 716.95 1841.03 740 1853.64 756.36 1855.02 788.21 1848.83 818.37Z" fill="#EEA987"/></g></g></g></g></g><g><g><g><g><g><path d="M1848.83 818.37C1848.82 818.42 1848.82 818.42 1848.82 818.42 1848.82 818.42 1846.14 819.87 1830.84 801.53 1827.77 797.85 1826.9 801.22 1825.56 799.59L1807.61 797.13C1807.61 797.13 1817.31 766.05 1794.26 763.63 1770.76 761.16 1740.05 779.11 1740.05 779.11 1742.47 738.93 1767.81 726.24 1767.81 726.24 1787.38 720.37 1823.26 716.93 1841.04 739.98 1853.64 756.36 1855.02 788.21 1848.83 818.37Z" fill="#665249"/></g></g></g></g></g><g><g><g><g><g><path d="M1819.17 787.77C1819.03 781.84 1829 774.31 1836.64 785.28 1844.28 796.26 1831.55 812.92 1826.74 811.26 1821.93 809.61 1819.39 797.59 1819.17 787.77Z" fill="#EEA987"/></g></g></g></g></g><g><path d="M1854.42 780.25C1854.42 780.25 1792.88 756.43 1734.49 784.28 1734.49 784.28 1719.63 706.44 1792.86 702.75 1861.65 699.28 1854.59 771.01 1854.42 780.25Z" fill="#FFD796"/></g><g><path d="M1816.53 771.84C1816.53 771.84 1766.38 793.87 1731.19 794.92 1695.99 795.98 1733.51 776.04 1733.51 776.04 1733.51 776.04 1759.33 760.54 1816.53 771.84Z" fill="#FFD796"/></g><path d="M1792.55 893.74C1792.55 893.74 1744.27 903.66 1738 909.21 1731.2 915.12 1717.62 974.89 1716.9 991 1716.19 1007.12 1720.33 1073.54 1727.13 1098.61 1733.93 1123.68 1739.58 1228.84 1735.28 1263.58 1735.28 1263.58 1825.79 1285.49 1930.31 1271.88 1930.31 1271.88 1917.19 1163.15 1921.37 1128.79 1926.73 1084.78 1944.13 988.82 1944.13 988.82 1944.13 988.82 1932.05 914.32 1920.85 909.5 1883.81 893.58 1852.93 894.18 1852.93 894.18L1792.55 893.74Z" fill="#385369"/><path d="M1786.47 904.18C1786.47 904.18 1801.24 915.85 1850.79 894.01 1850.79 894.01 1843.18 864.94 1845.84 830.49 1848.4 797.38 1787 868.58 1787 868.58 1787.2 873.31 1787.3 877.56 1787.33 881.33 1787.37 885.74 1787.32 889.49 1787.22 892.6 1786.98 900.39 1786.47 904.18 1786.47 904.18Z" fill="#EEA886"/><path d="M1781.95 896.04C1781.95 896.04 1770.6 912.94 1786.42 915.82 1802.24 918.7 1835.34 915.64 1852.95 894.2 1852.95 894.19 1804.21 889.57 1781.95 896.04Z" fill="#EEA886"/><path d="M1724.28 1084.88 1756.67 1010.95 1840.85 1010.95C1840.85 1010.95 1879.39 1083.99 1924.16 1108.37 1924.16 1108.37 1926.75 1261.48 1935.38 1312.22 1935.38 1312.22 1891.47 1338.07 1825.08 1339.08 1758.69 1340.09 1715.05 1332.51 1715.05 1332.51 1715.05 1332.51 1731.09 1242.5 1731.38 1229.4 1731.66 1216.32 1727.72 1110.99 1724.28 1084.88Z" fill="#FFD796"/><path d="M1848 1023.46C1848 1023.46 1846.7 935.7 1892.77 899.91 1892.77 899.91 1885.24 896.81 1876.94 896.51 1876.94 896.51 1838.4 913.32 1827.84 1010.95 1817.28 1108.59 1848 1023.46 1848 1023.46Z" fill="#FFD796"/><path d="M1760.44 1010.96C1760.44 1010.96 1751.58 941 1769.84 898.86 1769.84 898.86 1761.62 900.85 1756.94 902.18 1756.94 902.18 1738.01 927.04 1747.21 1032.54 1756.41 1138.04 1760.44 1010.96 1760.44 1010.96Z" fill="#FFD796"/><path d="M1707.56 992.44C1707.56 992.44 1746.59 1201.03 1840.86 1320.07 1840.86 1320.07 1745.59 1364 1574.07 1320.07 1574.07 1320.07 1454.93 1116 1442.91 1001.21 1442.9 1001.2 1560.73 1024.77 1707.56 992.44Z" fill="#FCFCFC"/><path d="M1787.22 892.59C1821.72 890.93 1833.02 861.55 1833.02 861.55 1815.94 885.71 1787.32 880.55 1787.32 880.55 1787.32 880.55 1787.33 881.32 1787.33 881.32 1787.37 885.73 1787.31 889.48 1787.22 892.59Z" fill="#A77860"/><path d="M1815.07 1197.66C1815.07 1197.66 1811.12 1200.65 1807.21 1200.19 1800.46 1199.38 1793.39 1190.46 1785.78 1197.01 1778.16 1203.56 1790.65 1236.39 1795.72 1240.64 1800.79 1244.89 1813.46 1239.67 1827.79 1223.8 1842.12 1207.93 1815.07 1197.66 1815.07 1197.66Z" fill="#EEA886"/><path d="M1788.64 1195.21C1788.64 1195.21 1774.59 1198.86 1759.44 1205.06 1746.15 1210.5 1731.68 1219.63 1731.63 1223.03 1731.57 1226.83 1745.7 1219.82 1759.22 1215.42 1771.67 1211.37 1769.87 1214.5 1769.87 1214.5 1769.87 1214.5 1770.34 1213.57 1757.6 1220.95 1743.9 1228.88 1730.62 1238.56 1730.97 1242.61 1731.14 1244.58 1732.13 1245.27 1737.55 1243.31 1734.67 1245.19 1734.74 1246.34 1735.36 1247.77 1738.56 1255.15 1760.39 1247.03 1769.05 1243.8 1762.41 1246.33 1757.79 1248.98 1762.37 1252.15 1767.61 1255.78 1797.98 1242.73 1809.28 1239.24 1821.61 1235.42 1788.64 1195.21 1788.64 1195.21Z" fill="#EEA987"/><path d="M1894.14 907.48C1886.51 909.65 1882.51 922.49 1882.03 960.71 1881.56 998.93 1893.3 1017.62 1897.47 1026.85 1901.64 1036.09 1924.04 1092.71 1918.46 1099.38 1912.88 1106.04 1862.14 1147.65 1859.11 1151.14 1856.07 1154.63 1799.82 1196.85 1799.82 1196.85L1822.84 1236.25C1822.84 1236.25 1943.04 1158.99 1952.59 1151.05 1962.14 1143.11 1989.98 1127.15 1983.14 1095.7 1976.18 1063.73 1965.22 989.39 1962.61 983.42 1959.99 977.43 1944.62 893.1 1894.14 907.48Z" fill="#385369"/><g><path d="M1503.3 1183.09C1503.3 1183.09 1490.04 1180.32 1486.09 1174.61 1482.14 1168.9 1480.5 1170.52 1475.84 1163.06 1471.17 1155.59 1466.93 1134.75 1471.64 1127.64 1476.35 1120.53 1484.56 1123.57 1484.56 1123.57 1484.56 1123.57 1509.18 1139.86 1503.3 1183.09Z" fill="#EEA987"/></g></g></g></svg>