<svg width="820" height="312" viewBox="0 0 820 312" xmlns="http://www.w3.org/2000/svg" xmlns:xlink="http://www.w3.org/1999/xlink" xml:space="preserve" overflow="visible"><defs></defs><rect x="0" y="0" width="820" height="312" fill="#0A104E"/><path d="M378.48 265.36 381.34 262.5C381.51 262.33 381.51 262.05 381.34 261.89 381.17 261.73 380.89 261.72 380.73 261.89L377.87 264.75 375.01 261.89C374.84 261.72 374.56 261.72 374.4 261.89 374.24 262.06 374.23 262.34 374.4 262.5L377.26 265.36 374.4 268.22C374.23 268.39 374.23 268.67 374.4 268.83 374.48 268.91 374.6 268.96 374.71 268.96 374.82 268.96 374.93 268.92 375.02 268.83L377.88 265.97 380.74 268.83C380.82 268.91 380.94 268.96 381.05 268.96 381.16 268.96 381.27 268.92 381.36 268.83 381.53 268.66 381.53 268.38 381.36 268.22L378.48 265.36Z" fill="#6645FF"/><path d="M692.49 127.6 695.35 124.74C695.52 124.57 695.52 124.29 695.35 124.13 695.18 123.96 694.9 123.96 694.74 124.13L691.88 126.99 689.02 124.13C688.85 123.96 688.57 123.96 688.41 124.13 688.24 124.3 688.24 124.58 688.41 124.74L691.27 127.6 688.41 130.46C688.24 130.63 688.24 130.91 688.41 131.08 688.5 131.17 688.61 131.21 688.72 131.21 688.83 131.21 688.94 131.17 689.03 131.08L691.89 128.22 694.75 131.08C694.84 131.17 694.95 131.21 695.06 131.21 695.17 131.21 695.28 131.17 695.37 131.08 695.54 130.91 695.54 130.63 695.37 130.46L692.49 127.6Z" fill="#82ECE2"/><path d="M645.74 37.75 648.6 34.89C648.77 34.72 648.77 34.44 648.6 34.28 648.43 34.11 648.15 34.11 647.99 34.28L645.13 37.14 642.27 34.28C642.1 34.11 641.82 34.11 641.66 34.28 641.49 34.45 641.49 34.73 641.66 34.89L644.52 37.75 641.66 40.61C641.49 40.78 641.49 41.06 641.66 41.22 641.75 41.3 641.86 41.35 641.97 41.35 642.08 41.35 642.19 41.31 642.28 41.22L645.14 38.36 648 41.22C648.08 41.3 648.2 41.35 648.31 41.35 648.42 41.35 648.53 41.31 648.62 41.22 648.79 41.05 648.79 40.77 648.62 40.61L645.74 37.75Z" fill="#82ECE2"/><path d="M129.4 182.85 130.43 181.82C130.6 181.65 130.6 181.37 130.43 181.2 130.26 181.03 129.98 181.03 129.82 181.2L128.79 182.23 127.76 181.2C127.59 181.03 127.31 181.03 127.15 181.2 126.98 181.37 126.98 181.65 127.15 181.82L128.18 182.85 127.15 183.88C126.98 184.05 126.98 184.33 127.15 184.5 127.23 184.58 127.35 184.63 127.46 184.63 127.57 184.63 127.68 184.59 127.77 184.5L128.8 183.47 129.83 184.5C129.91 184.58 130.03 184.63 130.14 184.63 130.25 184.63 130.36 184.59 130.45 184.5 130.62 184.33 130.62 184.05 130.45 183.88L129.4 182.85Z" fill="#6645FF"/><path d="M497.15 162.85 498.18 161.82C498.35 161.65 498.35 161.37 498.18 161.2 498.01 161.03 497.73 161.03 497.57 161.2L496.54 162.23 495.51 161.2C495.34 161.03 495.06 161.03 494.9 161.2 494.73 161.37 494.73 161.65 494.9 161.82L495.93 162.85 494.9 163.88C494.73 164.05 494.73 164.33 494.9 164.49 494.98 164.57 495.1 164.62 495.21 164.62 495.32 164.62 495.43 164.58 495.52 164.49L496.55 163.46 497.58 164.49C497.66 164.57 497.78 164.62 497.89 164.62 498 164.62 498.11 164.58 498.2 164.49 498.37 164.32 498.37 164.04 498.2 163.88L497.15 162.85Z" fill="#82ECE2"/><g><path d="M799.98 249.38C797.88 249.38 796.17 247.67 796.17 245.57 796.17 243.47 797.88 241.76 799.98 241.76 802.08 241.76 803.79 243.47 803.79 245.57 803.79 247.67 802.08 249.38 799.98 249.38ZM799.98 242.64C798.36 242.64 797.04 243.96 797.04 245.58 797.04 247.2 798.36 248.52 799.98 248.52 801.6 248.52 802.92 247.2 802.92 245.58 802.92 243.96 801.6 242.64 799.98 242.64Z" fill="#82ECE2"/></g><g><path d="M592.84 158.63C591.39 158.63 590.21 157.45 590.21 156 590.21 154.55 591.39 153.37 592.84 153.37 594.29 153.37 595.47 154.55 595.47 156 595.47 157.45 594.29 158.63 592.84 158.63ZM592.84 154.24C591.87 154.24 591.08 155.03 591.08 156 591.08 156.97 591.87 157.76 592.84 157.76 593.81 157.76 594.6 156.97 594.6 156 594.6 155.03 593.81 154.24 592.84 154.24Z" fill="#6645FF"/></g><g><path d="M442.08 126.63C440.63 126.63 439.44 125.45 439.44 123.99 439.44 122.53 440.62 121.35 442.08 121.35 443.53 121.35 444.72 122.53 444.72 123.99 444.72 125.45 443.54 126.63 442.08 126.63ZM442.08 122.22C441.1 122.22 440.31 123.01 440.31 123.99 440.31 124.97 441.1 125.76 442.08 125.76 443.05 125.76 443.85 124.97 443.85 123.99 443.85 123.02 443.06 122.22 442.08 122.22Z" fill="#6645FF"/></g><g><path d="M246.54 45.14 251.98 45.14C252.22 45.14 252.41 45.33 252.41 45.57L252.41 51.01C252.41 51.25 252.22 51.44 251.98 51.44L246.54 51.44C246.3 51.44 246.11 51.25 246.11 51.01L246.11 45.57C246.11 45.34 246.3 45.14 246.54 45.14ZM251.54 46.01 246.97 46.01 246.97 50.58 251.54 50.58 251.54 46.01Z" fill="#82ECE2"/></g><g><path d="M231.5 143.2 226.06 143.2C225.82 143.2 225.63 143.01 225.63 142.77L225.63 137.33C225.63 137.09 225.82 136.9 226.06 136.9L231.5 136.9C231.74 136.9 231.93 137.09 231.93 137.33L231.93 142.77C231.93 143.01 231.74 143.2 231.5 143.2ZM226.5 142.33 231.07 142.33 231.07 137.76 226.5 137.76 226.5 142.33Z" fill="#6645FF"/></g><g><path d="M37.93 33.4 32.49 33.4C32.25 33.4 32.06 33.21 32.06 32.97L32.06 27.53C32.06 27.29 32.25 27.1 32.49 27.1L37.93 27.1C38.17 27.1 38.36 27.29 38.36 27.53L38.36 32.97C38.36 33.2 38.17 33.4 37.93 33.4ZM32.92 32.53 37.49 32.53 37.49 27.96 32.92 27.96 32.92 32.53Z" fill="#6645FF"/></g><g><path d="M331.68 48.33 337.05 48.33C337.29 48.33 337.48 48.52 337.48 48.76L337.48 54.13C337.48 54.37 337.29 54.56 337.05 54.56L331.68 54.56C331.44 54.56 331.25 54.37 331.25 54.13L331.25 48.76C331.25 48.52 331.44 48.33 331.68 48.33ZM336.62 49.2 332.12 49.2 332.12 53.7 336.62 53.7 336.62 49.2Z" fill="#6645FF"/></g><g><path d="M648.73 253.71C650.95 253.71 652.75 255.51 652.75 257.73 652.75 259.95 650.95 261.75 648.73 261.75 646.51 261.75 644.71 259.95 644.71 257.73 644.71 255.51 646.52 253.71 648.73 253.71ZM648.73 260.88C650.47 260.88 651.88 259.47 651.88 257.73 651.88 255.99 650.47 254.58 648.73 254.58 646.99 254.58 645.58 255.99 645.58 257.73 645.58 259.47 646.99 260.88 648.73 260.88Z" fill="#82ECE2"/></g><g><path d="M115.26 127.6C112.31 127.6 109.91 125.2 109.91 122.24 109.91 119.29 112.31 116.88 115.26 116.88 118.21 116.88 120.62 119.28 120.62 122.24 120.61 125.2 118.21 127.6 115.26 127.6ZM115.26 117.76C112.79 117.76 110.77 119.77 110.77 122.25 110.77 124.72 112.78 126.74 115.26 126.74 117.73 126.74 119.75 124.73 119.75 122.25 119.74 119.77 117.73 117.76 115.26 117.76Z" fill="#82ECE2"/></g><path d="M795.78 89.71 798.64 86.85C798.81 86.68 798.81 86.4 798.64 86.24 798.47 86.07 798.19 86.07 798.03 86.24L795.17 89.1 792.31 86.24C792.14 86.07 791.86 86.07 791.7 86.24 791.53 86.41 791.53 86.69 791.7 86.85L794.56 89.71 791.7 92.57C791.53 92.74 791.53 93.02 791.7 93.18 791.78 93.26 791.9 93.31 792.01 93.31 792.12 93.31 792.23 93.27 792.32 93.18L795.18 90.32 798.04 93.18C798.12 93.26 798.24 93.31 798.35 93.31 798.46 93.31 798.57 93.27 798.66 93.18 798.83 93.01 798.83 92.73 798.66 92.57L795.78 89.71Z" fill="#6645FF"/><g><path d="M787.33 50.86C784.38 50.86 781.98 48.46 781.98 45.5 781.98 42.54 784.38 40.15 787.33 40.15 790.28 40.15 792.69 42.55 792.69 45.5 792.69 48.45 790.29 50.86 787.33 50.86ZM787.33 41.01C784.86 41.01 782.84 43.02 782.84 45.5 782.84 47.97 784.85 49.99 787.33 49.99 789.8 49.99 791.82 47.98 791.82 45.5 791.82 43.03 789.81 41.01 787.33 41.01Z" fill="#82ECE2"/></g><g><path d="M43.72 284.69C40.77 284.69 38.37 282.29 38.37 279.33 38.37 276.38 40.77 273.98 43.72 273.98 46.67 273.98 49.08 276.38 49.08 279.33 49.07 282.29 46.67 284.69 43.72 284.69ZM43.72 274.85C41.25 274.85 39.23 276.86 39.23 279.34 39.23 281.81 41.24 283.83 43.72 283.83 46.19 283.83 48.21 281.82 48.21 279.34 48.2 276.86 46.19 274.85 43.72 274.85Z" fill="#82ECE2"/></g><rect x="0" y="67.1" width="22" height="177.8" fill="#5D8FF4"/><rect x="787.33" y="279.33" width="32.67" height="32.67" fill="#5D8FF4"/><g><g><rect x="462.89" y="38.43" width="3.65" height="3.65" fill="#5D8FF4"/><rect x="512.01" y="38.43" width="3.65" height="3.65" fill="#5D8FF4"/><rect x="505" y="38.43" width="3.65" height="3.65" fill="#5D8FF4"/><rect x="497.98" y="38.43" width="3.65" height="3.65" fill="#5D8FF4"/><rect x="490.96" y="38.43" width="3.65" height="3.65" fill="#5D8FF4"/><rect x="483.94" y="38.43" width="3.65" height="3.65" fill="#5D8FF4"/><rect x="476.93" y="38.43" width="3.65" height="3.65" fill="#5D8FF4"/><rect x="469.91" y="38.43" width="3.65" height="3.65" fill="#5D8FF4"/><rect x="519.02" y="38.43" width="3.65" height="3.65" fill="#5D8FF4"/><rect x="568.14" y="38.43" width="3.65" height="3.65" fill="#5D8FF4"/><rect x="561.12" y="38.43" width="3.65" height="3.65" fill="#5D8FF4"/><rect x="554.1" y="38.43" width="3.65" height="3.65" fill="#5D8FF4"/><rect x="547.09" y="38.43" width="3.65" height="3.65" fill="#5D8FF4"/><rect x="540.07" y="38.43" width="3.65" height="3.65" fill="#5D8FF4"/><rect x="533.05" y="38.43" width="3.65" height="3.65" fill="#5D8FF4"/><rect x="526.04" y="38.43" width="3.65" height="3.65" fill="#5D8FF4"/></g><g><rect x="533.06" y="45.5" width="3.65" height="3.65" fill="#5D8FF4"/><rect x="526.05" y="45.5" width="3.65" height="3.65" fill="#5D8FF4"/><rect x="519.03" y="45.5" width="3.65" height="3.65" fill="#5D8FF4"/><rect x="512.01" y="45.5" width="3.65" height="3.65" fill="#5D8FF4"/><rect x="540.07" y="45.5" width="3.65" height="3.65" fill="#5D8FF4"/><rect x="589.19" y="45.5" width="3.65" height="3.65" fill="#5D8FF4"/><rect x="582.17" y="45.5" width="3.65" height="3.65" fill="#5D8FF4"/><rect x="575.16" y="45.5" width="3.65" height="3.65" fill="#5D8FF4"/><rect x="568.14" y="45.5" width="3.65" height="3.65" fill="#5D8FF4"/><rect x="561.12" y="45.5" width="3.65" height="3.65" fill="#5D8FF4"/><rect x="554.1" y="45.5" width="3.65" height="3.65" fill="#5D8FF4"/><rect x="547.09" y="45.5" width="3.65" height="3.65" fill="#5D8FF4"/></g></g><g><g><rect x="130.55" y="263.61" width="3.65" height="3.65" fill="#5D8FF4"/><rect x="179.67" y="263.61" width="3.65" height="3.65" fill="#5D8FF4"/><rect x="172.65" y="263.61" width="3.65" height="3.65" fill="#5D8FF4"/><rect x="165.64" y="263.61" width="3.65" height="3.65" fill="#5D8FF4"/><rect x="158.62" y="263.61" width="3.65" height="3.65" fill="#5D8FF4"/><rect x="151.6" y="263.61" width="3.65" height="3.65" fill="#5D8FF4"/><rect x="144.59" y="263.61" width="3.65" height="3.65" fill="#5D8FF4"/><rect x="137.57" y="263.61" width="3.65" height="3.65" fill="#5D8FF4"/><rect x="186.68" y="263.61" width="3.65" height="3.65" fill="#5D8FF4"/><rect x="235.8" y="263.61" width="3.65" height="3.65" fill="#5D8FF4"/><rect x="228.78" y="263.61" width="3.65" height="3.65" fill="#5D8FF4"/><rect x="221.76" y="263.61" width="3.65" height="3.65" fill="#5D8FF4"/><rect x="214.74" y="263.61" width="3.65" height="3.65" fill="#5D8FF4"/><rect x="207.73" y="263.61" width="3.65" height="3.65" fill="#5D8FF4"/><rect x="200.71" y="263.61" width="3.65" height="3.65" fill="#5D8FF4"/><rect x="193.69" y="263.61" width="3.65" height="3.65" fill="#5D8FF4"/></g><g><rect x="200.72" y="270.68" width="3.65" height="3.65" fill="#5D8FF4"/><rect x="193.71" y="270.68" width="3.65" height="3.65" fill="#5D8FF4"/><rect x="186.69" y="270.68" width="3.65" height="3.65" fill="#5D8FF4"/><rect x="179.67" y="270.68" width="3.65" height="3.65" fill="#5D8FF4"/><rect x="207.73" y="270.68" width="3.65" height="3.65" fill="#5D8FF4"/><rect x="256.85" y="270.68" width="3.65" height="3.65" fill="#5D8FF4"/><rect x="249.83" y="270.68" width="3.65" height="3.65" fill="#5D8FF4"/><rect x="242.81" y="270.68" width="3.65" height="3.65" fill="#5D8FF4"/><rect x="235.8" y="270.68" width="3.65" height="3.65" fill="#5D8FF4"/><rect x="228.78" y="270.68" width="3.65" height="3.65" fill="#5D8FF4"/><rect x="221.76" y="270.68" width="3.65" height="3.65" fill="#5D8FF4"/><rect x="214.74" y="270.68" width="3.65" height="3.65" fill="#5D8FF4"/></g></g></svg>